# Blender 4.4.1
# www.blender.org
mtllib Book_Pile_1.mtl
o Book_Pile_1
v 0.163373 0.030287 0.012209
v 0.067256 0.038958 -0.153123
v 0.163373 0.007277 0.012209
v 0.067256 -0.001395 -0.153123
v -0.163513 0.030287 -0.018963
v -0.067396 0.030287 0.146369
v -0.163513 0.007277 -0.018963
v -0.067396 0.007277 0.146369
v 0.067256 0.007277 -0.153123
v 0.166889 -0.001395 0.018255
v 0.067256 0.030287 -0.153123
v 0.166889 0.038958 0.018255
v -0.163513 0.038958 -0.018963
v -0.163513 -0.001395 -0.018963
v -0.063880 -0.001395 0.152416
v -0.063880 0.038958 0.152416
v 0.059210 0.029176 -0.141327
v 0.059210 0.008387 -0.141327
v -0.149281 0.029176 -0.020118
v -0.149281 0.008387 -0.020118
v 0.146049 0.008387 0.008044
v 0.146049 0.029176 0.008044
v -0.062443 0.008387 0.129253
v -0.062443 0.029176 0.129253
v 0.160267 0.070527 -0.038532
v 0.018163 0.079198 -0.166515
v 0.160267 0.047517 -0.038532
v 0.018163 0.038846 -0.166515
v -0.160475 0.070527 0.031832
v -0.018371 0.070527 0.159816
v -0.160475 0.047517 0.031832
v -0.018371 0.047517 0.159816
v 0.018163 0.047517 -0.166515
v 0.165464 0.038846 -0.033851
v 0.018163 0.070527 -0.166515
v 0.165464 0.079198 -0.033851
v -0.160475 0.079198 0.031832
v -0.160475 0.038846 0.031832
v -0.013174 0.038846 0.164496
v -0.013174 0.079198 0.164496
v 0.014113 0.069416 -0.152823
v 0.014113 0.048627 -0.152823
v -0.147280 0.069416 0.026377
v -0.147280 0.048627 0.026377
v 0.142499 0.048627 -0.037195
v 0.142499 0.069416 -0.037195
v -0.018894 0.048627 0.142005
v -0.018894 0.069416 0.142005
v 0.052388 0.116546 0.125888
v 0.086184 0.126555 -0.030285
v 0.052388 0.089986 0.125888
v 0.086184 0.079977 -0.030285
v -0.131801 0.116546 -0.077456
v -0.165597 0.116546 0.078717
v -0.131801 0.089986 -0.077456
v -0.165597 0.089986 0.078717
v 0.086184 0.089986 -0.030285
v 0.051152 0.079977 0.131600
v 0.086184 0.116546 -0.030285
v 0.051152 0.126555 0.131600
v -0.131801 0.126555 -0.077456
v -0.131801 0.079977 -0.077456
v -0.166833 0.079977 0.084428
v -0.166833 0.126555 0.084428
v 0.074575 0.115264 -0.027536
v 0.074575 0.091268 -0.027536
v -0.122367 0.115264 -0.070154
v -0.122367 0.091268 -0.070154
v 0.044042 0.091268 0.113561
v 0.044042 0.115264 0.113561
v -0.152900 0.091268 0.070943
v -0.152900 0.115264 0.070943
v -0.208227 0.157664 -0.017886
v -0.180060 0.166100 0.156201
v -0.208227 0.135278 -0.017886
v -0.180060 0.126843 0.156201
v 0.062929 0.157664 0.116885
v 0.034762 0.157664 -0.057202
v 0.062929 0.135278 0.116885
v 0.034762 0.135278 -0.057202
v -0.180060 0.135278 0.156201
v -0.209257 0.126843 -0.024253
v -0.180060 0.157664 0.156201
v -0.209257 0.166100 -0.024253
v 0.062929 0.166100 0.116885
v 0.062929 0.126843 0.116885
v 0.033732 0.126843 -0.063568
v 0.033732 0.166100 -0.063568
v -0.169238 0.156583 0.148701
v -0.169238 0.136359 0.148701
v 0.050294 0.156583 0.113181
v 0.050294 0.136359 0.113181
v -0.194686 0.136359 -0.008580
v -0.194686 0.156583 -0.008580
v 0.024846 0.136359 -0.044100
v 0.024846 0.156583 -0.044100
v 0.075880 0.198603 0.076564
v 0.007497 0.207274 -0.074697
v 0.075880 0.175593 0.076564
v 0.007497 0.166922 -0.074697
v -0.203631 0.198603 0.020751
v -0.135249 0.198603 0.172012
v -0.203631 0.175593 0.020751
v -0.135249 0.175593 0.172012
v 0.007497 0.175593 -0.074697
v 0.078381 0.166922 0.082096
v 0.007497 0.198603 -0.074697
v 0.078381 0.207274 0.082096
v -0.203631 0.207274 0.020751
v -0.203631 0.166922 0.020751
v -0.132748 0.166922 0.177544
v -0.132748 0.207274 0.177544
v -0.000493 0.197492 -0.065222
v -0.000493 0.176703 -0.065222
v -0.191240 0.197492 0.021012
v -0.191240 0.176703 0.021012
v 0.061288 0.176703 0.071436
v 0.061288 0.197492 0.071436
v -0.129459 0.176703 0.157670
v -0.129459 0.197492 0.157670
v -0.006230 0.182983 -0.055217
v -0.173366 0.182983 -0.041921
v -0.163492 0.182983 0.082201
v 0.035230 0.142784 0.053631
v -0.000934 0.142784 0.172778
v -0.161371 0.142784 0.124081
v 0.071987 0.059971 -0.029642
v -0.017798 0.059971 0.047458
v -0.031833 0.059971 -0.150542
v -0.121618 0.059971 -0.073442
v -0.026733 0.059260 0.123572
v -0.107977 0.059260 0.139530
v -0.129466 0.059260 0.030131
v 0.039966 0.097686 -0.021448
v 0.106645 0.097686 0.029764
v 0.033365 0.097686 0.116347
vn 0.5026 -0.0000 0.8645
vn 0.0742 0.9963 -0.0432
vn -0.0000 -1.0000 -0.0000
vn -0.0000 1.0000 -0.0000
vn 0.2337 -0.0000 -0.9723
vn -0.0893 0.9841 -0.1535
vn 0.8645 -0.0000 -0.5026
vn -0.5026 -0.0000 -0.8645
vn -0.8645 -0.0000 0.5026
vn -0.9606 -0.0000 -0.2780
vn -0.0742 0.9963 0.0432
vn -0.0893 -0.9841 -0.1535
vn 0.0742 -0.9963 -0.0432
vn -0.0742 -0.9963 0.0432
vn 0.7431 -0.0000 0.6692
vn 0.0575 0.9963 -0.0638
vn -0.0750 -0.0000 -0.9972
vn -0.1320 0.9841 -0.1189
vn 0.6692 -0.0000 -0.7431
vn -0.7431 -0.0000 -0.6692
vn -0.6692 -0.0000 0.7431
vn -0.9996 -0.0000 0.0293
vn -0.0575 0.9963 0.0638
vn -0.1320 -0.9841 -0.1189
vn 0.0575 -0.9963 -0.0638
vn -0.0575 -0.9963 0.0638
vn -0.2115 -0.0000 0.9774
vn 0.1156 0.9930 0.0250
vn 0.8281 -0.0000 -0.5606
vn 0.0512 0.9703 -0.2365
vn 0.9774 -0.0000 0.2115
vn 0.2115 -0.0000 -0.9774
vn -0.9774 -0.0000 -0.2115
vn -0.5222 -0.0000 -0.8528
vn -0.1156 0.9930 -0.0250
vn 0.0512 -0.9703 -0.2365
vn 0.1156 -0.9930 0.0250
vn -0.1156 -0.9930 -0.0250
vn -0.1597 -0.0000 -0.9872
vn -0.0894 0.9959 0.0145
vn -0.5664 -0.0000 0.8241
vn 0.0299 0.9824 0.1846
vn -0.9872 -0.0000 0.1597
vn 0.1597 -0.0000 0.9872
vn 0.9872 -0.0000 -0.1597
vn 0.7974 -0.0000 0.6035
vn 0.0894 0.9959 -0.0145
vn 0.0299 -0.9824 0.1846
vn -0.0894 -0.9959 0.0145
vn 0.0894 -0.9959 -0.0145
vn 0.4119 -0.0000 0.9112
vn 0.0901 0.9951 -0.0407
vn 0.3315 -0.0000 -0.9434
vn -0.0839 0.9791 -0.1855
vn 0.9112 -0.0000 -0.4119
vn -0.4119 -0.0000 -0.9112
vn -0.9112 -0.0000 0.4119
vn -0.9273 -0.0000 -0.3743
vn -0.0900 0.9951 0.0407
vn -0.0839 -0.9791 -0.1855
vn 0.0900 -0.9951 -0.0407
vn -0.0900 -0.9951 0.0407
vt 0.543359 0.883998
vt 0.543359 0.883420
vt 0.543359 0.867610
vt 0.216640 0.782561
vt 0.216640 0.798371
vt 0.216640 0.798371
vt 0.624088 0.886602
vt 0.624088 0.886602
vt 0.624088 0.886024
vt 0.624088 0.870214
vt 0.234813 0.785253
vt 0.234813 0.801641
s 0
usemtl Palette
f 16/1/1 15/1/1 10/1/1 12/1/1
f 3/2/2 9/3/2 18/3/2 21/2/2
f 15/1/3 14/3/3 4/3/3 10/1/3
f 13/3/4 16/1/4 12/1/4 2/3/4
f 1/2/5 3/2/5 21/2/5 22/2/5
f 9/3/6 7/3/6 20/3/6 18/3/6
f 9/3/7 3/2/7 10/1/7 4/3/7
f 1/2/7 11/3/7 2/3/7 12/1/7
f 3/2/7 1/2/7 12/1/7 10/1/7
f 11/3/8 5/3/8 13/3/8 2/3/8
f 7/3/8 9/3/8 4/3/8 14/3/8
f 8/2/9 7/3/9 14/3/9 15/1/9
f 5/3/9 6/2/9 16/1/9 13/3/9
f 6/2/9 8/2/9 15/1/9 16/1/9
f 18/4/7 17/4/7 22/5/7 21/5/7
f 20/4/8 19/4/8 17/4/8 18/4/8
f 20/4/9 23/5/9 24/6/9 19/4/9
f 8/2/10 6/2/10 24/2/10 23/2/10
f 7/3/11 8/2/11 23/2/11 20/3/11
f 5/3/12 11/3/12 17/3/12 19/3/12
f 11/3/13 1/2/13 22/2/13 17/3/13
f 6/2/14 5/3/14 19/3/14 24/2/14
f 40/7/15 39/8/15 34/8/15 36/7/15
f 27/9/16 33/10/16 42/10/16 45/9/16
f 39/8/3 38/10/3 28/10/3 34/8/3
f 37/10/4 40/7/4 36/7/4 26/10/4
f 25/9/17 27/9/17 45/9/17 46/9/17
f 33/10/18 31/10/18 44/10/18 42/10/18
f 33/10/19 27/9/19 34/8/19 28/10/19
f 25/9/19 35/10/19 26/10/19 36/7/19
f 27/9/19 25/9/19 36/7/19 34/8/19
f 35/10/20 29/10/20 37/10/20 26/10/20
f 31/10/20 33/10/20 28/10/20 38/10/20
f 32/9/21 31/10/21 38/10/21 39/8/21
f 29/10/21 30/9/21 40/7/21 37/10/21
f 30/9/21 32/9/21 39/8/21 40/7/21
f 42/4/19 41/4/19 46/5/19 45/5/19
f 44/4/20 43/4/20 41/4/20 42/4/20
f 44/4/21 47/5/21 48/6/21 43/4/21
f 32/9/22 30/9/22 48/9/22 47/9/22
f 31/10/23 32/9/23 47/9/23 44/10/23
f 29/10/24 35/10/24 41/10/24 43/10/24
f 35/10/25 25/9/25 46/9/25 41/10/25
f 30/9/26 29/10/26 43/10/26 48/9/26
f 64/1/27 63/1/27 58/1/27 60/1/27
f 51/2/28 57/3/28 66/3/28 69/2/28
f 63/1/3 62/3/3 52/3/3 58/1/3
f 61/3/4 64/1/4 60/1/4 50/3/4
f 49/2/29 51/2/29 69/2/29 70/2/29
f 57/3/30 55/3/30 68/3/30 66/3/30
f 57/3/31 51/2/31 58/1/31 52/3/31
f 49/2/31 59/3/31 50/3/31 60/1/31
f 51/2/31 49/2/31 60/1/31 58/1/31
f 59/3/32 53/3/32 61/3/32 50/3/32
f 55/3/32 57/3/32 52/3/32 62/3/32
f 56/2/33 55/3/33 62/3/33 63/1/33
f 53/3/33 54/2/33 64/1/33 61/3/33
f 54/2/33 56/2/33 63/1/33 64/1/33
f 66/4/31 65/4/31 70/5/31 69/5/31
f 68/4/32 67/4/32 65/4/32 66/4/32
f 68/4/33 71/5/33 72/6/33 67/4/33
f 56/2/34 54/2/34 72/2/34 71/2/34
f 55/3/35 56/2/35 71/2/35 68/3/35
f 53/3/36 59/3/36 65/3/36 67/3/36
f 59/3/37 49/2/37 70/2/37 65/3/37
f 54/2/38 53/3/38 67/3/38 72/2/38
f 88/1/39 87/1/39 82/1/39 84/1/39
f 75/2/40 81/3/40 90/3/40 93/2/40
f 87/1/3 86/3/3 76/3/3 82/1/3
f 85/3/4 88/1/4 84/1/4 74/3/4
f 73/2/41 75/2/41 93/2/41 94/2/41
f 81/3/42 79/3/42 92/3/42 90/3/42
f 81/3/43 75/2/43 82/1/43 76/3/43
f 73/2/43 83/3/43 74/3/43 84/1/43
f 75/2/43 73/2/43 84/1/43 82/1/43
f 83/3/44 77/3/44 85/3/44 74/3/44
f 79/3/44 81/3/44 76/3/44 86/3/44
f 80/2/45 79/3/45 86/3/45 87/1/45
f 77/3/45 78/2/45 88/1/45 85/3/45
f 78/2/45 80/2/45 87/1/45 88/1/45
f 90/4/43 89/4/43 94/5/43 93/5/43
f 92/4/44 91/4/44 89/4/44 90/4/44
f 92/4/45 95/5/45 96/6/45 91/4/45
f 80/2/46 78/2/46 96/2/46 95/2/46
f 79/3/47 80/2/47 95/2/47 92/3/47
f 77/3/48 83/3/48 89/3/48 91/3/48
f 83/3/49 73/2/49 94/2/49 89/3/49
f 78/2/50 77/3/50 91/3/50 96/2/50
f 112/1/51 111/1/51 106/1/51 108/1/51
f 99/2/52 105/3/52 114/3/52 117/2/52
f 111/1/3 110/3/3 100/3/3 106/1/3
f 109/3/4 112/1/4 108/1/4 98/3/4
f 97/2/53 99/2/53 117/2/53 118/2/53
f 105/3/54 103/3/54 116/3/54 114/3/54
f 105/3/55 99/2/55 106/1/55 100/3/55
f 97/2/55 107/3/55 98/3/55 108/1/55
f 99/2/55 97/2/55 108/1/55 106/1/55
f 107/3/56 101/3/56 109/3/56 98/3/56
f 103/3/56 105/3/56 100/3/56 110/3/56
f 104/2/57 103/3/57 110/3/57 111/1/57
f 101/3/57 102/2/57 112/1/57 109/3/57
f 102/2/57 104/2/57 111/1/57 112/1/57
f 114/4/55 113/4/55 118/5/55 117/5/55
f 116/4/56 115/4/56 113/4/56 114/4/56
f 116/4/57 119/5/57 120/6/57 115/4/57
f 104/2/58 102/2/58 120/2/58 119/2/58
f 103/3/59 104/2/59 119/2/59 116/3/59
f 101/3/60 107/3/60 113/3/60 115/3/60
f 107/3/61 97/2/61 118/2/61 113/3/61
f 102/2/62 101/3/62 115/3/62 120/2/62
f 122/11/4 123/12/4 121/11/4
f 124/11/4 126/12/4 125/12/4
f 129/11/4 130/12/4 128/12/4 127/11/4
f 131/11/4 133/12/4 132/12/4
f 134/11/4 136/12/4 135/12/4
