# Blender 4.4.1
# www.blender.org
mtllib Ceiling_Lamp_2.mtl
o Ceiling_Lamp_2
v -0.546361 0.026508 0.092668
v 0.546361 0.026508 0.092668
v -0.546361 0.026508 -0.092215
v 0.546361 0.026508 -0.092215
v 0.530484 -0.037918 -0.076763
v -0.530484 -0.037918 -0.076763
v 0.530484 -0.037918 0.077216
v -0.530484 -0.037918 0.077216
v 0.539028 -0.037918 -0.085614
v -0.539028 -0.037918 -0.085614
v 0.539028 -0.037918 0.086067
v -0.539028 -0.037918 0.086067
v 0.530484 -0.028019 -0.076763
v -0.530484 -0.028019 -0.076763
v 0.530484 -0.028019 0.077216
v -0.530484 -0.028019 0.077216
v 0.517829 -0.024962 0.010132
v 0.517829 -0.024962 -0.059577
v 0.517829 -0.024962 -0.010584
v -0.517829 -0.024962 -0.010584
v 0.517829 -0.044050 0.026588
v 0.517829 -0.038459 0.014952
v -0.517829 -0.044050 0.026588
v -0.517829 -0.024962 0.010132
v -0.517829 -0.038459 0.014952
v 0.517829 -0.044050 0.042667
v 0.517829 -0.024962 0.059124
v 0.517829 -0.038459 0.054304
v -0.517829 -0.024962 0.059124
v -0.517829 -0.044050 0.042667
v -0.517829 -0.038459 0.054304
v 0.517829 -0.044050 -0.043120
v 0.517829 -0.038459 -0.054757
v -0.517829 -0.044050 -0.043120
v -0.517829 -0.024962 -0.059577
v -0.517829 -0.038459 -0.054757
v 0.517829 -0.044050 -0.027041
v 0.517829 -0.038459 -0.015405
v -0.517829 -0.044050 -0.027041
v -0.517829 -0.038459 -0.015405
v -0.454687 0.066954 0.042413
v 0.454687 0.066954 0.042413
v -0.454687 0.066954 -0.041960
v 0.454687 0.066954 -0.041960
v -0.454687 0.018482 -0.041960
v -0.454687 0.018482 0.042413
v 0.454687 0.018482 0.042413
v 0.454687 0.018482 -0.041960
vn 0.9936 -0.1131 -0.0000
vn -0.0000 -0.1019 -0.9948
vn -0.0000 -0.0000 -1.0000
vn -0.0000 -0.1019 0.9948
vn -0.9936 -0.1131 -0.0000
vn -0.0000 -1.0000 -0.0000
vn -0.0000 -0.0000 1.0000
vn 1.0000 -0.0000 -0.0000
vn -1.0000 -0.0000 -0.0000
vn 0.6158 -0.2650 -0.7420
vn 0.6158 -0.2650 0.7420
vn 0.6307 -0.5192 0.5767
vn 0.6604 -0.7322 0.1668
vn 0.6604 -0.7322 -0.1668
vn 0.6307 -0.5192 -0.5767
vn -0.6604 -0.7322 0.1668
vn -0.6604 -0.7322 -0.1668
vn -0.6158 -0.2650 0.7420
vn -0.6158 -0.2650 -0.7420
vn -0.6307 -0.5192 -0.5767
vn -0.6307 -0.5192 0.5767
vn -0.0000 1.0000 -0.0000
vt 0.153080 0.938357
vt 0.153080 0.988357
vt 0.103080 0.988357
vt 0.152684 0.940935
vt 0.103476 0.940935
vt 0.103080 0.938357
vt 0.152684 0.985780
vt 0.103476 0.985780
vt 0.151806 0.817821
vt 0.151806 0.772977
vt 0.151806 0.774447
vt 0.151806 0.788040
vt 0.151806 0.802758
vt 0.151806 0.816350
vt 0.102598 0.788040
vt 0.102598 0.802758
vt 0.151806 0.788040
vt 0.102598 0.772977
vt 0.102598 0.817821
vt 0.102598 0.816350
vt 0.102598 0.774447
vt 0.233875 0.900472
vt 0.183875 0.900472
vt 0.183875 0.850472
vt 0.233875 0.850472
s 0
usemtl Palette
f 11/1/1 9/2/1 4/2/1 2/1/1
f 9/2/2 10/3/2 3/3/2 4/2/2
f 7/4/3 8/5/3 16/5/3 15/4/3
f 12/6/4 11/1/4 2/1/4 1/6/4
f 10/3/5 12/6/5 1/6/5 3/3/5
f 5/7/6 6/8/6 10/3/6 9/2/6
f 7/4/6 5/7/6 9/2/6 11/1/6
f 8/5/6 7/4/6 11/1/6 12/6/6
f 6/8/6 8/5/6 12/6/6 10/3/6
f 16/5/6 14/8/6 13/7/6 15/4/6
f 6/8/7 5/7/7 13/7/7 14/8/7
f 8/5/8 6/8/8 14/8/8 16/5/8
f 5/7/9 7/4/9 15/4/9 13/7/9
f 3/3/22 1/6/22 2/1/22 4/2/22
f 44/22/3 48/22/3 45/23/3 43/23/3
f 41/24/7 46/24/7 47/25/7 42/25/7
f 42/25/8 47/25/8 48/22/8 44/22/8
f 43/23/9 45/23/9 46/24/9 41/24/9
s 1
usemtl Light
f 17/9/10 27/10/11 28/11/12 26/12/13 21/13/14 22/14/15
f 30/15/16 23/16/17 21/13/14 26/17/13
f 29/18/18 24/19/19 25/20/20 23/16/17 30/15/16 31/21/21
f 18/9/10 19/10/11 38/11/12 37/12/13 32/13/14 33/14/15
f 39/15/16 34/16/17 32/13/14 37/17/13
f 20/18/18 35/19/19 36/20/20 34/16/17 39/15/16 40/21/21
f 17/9/10 22/14/15 25/20/20 24/19/19
f 22/14/15 21/13/14 23/16/17 25/20/20
f 29/18/18 31/21/21 28/11/12 27/10/11
f 31/21/21 30/15/16 26/17/13 28/11/12
f 18/9/10 33/14/15 36/20/20 35/19/19
f 33/14/15 32/13/14 34/16/17 36/20/20
f 20/18/18 40/21/21 38/11/12 19/10/11
f 40/21/21 39/15/16 37/17/13 38/11/12
