# Blender 4.4.1
# www.blender.org
mtllib Ceiling_Lamp_1_A.mtl
o Ceiling_Lamp_1_A
v 0.001598 0.014625 -0.003857
v 0.003858 0.014625 -0.001598
v 0.003858 0.014625 0.001598
v 0.001598 0.014625 0.003858
v -0.001598 0.014625 0.003858
v -0.003858 0.014625 0.001598
v -0.003858 0.014625 -0.001598
v -0.001598 0.014625 -0.003857
v 0.001598 -0.173594 -0.003857
v 0.003858 -0.173594 -0.001598
v 0.003858 -0.173594 0.001598
v 0.001598 -0.173594 0.003858
v -0.001598 -0.173594 0.003858
v -0.003858 -0.173594 0.001598
v -0.003858 -0.173594 -0.001598
v -0.001598 -0.173594 -0.003857
v -0.013257 -0.265709 -0.008999
v 0.007117 -0.294853 0.015139
v 0.013257 -0.287440 0.008999
v -0.015669 -0.276574 -0.000000
v 0.015669 -0.276574 0.000000
v -0.013257 -0.287440 0.008999
v 0.013257 -0.265709 -0.008999
v 0.000000 -0.255993 -0.017046
v -0.007117 -0.294853 0.015139
v 0.007117 -0.258296 -0.015139
v -0.000000 -0.297156 0.017046
v -0.007117 -0.258296 -0.015139
v -0.010000 -0.255662 -0.017321
v 0.000000 -0.252427 -0.020000
v -0.020000 -0.276574 -0.000000
v -0.017321 -0.264500 -0.010000
v -0.010000 -0.297487 0.017321
v -0.017321 -0.288648 0.010000
v -0.000000 -0.300723 0.020000
v 0.010000 -0.297487 0.017321
v 0.017321 -0.288648 0.010000
v 0.020000 -0.276574 0.000000
v 0.017321 -0.264500 -0.010000
v 0.010000 -0.255662 -0.017321
v -0.007117 -0.245629 -0.015139
v 0.000000 -0.243327 -0.017046
v -0.015669 -0.263908 -0.000000
v -0.013257 -0.253043 -0.008999
v -0.007117 -0.282187 0.015139
v -0.013257 -0.274773 0.008999
v -0.000000 -0.284490 0.017046
v 0.007117 -0.282187 0.015139
v 0.013257 -0.274773 0.008999
v 0.015669 -0.263908 0.000000
v 0.013257 -0.253043 -0.008999
v 0.007117 -0.245629 -0.015139
v 0.000000 -0.092323 -0.008132
v 0.000000 -0.103787 -0.020000
v 0.000000 -0.095680 -0.016524
v 0.004066 -0.092323 -0.007042
v 0.010000 -0.103787 -0.017321
v 0.008262 -0.095680 -0.014310
v 0.007042 -0.092323 -0.004066
v 0.017321 -0.103787 -0.010000
v 0.014310 -0.095680 -0.008262
v 0.008132 -0.092323 0.000000
v 0.020000 -0.103787 0.000000
v 0.016524 -0.095680 0.000000
v 0.007042 -0.092323 0.004066
v 0.017321 -0.103787 0.010000
v 0.014310 -0.095680 0.008262
v 0.004066 -0.092323 0.007042
v 0.010000 -0.103787 0.017321
v 0.008262 -0.095680 0.014310
v 0.000000 -0.092323 0.008132
v -0.000000 -0.103787 0.020000
v -0.000000 -0.095680 0.016524
v -0.004066 -0.092323 0.007042
v -0.010000 -0.103787 0.017321
v -0.008262 -0.095680 0.014310
v -0.007042 -0.092323 0.004066
v -0.017321 -0.103787 0.010000
v -0.014310 -0.095680 0.008262
v -0.008132 -0.092323 -0.000000
v -0.020000 -0.103787 -0.000000
v -0.016524 -0.095680 -0.000000
v -0.007042 -0.092323 -0.004066
v -0.017321 -0.103787 -0.010000
v -0.014310 -0.095680 -0.008262
v -0.004066 -0.092323 -0.007042
v -0.010000 -0.103787 -0.017321
v -0.008262 -0.095680 -0.014310
vn -0.3827 -0.0000 -0.9239
vn 0.3827 -0.0000 -0.9239
vn -0.3827 -0.0000 0.9239
vn 0.3827 -0.0000 0.9239
vn 0.9239 -0.0000 -0.3827
vn -0.9239 -0.0000 0.3827
vn 0.9239 -0.0000 0.3827
vn -0.9239 -0.0000 -0.3827
vn -0.9894 -0.0000 0.1455
vn -0.7879 -0.0000 0.6158
vn -0.8494 0.1949 0.4904
vn -0.9808 0.1949 -0.0000
vn -0.4124 -0.0000 0.9110
vn -0.0000 -0.0000 1.0000
vn -0.0000 0.1949 0.9808
vn -0.4904 0.1949 0.8494
vn 0.4124 -0.0000 0.9110
vn 0.7879 -0.0000 0.6158
vn 0.8494 0.1949 0.4904
vn 0.4904 0.1949 0.8494
vn 0.9894 -0.0000 0.1455
vn 0.9223 -0.0000 -0.3865
vn 0.8494 0.1949 -0.4904
vn 0.9808 0.1949 -0.0000
vn -0.9223 -0.0000 -0.3865
vn -0.8494 0.1949 -0.4904
vn 0.5644 -0.0000 -0.8255
vn 0.4904 0.1949 -0.8494
vn -0.0000 -0.0000 -1.0000
vn -0.5644 -0.0000 -0.8255
vn -0.4904 0.1949 -0.8494
vn -0.0000 0.1949 -0.9808
vn -0.9223 -0.0000 0.3865
vn -0.9894 -0.0000 -0.1455
vn -0.0000 -0.6379 -0.7701
vn -0.0000 -0.6379 -0.7702
vn 0.5644 -0.0000 0.8255
vn 0.7879 -0.0000 -0.6158
vn 0.9894 -0.0000 -0.1455
vn -0.7879 -0.0000 -0.6158
vn -0.5644 -0.0000 0.8255
vn 0.9223 -0.0000 0.3865
vn 0.4124 -0.0000 -0.9110
vn -0.4124 -0.0000 -0.9110
vn -0.0000 0.3941 -0.9191
vn 0.4595 0.3941 -0.7959
vn 0.0990 0.9239 -0.3696
vn 0.7959 0.3941 -0.4595
vn 0.2706 0.9239 -0.2706
vn 0.9191 0.3941 -0.0000
vn 0.3696 0.9239 -0.0990
vn 0.7959 0.3941 0.4595
vn 0.3696 0.9239 0.0990
vn 0.4595 0.3941 0.7959
vn 0.2706 0.9239 0.2706
vn -0.0000 0.3941 0.9191
vn 0.0990 0.9239 0.3696
vn -0.4595 0.3941 0.7959
vn -0.0990 0.9239 0.3696
vn -0.7959 0.3941 0.4595
vn -0.2706 0.9239 0.2706
vn -0.9191 0.3941 -0.0000
vn -0.3696 0.9239 0.0990
vn -0.7959 0.3941 -0.4595
vn -0.3696 0.9239 -0.0990
vn -0.4595 0.3941 -0.7959
vn -0.2706 0.9239 -0.2706
vn -0.0990 0.9239 -0.3696
vn -0.0000 1.0000 -0.0000
vt 0.032413 0.972820
vt 0.038363 0.972820
vt 0.032413 0.958455
vt 0.038363 0.958455
vt 0.042571 0.968612
vt 0.028206 0.962662
vt 0.042571 0.962662
vt 0.028206 0.968612
vt 0.196375 0.881767
vt 0.200542 0.879921
vt 0.200542 0.898662
vt 0.196375 0.898693
vt 0.204708 0.878570
vt 0.208875 0.878075
vt 0.208875 0.898636
vt 0.204708 0.898643
vt 0.213042 0.878570
vt 0.217208 0.879921
vt 0.217208 0.898662
vt 0.213042 0.898643
vt 0.221375 0.881767
vt 0.225542 0.883614
vt 0.225542 0.898729
vt 0.221375 0.898693
vt 0.192208 0.883614
vt 0.192208 0.898729
vt 0.204708 0.898643
vt 0.200542 0.898662
vt 0.213042 0.898643
vt 0.229708 0.884965
vt 0.229708 0.898759
vt 0.183875 0.885460
vt 0.188042 0.884965
vt 0.188042 0.898759
vt 0.183875 0.898771
vt 0.233875 0.885460
vt 0.233875 0.898771
vt 0.222853 0.883429
vt 0.219296 0.881767
vt 0.222565 0.884915
vt 0.200123 0.884563
vt 0.196337 0.883429
vt 0.199073 0.881767
vt 0.202479 0.880106
vt 0.205913 0.878972
vt 0.208980 0.878620
vt 0.212077 0.878972
vt 0.215620 0.880106
vt 0.225711 0.884563
vt 0.888149 0.879924
vt 0.891295 0.879572
vt 0.888436 0.878438
vt 0.884879 0.876776
vt 0.881203 0.875115
vt 0.877661 0.873981
vt 0.874563 0.873629
vt 0.871496 0.873981
vt 0.868063 0.875115
vt 0.864657 0.876776
vt 0.861921 0.878438
vt 0.865707 0.879572
vt 0.233513 0.900014
vt 0.230070 0.900014
vt 0.201854 0.873046
vt 0.196896 0.874374
vt 0.196375 0.867393
vt 0.198815 0.866739
vt 0.229346 0.900014
vt 0.225904 0.900014
vt 0.206386 0.868895
vt 0.202757 0.872524
vt 0.200600 0.864953
vt 0.225180 0.900014
vt 0.221737 0.900014
vt 0.208235 0.863035
vt 0.206907 0.867992
vt 0.201254 0.862514
vt 0.221013 0.900014
vt 0.217570 0.900014
vt 0.206907 0.857035
vt 0.208235 0.861992
vt 0.200600 0.860074
vt 0.216846 0.900014
vt 0.213404 0.900014
vt 0.202757 0.852503
vt 0.206386 0.856132
vt 0.198815 0.858288
vt 0.212680 0.900014
vt 0.209237 0.900014
vt 0.196896 0.850653
vt 0.201854 0.851982
vt 0.196375 0.857635
vt 0.208513 0.900014
vt 0.205070 0.900014
vt 0.190896 0.851982
vt 0.195854 0.850653
vt 0.193936 0.858288
vt 0.204346 0.900014
vt 0.200904 0.900014
vt 0.186364 0.856132
vt 0.189993 0.852503
vt 0.192150 0.860074
vt 0.200180 0.900014
vt 0.196737 0.900014
vt 0.184515 0.861992
vt 0.185843 0.857035
vt 0.191496 0.862513
vt 0.196013 0.900014
vt 0.192570 0.900014
vt 0.185843 0.867992
vt 0.184515 0.863035
vt 0.192150 0.864953
vt 0.191846 0.900014
vt 0.188404 0.900014
vt 0.189993 0.872524
vt 0.186364 0.868895
vt 0.193936 0.866739
vt 0.187680 0.900014
vt 0.184237 0.900014
vt 0.195854 0.874374
vt 0.190896 0.873046
s 1
usemtl Palette
f 16/1/1 8/1/1 1/2/2 9/2/2
f 13/3/3 12/4/4 4/4/4 5/3/3
f 10/5/5 9/2/2 1/2/2 2/5/5
f 14/6/6 13/3/3 5/3/3 6/6/6
f 11/7/7 10/5/5 2/5/5 3/7/7
f 15/8/8 14/6/6 6/6/6 7/8/8
f 16/1/1 15/8/8 7/8/8 8/1/1
f 12/4/4 11/7/7 3/7/7 4/4/4
f 31/9/9 34/10/10 78/11/11 81/12/12
f 33/13/13 35/14/14 72/15/15 75/16/16
f 36/17/17 37/18/18 66/19/19 69/20/20
f 38/21/21 39/22/22 60/23/23 63/24/24
f 32/25/25 31/9/9 81/12/12 84/26/26
f 34/10/10 33/13/13 75/27/16 78/28/11
f 35/14/14 36/17/17 69/29/20 72/15/15
f 37/18/18 38/21/21 63/24/24 66/19/19
f 39/22/22 40/30/27 57/31/28 60/23/23
f 30/32/29 29/33/30 87/34/31 54/35/32
f 40/30/27 30/36/29 54/37/32 57/31/28
f 23/38/33 21/39/34 50/39/9 51/38/10
f 29/33/30 32/25/25 84/26/26 87/34/31
s 0
f 24/40/35 28/41/35 29/33/35 30/36/35
f 17/42/36 20/43/36 31/9/36 32/25/36
f 22/44/36 25/45/36 33/13/36 34/10/36
f 27/46/36 18/47/36 36/17/36 35/14/36
f 19/48/35 21/39/35 38/21/35 37/18/35
f 23/38/36 26/49/36 40/30/36 39/22/36
f 28/41/36 17/42/36 32/25/36 29/33/36
f 20/43/35 22/44/35 34/10/35 31/9/35
f 25/45/36 27/46/36 35/14/36 33/13/36
f 18/47/36 19/48/36 37/18/36 36/17/36
f 21/39/36 23/38/36 39/22/36 38/21/36
f 26/49/35 24/40/35 30/36/35 40/30/35
s 1
f 28/41/37 24/40/14 42/40/14 41/41/17
f 22/44/38 20/43/39 43/43/21 46/44/22
f 21/39/34 19/48/40 49/48/25 50/39/9
f 24/40/14 26/49/41 52/49/13 42/40/14
f 20/43/39 17/42/42 44/42/18 43/43/21
f 27/46/29 25/45/43 45/45/27 47/46/29
f 26/49/41 23/38/33 51/38/10 52/49/13
f 25/45/43 22/44/38 46/44/22 45/45/27
f 19/48/40 18/47/44 48/47/30 49/48/25
f 17/42/42 28/41/37 41/41/17 44/42/18
f 18/47/44 27/46/29 47/46/29 48/47/30
f 57/31/28 54/37/32 55/62/45 58/63/46
s 0
f 58/64/47 55/65/47 53/66/47 56/67/47
s 1
f 60/23/23 57/31/28 58/68/46 61/69/48
s 0
f 61/70/49 58/71/49 56/67/49 59/72/49
s 1
f 63/24/24 60/23/23 61/73/48 64/74/50
s 0
f 64/75/51 61/76/51 59/72/51 62/77/51
s 1
f 66/19/19 63/24/24 64/78/50 67/79/52
s 0
f 67/80/53 64/81/53 62/77/53 65/82/53
s 1
f 69/20/20 66/19/19 67/83/52 70/84/54
s 0
f 70/85/55 67/86/55 65/82/55 68/87/55
s 1
f 72/15/15 69/29/20 70/88/54 73/89/56
s 0
f 73/90/57 70/91/57 68/87/57 71/92/57
s 1
f 75/16/16 72/15/15 73/93/56 76/94/58
s 0
f 76/95/59 73/96/59 71/92/59 74/97/59
s 1
f 78/28/11 75/27/16 76/98/58 79/99/60
s 0
f 79/100/61 76/101/61 74/97/61 77/102/61
s 1
f 81/12/12 78/11/11 79/103/60 82/104/62
s 0
f 82/105/63 79/106/63 77/102/63 80/107/63
s 1
f 84/26/26 81/12/12 82/108/62 85/109/64
s 0
f 85/110/65 82/111/65 80/107/65 83/112/65
s 1
f 87/34/31 84/26/26 85/113/64 88/114/66
s 0
f 88/115/67 85/116/67 83/112/67 86/117/67
s 1
f 54/35/32 87/34/31 88/118/66 55/119/45
s 0
f 55/120/68 88/121/68 86/117/68 53/66/68
f 56/67/69 53/66/69 86/117/69 83/112/69 80/107/69 77/102/69 74/97/69 71/92/69 68/87/69 65/82/69 62/77/69 59/72/69
usemtl Light
f 42/50/36 52/51/36 51/52/36 50/53/36 49/54/36 48/55/36 47/56/36 45/57/36 46/58/36 43/59/36 44/60/36 41/61/36
