# Blender 4.4.1
# www.blender.org
mtllib Chair_Base.mtl
o Chair_Base
v -0.014449 0.359016 0.016915
v -0.020182 0.359016 0.003075
v -0.014449 0.359016 -0.010765
v -0.025093 0.359016 0.027382
v -0.035162 0.359016 0.003074
v -0.025093 0.359016 -0.021233
v -0.025093 0.244347 0.027382
v -0.035162 0.244347 0.003075
v -0.025093 0.244347 -0.021233
v -0.038222 0.244347 0.040363
v -0.053667 0.244347 0.003075
v -0.038222 0.244347 -0.034213
v -0.038222 0.184101 0.040363
v -0.053667 0.184101 0.003075
v -0.038222 0.184101 -0.034213
v 0.000000 0.359016 0.022648
v 0.014449 0.359016 0.016915
v 0.020182 0.359016 0.003075
v 0.014449 0.359016 -0.010765
v -0.000000 0.359016 -0.016498
v 0.000000 0.359016 0.037451
v 0.025093 0.359016 0.027382
v 0.035162 0.359016 0.003074
v 0.025093 0.359016 -0.021233
v -0.000000 0.359016 -0.031302
v 0.000000 0.244347 0.037451
v 0.025093 0.244347 0.027382
v 0.035162 0.244347 0.003074
v 0.025093 0.244347 -0.021233
v -0.000000 0.244347 -0.031302
v 0.000000 0.244347 0.055808
v 0.038222 0.244347 0.040363
v 0.053667 0.244347 0.003075
v 0.038222 0.244347 -0.034213
v -0.000000 0.244347 -0.049658
v 0.000000 0.184101 0.055808
v 0.038222 0.184101 0.040363
v 0.053667 0.184101 0.003075
v 0.038222 0.184101 -0.034213
v -0.000000 0.184101 -0.049658
v -0.023553 0.232324 -0.029719
v -0.023553 0.199404 -0.029719
v -0.011047 0.096141 -0.367353
v -0.011047 0.119888 -0.367353
v -0.005974 0.108016 -0.353725
v -0.005975 0.108016 -0.364470
v -0.005974 0.072816 -0.353725
v -0.005975 0.072816 -0.364470
v 0.023553 0.232324 -0.029719
v 0.023553 0.199404 -0.029719
v 0.011047 0.096141 -0.367353
v 0.011047 0.119888 -0.367353
v -0.000000 0.108016 -0.353725
v 0.005974 0.108016 -0.353725
v 0.005974 0.108016 -0.364470
v -0.000000 0.072816 -0.353725
v 0.005974 0.072816 -0.353725
v 0.005974 0.072816 -0.364470
v -0.029719 0.232324 0.023553
v -0.029719 0.199404 0.023553
v -0.367353 0.096141 0.011047
v -0.367353 0.119888 0.011047
v -0.353725 0.108016 0.005975
v -0.364470 0.108016 0.005975
v -0.353725 0.072816 0.005975
v -0.364470 0.072816 0.005975
v -0.029719 0.232324 -0.023553
v -0.029719 0.199404 -0.023553
v -0.367353 0.096141 -0.011047
v -0.367353 0.119888 -0.011047
v -0.353725 0.108016 0.000000
v -0.353725 0.108016 -0.005974
v -0.364470 0.108016 -0.005974
v -0.353725 0.072816 0.000000
v -0.353725 0.072816 -0.005974
v -0.364470 0.072816 -0.005974
v 0.023553 0.232324 0.029719
v 0.023553 0.199404 0.029719
v 0.011047 0.096141 0.367353
v 0.011047 0.119888 0.367353
v 0.005975 0.108016 0.353725
v 0.005975 0.108016 0.364470
v 0.005975 0.072816 0.353725
v 0.005975 0.072816 0.364470
v -0.023553 0.232324 0.029719
v -0.023553 0.199404 0.029719
v -0.011047 0.096141 0.367353
v -0.011047 0.119888 0.367353
v 0.000000 0.108016 0.353725
v -0.005974 0.108016 0.353725
v -0.005974 0.108016 0.364470
v 0.000000 0.072816 0.353725
v -0.005974 0.072816 0.353725
v -0.005974 0.072816 0.364470
v 0.029719 0.232324 -0.023553
v 0.029719 0.199404 -0.023553
v 0.367353 0.096141 -0.011047
v 0.367353 0.119888 -0.011047
v 0.353725 0.108016 -0.005975
v 0.364470 0.108016 -0.005975
v 0.353725 0.072816 -0.005975
v 0.364470 0.072816 -0.005975
v 0.029719 0.232324 0.023553
v 0.029719 0.199404 0.023553
v 0.367353 0.096141 0.011047
v 0.367353 0.119888 0.011047
v 0.353725 0.108016 -0.000000
v 0.353725 0.108016 0.005974
v 0.364470 0.108016 0.005974
v 0.353725 0.072816 -0.000000
v 0.353725 0.072816 0.005974
v 0.364470 0.072816 0.005974
vn -0.0000 1.0000 -0.0000
vn -0.3734 0.6567 -0.6552
vn -0.3298 0.8786 -0.3455
vn -0.6561 0.6573 0.3709
vn -0.3298 0.8786 0.3455
vn -0.0000 0.8818 0.4716
vn -0.3169 0.3169 -0.8939
vn -0.8544 0.3192 -0.4100
vn -0.8928 0.3185 0.3184
vn -0.4005 0.3192 0.8589
vn 0.3169 0.3169 0.8939
vn -0.0382 0.9209 -0.3879
vn -0.3737 0.9208 -0.1116
vn -0.2859 0.9579 -0.0277
vn 0.0836 0.9576 0.2757
vn -0.3872 0.9211 0.0414
vn -0.1138 0.9208 0.3731
vn -0.0267 0.9579 0.2860
vn 0.2771 0.9571 -0.0847
vn 0.2495 0.9208 -0.2998
vn -0.1826 0.9211 -0.3439
vn -0.1823 0.9571 -0.2252
vn -0.1348 0.9579 0.2537
vn -0.3012 0.9208 -0.2479
vn -0.3438 0.9209 0.1838
vn -0.2227 0.9576 0.1828
vn 0.2528 0.9579 0.1365
vn -0.8425 0.2662 -0.4683
vn -0.7834 -0.1100 -0.6117
vn -0.8551 -0.3788 -0.3540
vn -1.0000 -0.0000 -0.0031
vn -0.4614 0.2677 0.8459
vn -0.6049 -0.1100 0.7887
vn -0.3467 -0.3788 0.8581
vn -0.1104 0.1109 0.9877
vn -0.2569 0.2654 -0.9293
vn -0.1104 -0.1109 -0.9877
vn -0.4614 -0.2677 -0.8459
vn -0.6979 0.0001 -0.7162
vn -0.9270 0.2654 0.2650
vn -0.9866 -0.1102 0.1206
vn -0.8546 -0.3799 0.3540
vn -0.7101 -0.0000 0.7041
vn -0.3754 -0.9255 0.0505
vn -0.3014 -0.9250 -0.2313
vn -0.0472 -0.9255 -0.3758
vn 0.2771 -0.9571 0.0847
vn -0.1823 -0.9571 0.2252
vn 0.1989 0.6576 -0.7267
vn 0.7244 0.6576 0.2069
vn 0.4755 0.8797 -0.0000
vn 0.4005 0.3192 -0.8589
vn 0.8544 0.3192 0.4100
vn 0.8928 0.3185 -0.3184
vn 0.3438 0.9209 -0.1838
vn 0.2227 0.9576 -0.1828
vn -0.2528 0.9579 -0.1365
vn 0.3012 0.9208 0.2479
vn 0.1826 0.9211 0.3439
vn 0.1823 0.9571 0.2252
vn 0.1349 0.9579 -0.2536
vn -0.2495 0.9208 0.2998
vn 0.1138 0.9208 -0.3731
vn 0.0267 0.9579 -0.2860
vn -0.2771 0.9571 0.0847
vn 0.3872 0.9211 -0.0414
vn 0.3737 0.9208 0.1116
vn 0.2859 0.9579 0.0278
vn -0.0836 0.9576 -0.2757
vn 0.0382 0.9209 0.3879
vn 0.9866 -0.1102 -0.1206
vn 0.8546 -0.3799 -0.3540
vn 0.7101 -0.0000 -0.7041
vn 0.9270 0.2654 -0.2650
vn 0.1104 -0.1109 0.9877
vn 0.4614 -0.2677 0.8459
vn 0.6979 -0.0000 0.7162
vn 0.2570 0.2654 0.9293
vn 0.6049 -0.1100 -0.7887
vn 0.3467 -0.3788 -0.8581
vn 0.1104 0.1109 -0.9877
vn 0.4614 0.2677 -0.8459
vn 0.7834 -0.1099 0.6118
vn 0.8550 -0.3788 0.3541
vn 1.0000 -0.0000 0.0031
vn 0.8425 0.2662 0.4683
vn 0.0473 -0.9255 0.3758
vn -0.2771 -0.9571 -0.0847
vn 0.1823 -0.9571 -0.2252
vn 0.3754 -0.9255 -0.0505
vn 0.3014 -0.9250 0.2313
vn -0.0000 0.9488 -0.3160
vn -0.0000 -0.9563 0.2925
vn -0.0000 -0.0000 -1.0000
vn -0.9993 -0.0000 -0.0370
vn -0.0000 -0.0000 1.0000
vn -1.0000 -0.0000 -0.0000
vn 0.9993 -0.0000 -0.0370
vn 1.0000 -0.0000 -0.0000
vn -0.3160 0.9488 -0.0000
vn 0.2925 -0.9563 -0.0000
vn -0.0370 -0.0000 0.9993
vn -0.0370 -0.0000 -0.9993
vn -0.0000 0.9488 0.3160
vn -0.0000 -0.9563 -0.2925
vn 0.9993 -0.0000 0.0370
vn -0.9993 -0.0000 0.0370
vn 0.3160 0.9488 -0.0000
vn -0.2925 -0.9563 -0.0000
vn 0.0370 -0.0000 -0.9993
vn 0.0370 -0.0000 0.9993
vt 0.111101 0.965232
vt 0.104851 0.965232
vt 0.123601 0.965232
vt 0.117351 0.965232
vt 0.129851 0.965232
vt 0.134223 0.970610
vt 0.149856 0.970610
vt 0.201205 0.973045
vt 0.219955 0.973045
vt 0.207455 0.973045
vt 0.213705 0.973045
vt 0.226205 0.973045
s 1
usemtl Palette
f 3/1/1 20/2/1 25/2/2 6/1/3
f 1/3/1 2/4/1 5/4/4 4/3/5
f 16/5/1 1/3/1 4/3/5 21/5/6
f 2/4/1 3/1/1 6/1/3 5/4/4
f 6/1/3 25/2/2 30/2/7 9/1/8
f 4/3/5 5/4/4 8/4/9 7/3/10
f 5/4/4 6/1/3 9/1/8 8/4/9
f 21/5/6 4/3/5 7/3/10 26/5/11
s 0
f 8/4/12 9/1/13 12/1/14 11/4/15
f 26/5/16 7/3/17 10/3/18 31/5/19
f 9/1/20 30/2/21 35/2/22 12/1/23
f 7/3/24 8/4/25 11/4/26 10/3/27
f 11/4/28 12/1/29 15/1/30 14/4/31
f 31/5/32 10/3/33 13/3/34 36/5/35
f 12/1/36 35/2/37 40/2/38 15/1/39
f 10/3/40 11/4/41 14/4/42 13/3/43
f 13/3/44 14/4/45 15/1/46 40/2/47 36/5/48
s 1
f 19/1/1 24/1/49 25/2/2 20/2/1
f 17/3/1 22/3/50 23/4/51 18/4/1
f 16/5/1 21/5/6 22/3/50 17/3/1
f 18/4/1 23/4/51 24/1/49 19/1/1
f 24/1/49 29/1/52 30/2/7 25/2/2
f 22/3/50 27/3/53 28/4/54 23/4/51
f 23/4/51 28/4/54 29/1/52 24/1/49
f 21/5/6 26/5/11 27/3/53 22/3/50
s 0
f 28/4/55 33/4/56 34/1/57 29/1/58
f 26/5/59 31/5/60 32/3/61 27/3/62
f 29/1/63 34/1/64 35/2/65 30/2/66
f 27/3/67 32/3/68 33/4/69 28/4/70
f 33/4/71 38/4/72 39/1/73 34/1/74
f 31/5/75 36/5/76 37/3/77 32/3/78
f 34/1/79 39/1/80 40/2/81 35/2/82
f 32/3/83 37/3/84 38/4/85 33/4/86
f 37/3/87 36/5/88 40/2/89 39/1/90 38/4/91
f 49/6/92 52/6/92 44/6/92 41/6/92
f 43/6/93 51/6/93 50/6/93 42/6/93
f 55/6/94 58/6/94 48/6/94 46/6/94
f 42/6/95 41/6/95 44/6/95 43/6/95
f 53/7/96 45/6/96 47/6/96 56/7/96
f 45/6/97 46/6/97 48/6/97 47/6/97
f 50/6/98 51/6/98 52/6/98 49/6/98
f 53/7/96 56/7/96 57/6/96 54/6/96
f 54/6/99 57/6/99 58/6/99 55/6/99
f 44/6/94 52/6/94 51/6/94 43/6/94
f 67/6/100 70/6/100 62/6/100 59/6/100
f 61/6/101 69/6/101 68/6/101 60/6/101
f 73/6/97 76/6/97 66/6/97 64/6/97
f 60/6/102 59/6/102 62/6/102 61/6/102
f 71/7/99 63/6/99 65/6/99 74/7/99
f 63/6/96 64/6/96 66/6/96 65/6/96
f 68/6/103 69/6/103 70/6/103 67/6/103
f 71/7/99 74/7/99 75/6/99 72/6/99
f 72/6/94 75/6/94 76/6/94 73/6/94
f 62/6/97 70/6/97 69/6/97 61/6/97
f 85/6/104 88/6/104 80/6/104 77/6/104
f 79/6/105 87/6/105 86/6/105 78/6/105
f 91/6/96 94/6/96 84/6/96 82/6/96
f 78/6/106 77/6/106 80/6/106 79/6/106
f 89/7/94 81/6/94 83/6/94 92/7/94
f 81/6/99 82/6/99 84/6/99 83/6/99
f 86/6/107 87/6/107 88/6/107 85/6/107
f 89/7/94 92/7/94 93/6/94 90/6/94
f 90/6/97 93/6/97 94/6/97 91/6/97
f 80/6/96 88/6/96 87/6/96 79/6/96
f 103/6/108 106/6/108 98/6/108 95/6/108
f 97/6/109 105/6/109 104/6/109 96/6/109
f 109/6/99 112/6/99 102/6/99 100/6/99
f 96/6/110 95/6/110 98/6/110 97/6/110
f 107/7/97 99/6/97 101/6/97 110/7/97
f 99/6/94 100/6/94 102/6/94 101/6/94
f 104/6/111 105/6/111 106/6/111 103/6/111
f 107/7/97 110/7/97 111/6/97 108/6/97
f 108/6/96 111/6/96 112/6/96 109/6/96
f 98/6/99 106/6/99 105/6/99 97/6/99
s 1
f 20/8/1 17/9/1 19/10/1
f 20/8/1 3/10/1 1/9/1
f 3/10/1 2/11/1 1/9/1
f 1/9/1 16/12/1 20/8/1
f 16/12/1 17/9/1 20/8/1
f 17/9/1 18/11/1 19/10/1
