# Blender 4.4.1
# www.blender.org
mtllib Chair_3.mtl
o Chair_3
v -0.274033 0.632282 -0.218921
v -0.274033 0.638677 -0.064626
v -0.274033 0.634464 -0.158059
v -0.274033 0.637560 -0.257365
v -0.274033 0.664256 -0.271219
v -0.274033 0.753785 -0.293601
v -0.258784 0.952916 -0.309588
v -0.274033 0.597099 -0.221907
v -0.274033 0.603677 -0.063374
v -0.274033 0.599524 -0.155976
v -0.274033 0.606905 -0.280889
v -0.274033 0.651781 -0.304177
v -0.274033 0.748651 -0.328395
v -0.258784 0.950308 -0.344503
v -0.088930 0.610345 -0.104418
v -0.228094 0.000000 -0.265044
v -0.218794 0.000000 -0.268896
v -0.214942 0.000000 -0.278196
v -0.218794 0.000000 -0.287496
v -0.228094 0.000000 -0.291348
v -0.237394 0.000000 -0.287496
v -0.241247 0.000000 -0.278196
v -0.237394 0.000000 -0.268896
v -0.098041 0.610345 -0.100644
v -0.085156 0.610345 -0.113529
v -0.088930 0.610345 -0.122640
v -0.098041 0.610345 -0.126414
v -0.107152 0.610345 -0.122640
v -0.110926 0.610345 -0.113529
v -0.107152 0.610345 -0.104418
v -0.088930 0.610345 0.095570
v -0.228094 0.000000 0.264534
v -0.218794 0.000000 0.260682
v -0.214942 0.000000 0.251382
v -0.218794 0.000000 0.242082
v -0.228094 0.000000 0.238229
v -0.237394 0.000000 0.242082
v -0.241246 0.000000 0.251382
v -0.237394 0.000000 0.260682
v -0.098041 0.610345 0.099344
v -0.085156 0.610345 0.086459
v -0.088930 0.610345 0.077348
v -0.098041 0.610345 0.073574
v -0.107152 0.610345 0.077348
v -0.110926 0.610345 0.086459
v -0.107152 0.610345 0.095570
v -0.274034 0.638677 0.213639
v -0.202863 0.638677 0.284809
v -0.264499 0.638677 0.249224
v -0.238448 0.638677 0.275274
v -0.202863 0.603677 0.284809
v -0.274034 0.603677 0.213639
v -0.238448 0.603677 0.275274
v -0.264499 0.603677 0.249224
v -0.165500 0.324734 0.168177
v -0.108291 0.583381 -0.118860
v -0.164955 0.318922 0.160926
v -0.107874 0.578806 -0.124568
v -0.159708 0.318922 0.161302
v -0.160253 0.324734 0.168553
v -0.103872 0.578806 -0.124273
v -0.104289 0.583381 -0.118565
v -0.164919 0.327715 0.157288
v 0.103905 0.585719 0.090384
v -0.158020 0.321903 0.156395
v 0.109189 0.581143 0.089681
v -0.157377 0.321903 0.161614
v -0.164276 0.327715 0.162507
v 0.109680 0.581143 0.093772
v 0.104396 0.585719 0.094475
v -0.106289 1.207914 -0.335446
v -0.246971 1.043855 -0.318810
v -0.149762 1.199885 -0.334632
v -0.188979 1.176582 -0.332269
v -0.220103 1.140287 -0.328588
v -0.240085 1.094552 -0.323951
v -0.246971 1.040324 -0.353631
v -0.106289 1.204384 -0.370268
v -0.240085 1.091021 -0.358772
v -0.220103 1.136756 -0.363410
v -0.188979 1.173051 -0.367090
v -0.149762 1.196354 -0.369454
v 0.274033 0.632282 -0.218921
v 0.274033 0.638677 -0.064626
v 0.274033 0.634464 -0.158059
v 0.274033 0.637560 -0.257365
v 0.274033 0.664256 -0.271219
v 0.274033 0.753785 -0.293601
v 0.258784 0.952916 -0.309588
v 0.274033 0.597099 -0.221907
v 0.274033 0.603677 -0.063374
v 0.274033 0.599524 -0.155976
v 0.274033 0.606905 -0.280889
v 0.274033 0.651781 -0.304177
v 0.274033 0.748651 -0.328395
v 0.258784 0.950308 -0.344503
v 0.088930 0.610345 -0.104418
v 0.228094 0.000000 -0.265044
v 0.218794 0.000000 -0.268896
v 0.214942 0.000000 -0.278196
v 0.218794 0.000000 -0.287496
v 0.228094 0.000000 -0.291348
v 0.237394 0.000000 -0.287496
v 0.241247 0.000000 -0.278196
v 0.237394 0.000000 -0.268896
v 0.098041 0.610345 -0.100644
v 0.085156 0.610345 -0.113529
v 0.088930 0.610345 -0.122640
v 0.098041 0.610345 -0.126414
v 0.107152 0.610345 -0.122640
v 0.110926 0.610345 -0.113529
v 0.107152 0.610345 -0.104418
v 0.088930 0.610345 0.095570
v 0.228094 0.000000 0.264534
v 0.218794 0.000000 0.260682
v 0.214942 0.000000 0.251382
v 0.218794 0.000000 0.242082
v 0.228094 0.000000 0.238229
v 0.237394 0.000000 0.242082
v 0.241246 0.000000 0.251382
v 0.237394 0.000000 0.260682
v 0.098041 0.610345 0.099344
v 0.085156 0.610345 0.086459
v 0.088930 0.610345 0.077348
v 0.098041 0.610345 0.073574
v 0.107152 0.610345 0.077348
v 0.110926 0.610345 0.086459
v 0.107152 0.610345 0.095570
v 0.274034 0.638677 0.213639
v 0.202863 0.638677 0.284809
v 0.264499 0.638677 0.249224
v 0.238448 0.638677 0.275274
v 0.202863 0.603677 0.284809
v 0.274034 0.603677 0.213639
v 0.238448 0.603677 0.275274
v 0.264499 0.603677 0.249224
v 0.106289 1.207914 -0.335446
v 0.246971 1.043855 -0.318810
v 0.149762 1.199885 -0.334632
v 0.188979 1.176582 -0.332269
v 0.220103 1.140287 -0.328588
v 0.240085 1.094552 -0.323951
v 0.246971 1.040324 -0.353631
v 0.106289 1.204384 -0.370268
v 0.240085 1.091021 -0.358772
v 0.220103 1.136756 -0.363410
v 0.188979 1.173051 -0.367090
v 0.149762 1.196354 -0.369454
v 0.163737 0.324734 -0.198584
v 0.106528 0.583381 0.090340
v 0.163192 0.318922 -0.191333
v 0.106111 0.578806 0.096049
v 0.157945 0.318922 -0.191709
v 0.158490 0.324734 -0.198960
v 0.102109 0.578806 0.095754
v 0.102526 0.583381 0.090046
v 0.163156 0.327715 -0.187696
v -0.105669 0.585719 -0.118904
v 0.156257 0.321903 -0.186803
v -0.110953 0.581143 -0.118201
v 0.155614 0.321903 -0.192021
v 0.162513 0.327715 -0.192914
v -0.111443 0.581143 -0.122292
v -0.106159 0.585719 -0.122995
v 0.165941 0.324734 0.166964
v -0.101610 0.583381 0.099743
v 0.159344 0.318922 0.166361
v -0.107107 0.578806 0.099300
v 0.159686 0.318922 0.160555
v 0.166283 0.324734 0.161157
v -0.106824 0.578806 0.095053
v -0.101327 0.583381 0.095495
v 0.156035 0.327715 0.166321
v 0.099890 0.585719 -0.125479
v 0.155223 0.321903 0.158687
v 0.099213 0.581143 -0.131088
v 0.159970 0.321903 0.157975
v 0.160782 0.327715 0.165609
v 0.103152 0.581143 -0.131608
v 0.103829 0.585719 -0.126000
v -0.167704 0.324734 -0.197371
v 0.099847 0.583381 -0.128263
v -0.161107 0.318922 -0.196768
v 0.105345 0.578806 -0.127820
v -0.161449 0.318922 -0.190962
v -0.168045 0.324734 -0.191565
v 0.105061 0.578806 -0.123572
v 0.099564 0.583381 -0.124015
v -0.157798 0.327715 -0.196729
v -0.101653 0.585719 0.096960
v -0.156986 0.321903 -0.189094
v -0.100976 0.581143 0.102568
v -0.161733 0.321903 -0.188382
v -0.162545 0.327715 -0.196017
v -0.104915 0.581143 0.103089
v -0.105592 0.585719 0.097481
v -0.192067 0.661370 0.206671
v 0.192407 0.661348 0.207076
v 0.005177 0.656092 -0.224675
v -0.204105 0.652278 0.033910
v 0.202068 0.652483 0.039930
v 0.197602 0.655610 -0.101526
v 0.032133 0.652829 -0.117096
v -0.136732 0.654780 0.077968
v 0.214621 0.636091 0.236960
v -0.214621 0.635202 0.236960
v -0.214621 0.645721 -0.237103
v 0.214621 0.645721 -0.237103
v -0.190264 0.662834 -0.211977
v 0.189985 0.662869 -0.212285
v 0.151905 0.661932 0.217565
v -0.205614 0.652725 0.227393
v -0.205614 0.657810 -0.227624
v 0.205614 0.657810 -0.227624
v -0.148186 0.661244 0.217735
v 0.022385 0.656585 0.221302
v 0.152980 0.631018 -0.261269
v -0.156219 0.630799 -0.260201
v 0.137750 0.653413 0.040430
v -0.141760 0.653160 -0.041965
v 0.000001 0.651267 0.052251
v 0.239346 0.628621 -0.182226
v -0.239339 0.628857 -0.182311
v -0.197543 0.655616 -0.101667
v 0.205614 0.652725 0.227393
v -0.215432 0.630831 -0.238408
v 0.215432 0.630832 -0.238408
v 0.150031 0.657831 -0.247376
v -0.152821 0.657440 -0.247593
v -0.149737 0.652018 0.247357
v 0.151799 0.651608 0.247535
v 0.226921 0.650958 0.175143
v 0.227201 0.653100 -0.179397
v -0.231614 0.645276 -0.044740
v -0.227380 0.650275 0.178315
v -0.240051 0.640140 -0.179688
v 0.240140 0.637122 0.177929
v -0.151457 0.634782 0.260167
v 0.151303 0.646585 -0.260345
v 0.239488 0.641024 -0.180609
v -0.153624 0.646268 -0.259794
v -0.239523 0.637223 0.179826
v 0.153796 0.635284 0.259645
v -0.227302 0.653557 -0.177177
v 0.230443 0.645604 -0.000126
v -0.000000 0.648053 0.250013
v -0.000000 0.653952 -0.250242
vn 0.0666 0.7892 0.6106
vn 0.0666 0.6505 -0.7565
vn -0.0666 0.6505 -0.7565
vn -0.0666 0.7892 0.6106
vn -0.0958 -0.6789 0.7280
vn 0.0958 -0.6789 0.7280
vn 0.0958 0.6789 0.7280
vn -0.0958 0.6789 0.7280
vn -0.0000 0.0898 0.9960
vn -0.0000 0.1639 0.9865
vn -0.0000 0.3540 0.9352
vn -0.0000 0.8172 0.5764
vn -0.0000 0.9987 0.0503
vn -0.2624 0.7590 0.5959
vn -0.4777 0.6304 0.6119
vn -0.3677 0.4004 0.8393
vn -0.0000 0.1009 0.9949
vn 0.3677 0.4004 0.8393
vn 0.4777 0.6304 0.6119
vn 0.2624 0.7590 0.5959
vn -0.0000 0.9992 -0.0404
vn -0.0000 -0.0896 -0.9960
vn -0.0000 -0.1636 -0.9865
vn -0.0000 -0.3540 -0.9352
vn -0.0000 -0.8090 -0.5879
vn -0.0000 -0.9980 -0.0640
vn -0.0000 -0.1009 -0.9949
vn -0.3677 0.2238 -0.9026
vn -0.4777 0.4948 -0.7260
vn -0.2624 0.6239 -0.7362
vn 0.2624 0.6239 -0.7362
vn 0.4777 0.4948 -0.7260
vn 0.3677 0.2238 -0.9026
vn -0.0000 -0.9992 0.0408
vn -0.0000 0.9997 -0.0225
vn -1.0000 -0.0000 -0.0000
vn -0.9971 0.0752 -0.0084
vn -0.0000 -0.9997 0.0224
vn 0.6479 0.0671 -0.7587
vn -0.0435 0.2693 -0.9621
vn 0.0526 0.2500 -0.9668
vn 0.7619 0.0128 -0.6476
vn 0.9795 -0.1904 -0.0664
vn 0.9733 -0.2223 0.0569
vn -0.0526 -0.2493 0.9670
vn 0.6763 -0.3224 0.6623
vn 0.6636 -0.3230 0.6747
vn 0.0435 -0.2685 0.9623
vn -0.6635 0.3238 -0.6745
vn -0.9731 0.2231 -0.0569
vn -0.9793 0.1912 0.0664
vn -0.6761 0.3231 -0.6621
vn -0.7618 -0.0120 0.6477
vn -0.6479 -0.0662 0.7588
vn 0.6763 -0.3226 -0.6622
vn -0.0526 -0.2496 -0.9669
vn 0.0435 -0.2688 -0.9622
vn 0.6635 -0.3233 -0.6747
vn -0.0000 -1.0000 -0.0000
vn 0.9795 -0.1903 0.0665
vn 0.9733 -0.2224 -0.0570
vn -0.0435 0.2696 0.9620
vn 0.6479 0.0674 0.7588
vn 0.7619 0.0131 0.6476
vn 0.0526 0.2504 0.9667
vn -0.7619 -0.0122 -0.6476
vn -0.9731 0.2232 0.0570
vn -0.9793 0.1911 -0.0665
vn -0.6479 -0.0666 -0.7588
vn -0.6633 0.3240 0.6745
vn -0.6761 0.3234 0.6620
vn -0.9659 -0.0000 0.2588
vn -0.7071 -0.0000 0.7071
vn -0.1332 0.8575 0.4970
vn -0.1332 -0.8575 0.4970
vn 0.1332 -0.8575 0.4970
vn 0.9886 -0.0726 0.1316
vn -0.9891 0.0701 -0.1296
vn -0.1848 -0.0661 -0.9805
vn 0.1829 0.0638 0.9810
vn 0.0481 -0.7468 -0.6633
vn -0.0483 0.7434 0.6671
vn 0.6793 -0.7292 -0.0827
vn -0.6831 0.7255 0.0832
vn -0.9171 0.3966 -0.0402
vn -0.9910 0.1332 -0.0135
vn -0.9917 0.1283 -0.0113
vn 1.0000 -0.0000 -0.0000
vn 0.9971 0.0752 -0.0084
vn -0.6479 0.0671 -0.7587
vn -0.7618 0.0128 -0.6476
vn -0.0526 0.2500 -0.9668
vn 0.0435 0.2693 -0.9621
vn -0.9795 -0.1904 -0.0664
vn -0.9733 -0.2223 0.0569
vn 0.0526 -0.2493 0.9670
vn -0.0435 -0.2685 0.9623
vn -0.6636 -0.3230 0.6747
vn -0.6763 -0.3224 0.6623
vn 0.6635 0.3238 -0.6745
vn 0.6761 0.3231 -0.6621
vn 0.9793 0.1912 0.0664
vn 0.9731 0.2231 -0.0569
vn 0.6479 -0.0662 0.7588
vn 0.7618 -0.0120 0.6476
vn -0.6763 -0.3226 -0.6622
vn -0.6635 -0.3233 -0.6747
vn -0.0435 -0.2688 -0.9622
vn 0.0526 -0.2496 -0.9669
vn -0.9795 -0.1903 0.0665
vn -0.9733 -0.2224 -0.0570
vn 0.0435 0.2696 0.9620
vn -0.0526 0.2504 0.9667
vn -0.7619 0.0131 0.6476
vn -0.6479 0.0674 0.7588
vn 0.7619 -0.0122 -0.6476
vn 0.6479 -0.0666 -0.7588
vn 0.9793 0.1911 -0.0665
vn 0.9731 0.2232 0.0570
vn 0.6761 0.3234 0.6620
vn 0.6633 0.3240 0.6745
vn 0.9659 -0.0000 0.2588
vn 0.7071 -0.0000 0.7071
vn 0.1332 0.8575 0.4970
vn 0.9171 0.3966 -0.0402
vn 0.9910 0.1332 -0.0135
vn 0.9917 0.1283 -0.0113
vn -0.0000 1.0000 -0.0000
vn -0.9887 -0.0721 -0.1312
vn 0.9892 0.0696 0.1292
vn 0.1879 -0.0699 0.9797
vn -0.1860 0.0676 -0.9802
vn -0.0479 -0.7489 0.6609
vn 0.0482 0.7456 -0.6647
vn -0.6790 -0.7295 0.0827
vn 0.6828 0.7258 -0.0832
vn 0.1611 -0.0886 -0.9829
vn -0.1585 0.0855 0.9836
vn -0.9875 -0.0491 0.1496
vn 0.9878 0.0474 -0.1483
vn -0.6888 -0.7236 -0.0429
vn 0.6920 0.7206 0.0430
vn -0.0922 -0.7547 -0.6496
vn 0.0928 0.7509 0.6539
vn -0.1642 -0.0924 0.9821
vn 0.1616 0.0893 -0.9828
vn 0.9876 -0.0486 -0.1491
vn -0.9879 0.0469 0.1479
vn 0.6887 -0.7238 0.0428
vn -0.6919 0.7207 -0.0430
vn 0.0918 -0.7567 0.6473
vn -0.0925 0.7529 -0.6516
vn 0.0033 0.9988 -0.0497
vn -0.0181 0.9994 -0.0290
vn 0.0230 0.9996 -0.0145
vn 0.0064 0.9999 0.0104
vn -0.0393 0.9984 0.0401
vn -0.0176 0.9998 0.0081
vn -0.9980 -0.0632 0.0010
vn 0.0374 0.9982 0.0461
vn -0.2759 0.9604 -0.0377
vn 0.2009 0.9793 -0.0259
vn 0.3941 0.9098 0.1299
vn -0.0243 0.9966 -0.0785
vn 0.0836 0.9686 -0.2343
vn 0.2126 0.9759 0.0493
vn 0.0263 0.9921 -0.1226
vn -0.2767 0.9605 -0.0313
vn -0.0296 0.9451 0.3255
vn -0.3459 0.0915 -0.9338
vn 0.9172 0.0646 -0.3931
vn 0.3433 0.0964 -0.9343
vn -0.0027 0.0430 -0.9991
vn 0.0091 0.9987 -0.0505
vn 0.0238 0.9990 -0.0390
vn -0.0425 0.9981 -0.0446
vn 0.0135 0.9995 0.0269
vn -0.0150 0.9999 0.0064
vn -0.0231 0.9975 0.0670
vn 0.0146 0.9997 0.0216
vn 0.9999 -0.0113 -0.0019
vn -0.9168 0.0627 -0.3943
vn -0.6726 0.7400 0.0029
vn -0.0242 0.9977 0.0637
vn -0.0291 0.9995 -0.0123
vn 0.0168 0.9995 0.0254
vn -0.2744 0.9616 0.0104
vn -0.1974 0.9802 -0.0182
vn -0.2017 0.9780 0.0528
vn -0.6822 0.6924 -0.2349
vn -0.7266 0.6868 0.0193
vn 0.2135 0.9766 0.0272
vn 0.6303 0.7763 0.0119
vn 0.7111 0.6382 0.2950
vn 0.7237 0.6901 -0.0065
vn 0.2571 0.9657 -0.0364
vn 0.0199 0.9542 0.2986
vn -0.0001 0.6015 0.7989
vn -0.0181 0.9622 0.2718
vn -0.0884 0.9468 0.3096
vn 0.0016 0.5964 0.8027
vn -0.2731 0.5789 0.7683
vn 0.0009 0.7720 -0.6356
vn 0.0212 0.9959 -0.0876
vn 0.2387 0.7258 -0.6452
vn -0.0070 0.7552 -0.6555
vn -0.0291 0.9936 -0.1095
vn 0.6747 0.6992 -0.2365
vn 0.2797 0.9596 -0.0315
vn -0.2466 0.7144 -0.6549
vn -0.0809 0.9694 -0.2319
vn -0.7232 0.6145 0.3153
vn -0.3885 0.9127 0.1268
vn 0.1011 0.9394 0.3276
vn 0.2737 0.5906 0.7591
vt 0.301681 0.881336
vt 0.449379 0.943711
vt 0.467056 0.936389
vt 0.442056 0.961389
vt 0.467056 0.986389
vt 0.449379 0.979066
vt 0.484734 0.943711
vt 0.492056 0.961389
vt 0.484734 0.979066
vt 0.128080 0.958149
vt 0.128080 0.958149
vt 0.035503 0.870264
vt 0.035503 0.870264
vt 0.035503 0.870264
vt 0.035503 0.870264
vt 0.035503 0.870264
s 1
usemtl Palette
f 137/1/1 144/1/2 78/1/3 71/1/4
f 51/1/5 133/1/6 130/1/7 48/1/8
f 89/1/9 7/1/9 6/1/10 88/1/10
f 87/1/11 5/1/11 4/1/12 86/1/12
f 86/1/12 4/1/12 1/1/13 83/1/13
f 137/1/1 71/1/4 73/1/14 74/1/15 75/1/16 76/1/17 72/1/17 7/1/9 89/1/9 138/1/17 142/1/17 141/1/18 140/1/19 139/1/20
f 88/1/10 6/1/10 5/1/11 87/1/11
f 83/1/13 1/1/13 3/1/21 85/1/21
f 96/1/22 95/1/23 13/1/23 14/1/22
f 94/1/24 93/1/25 11/1/25 12/1/24
f 93/1/25 90/1/26 8/1/26 11/1/25
f 143/1/27 96/1/22 14/1/22 77/1/27 79/1/27 80/1/28 81/1/29 82/1/30 78/1/3 144/1/2 148/1/31 147/1/32 146/1/33 145/1/27
f 95/1/23 94/1/24 12/1/24 13/1/23
f 90/1/26 92/1/34 10/1/34 8/1/26
f 85/1/21 3/1/21 2/1/35 84/1/35
s 0
f 2/1/36 3/1/36 10/1/36 9/1/36
f 1/1/36 4/1/36 11/1/36 8/1/36
f 3/1/36 1/1/36 8/1/36 10/1/36
f 4/1/36 5/1/36 12/1/36 11/1/36
f 5/1/36 6/1/36 13/1/36 12/1/36
f 6/1/37 7/1/37 14/1/37 13/1/37
s 1
f 92/1/34 91/1/38 9/1/38 10/1/34
f 19/2/39 20/3/40 27/3/41 26/2/42
f 18/4/43 19/2/39 26/2/42 25/4/44
f 16/5/45 17/6/46 15/6/47 24/5/48
f 21/7/49 22/8/50 29/8/51 28/7/52
f 22/8/50 23/9/53 30/9/54 29/8/51
f 23/9/53 16/5/45 24/5/48 30/9/54
f 35/2/55 36/3/56 43/3/57 42/2/58
f 20/3/40 21/7/49 28/7/52 27/3/41
s 0
f 16/5/59 23/9/59 22/8/59 21/7/59 20/3/59 19/2/59 18/4/59 17/6/59
s 1
f 17/6/46 18/4/43 25/4/44 15/6/47
f 34/4/60 35/2/55 42/2/58 41/4/61
f 32/5/62 33/6/63 31/6/64 40/5/65
f 37/7/66 38/8/67 45/8/68 44/7/69
f 38/8/67 39/9/70 46/9/71 45/8/68
f 39/9/70 32/5/62 40/5/65 46/9/71
f 36/3/56 37/7/66 44/7/69 43/3/57
s 0
f 32/5/59 39/9/59 38/8/59 37/7/59 36/3/59 35/2/59 34/4/59 33/6/59
s 1
f 33/6/63 34/4/60 41/4/61 31/6/64
s 0
f 47/1/72 52/1/72 54/1/72 49/1/72
f 49/1/73 54/1/73 53/1/73 50/1/73
s 1
f 50/1/74 53/1/75 51/1/5 48/1/8
s 0
f 47/1/36 2/1/36 9/1/36 52/1/36
s 1
f 91/1/38 134/1/59 136/1/59 135/1/76 133/1/6 51/1/5 53/1/75 54/1/59 52/1/59 9/1/38
s 0
f 56/10/77 55/10/77 57/10/77 58/11/77
f 62/10/78 61/11/78 59/10/78 60/10/78
f 70/10/79 69/11/79 67/10/79 68/10/79
f 64/10/80 63/10/80 65/10/80 66/11/80
f 55/10/81 56/10/81 62/10/81 60/10/81
f 58/11/82 57/10/82 59/10/82 61/11/82
f 63/10/83 64/10/83 70/10/83 68/10/83
f 66/11/84 65/10/84 67/10/84 69/11/84
s 1
f 71/1/4 78/1/3 82/1/30 73/1/14
f 73/1/14 82/1/30 81/1/29 74/1/15
f 74/1/15 81/1/29 80/1/28 75/1/16
s 0
f 75/1/85 80/1/85 79/1/85 76/1/85
f 76/1/86 79/1/86 77/1/86 72/1/86
f 77/1/87 14/1/87 7/1/87 72/1/87
f 84/1/88 91/1/88 92/1/88 85/1/88
f 83/1/88 90/1/88 93/1/88 86/1/88
f 85/1/88 92/1/88 90/1/88 83/1/88
f 86/1/88 93/1/88 94/1/88 87/1/88
f 87/1/88 94/1/88 95/1/88 88/1/88
f 88/1/89 95/1/89 96/1/89 89/1/89
s 1
f 101/2/90 108/2/91 109/3/92 102/3/93
f 100/4/94 107/4/95 108/2/91 101/2/90
f 98/5/96 106/5/97 97/6/98 99/6/99
f 103/7/100 110/7/101 111/8/102 104/8/103
f 104/8/103 111/8/102 112/9/104 105/9/105
f 105/9/105 112/9/104 106/5/97 98/5/96
f 117/2/106 124/2/107 125/3/108 118/3/109
f 102/3/93 109/3/92 110/7/101 103/7/100
s 0
f 98/5/59 99/6/59 100/4/59 101/2/59 102/3/59 103/7/59 104/8/59 105/9/59
s 1
f 99/6/99 97/6/98 107/4/95 100/4/94
f 116/4/110 123/4/111 124/2/107 117/2/106
f 114/5/112 122/5/113 113/6/114 115/6/115
f 119/7/116 126/7/117 127/8/118 120/8/119
f 120/8/119 127/8/118 128/9/120 121/9/121
f 121/9/121 128/9/120 122/5/113 114/5/112
f 118/3/109 125/3/108 126/7/117 119/7/116
s 0
f 114/5/59 115/6/59 116/4/59 117/2/59 118/3/59 119/7/59 120/8/59 121/9/59
s 1
f 115/6/115 113/6/114 123/4/111 116/4/110
s 0
f 129/1/122 131/1/122 136/1/122 134/1/122
f 131/1/123 132/1/123 135/1/123 136/1/123
s 1
f 132/1/124 130/1/7 133/1/6 135/1/76
s 0
f 129/1/88 134/1/88 91/1/88 84/1/88
s 1
f 137/1/1 139/1/20 148/1/31 144/1/2
f 139/1/20 140/1/19 147/1/32 148/1/31
f 140/1/19 141/1/18 146/1/33 147/1/32
s 0
f 141/1/125 142/1/125 145/1/125 146/1/125
f 142/1/126 138/1/126 143/1/126 145/1/126
f 143/1/127 138/1/127 89/1/127 96/1/127
s 1
f 84/1/35 2/1/35 47/1/128 49/1/128 50/1/74 48/1/8 130/1/7 132/1/124 131/1/128 129/1/128
s 0
f 150/10/129 149/10/129 151/10/129 152/11/129
f 156/10/130 155/11/130 153/10/130 154/10/130
f 164/10/131 163/11/131 161/10/131 162/10/131
f 158/10/132 157/10/132 159/10/132 160/11/132
f 149/10/133 150/10/133 156/10/133 154/10/133
f 152/11/134 151/10/134 153/10/134 155/11/134
f 157/10/135 158/10/135 164/10/135 162/10/135
f 160/11/136 159/10/136 161/10/136 163/11/136
f 166/10/137 165/10/137 167/10/137 168/11/137
f 172/10/138 171/11/138 169/10/138 170/10/138
f 180/10/139 179/11/139 177/10/139 178/10/139
f 174/10/140 173/10/140 175/10/140 176/11/140
f 165/10/141 166/10/141 172/10/141 170/10/141
f 168/11/142 167/10/142 169/10/142 171/11/142
f 173/10/143 174/10/143 180/10/143 178/10/143
f 176/11/144 175/10/144 177/10/144 179/11/144
f 182/10/145 181/10/145 183/10/145 184/11/145
f 188/10/146 187/11/146 185/10/146 186/10/146
f 196/10/147 195/11/147 193/10/147 194/10/147
f 190/10/148 189/10/148 191/10/148 192/11/148
f 181/10/149 182/10/149 188/10/149 186/10/149
f 184/11/150 183/10/150 185/10/150 187/11/150
f 189/10/151 190/10/151 196/10/151 194/10/151
f 192/11/152 191/10/152 193/10/152 195/11/152
f 197/12/153 215/13/153 204/14/153 200/15/153
f 216/13/154 219/15/154 221/15/154
f 221/15/155 220/12/155 204/14/155
f 221/15/156 203/15/156 220/12/156
f 210/12/157 199/12/157 203/15/157
f 202/12/158 203/15/158 219/15/158
f 236/12/159 223/12/159 242/14/159
f 220/12/160 199/12/160 209/12/160
f 209/12/161 213/12/161 244/12/161
f 201/12/162 232/15/162 245/15/162
f 198/12/163 225/15/163 232/15/163
f 199/12/164 228/15/164 247/15/164
f 210/12/165 214/15/165 228/15/165
f 210/12/166 202/12/166 233/15/166
f 209/12/167 199/12/167 229/15/167
f 197/12/168 200/15/168 235/15/168
f 211/15/169 216/13/169 231/15/169
f 218/14/170 226/12/170 207/12/170 241/16/170
f 222/14/171 227/12/171 208/12/171 240/12/171
f 217/15/172 239/12/172 208/12/172 227/12/172
f 217/15/173 218/14/173 241/16/173 239/12/173
f 219/15/174 211/15/174 198/12/174 201/12/174
f 215/13/175 216/13/175 221/15/175 204/14/175
f 211/15/176 219/15/176 216/13/176
f 203/15/177 199/12/177 220/12/177
f 203/15/178 221/15/178 219/15/178
f 210/12/179 203/15/179 202/12/179
f 202/12/180 219/15/180 201/12/180
f 237/12/181 222/14/181 240/12/181
f 223/12/182 236/12/182 207/12/182 226/12/182
f 236/12/183 242/12/183 235/15/183 234/15/183
f 220/12/184 209/12/184 224/12/184
f 220/12/185 200/15/185 204/14/185
f 220/12/186 224/12/186 200/15/186
f 224/12/187 234/15/187 200/15/187
f 200/15/188 234/15/188 235/15/188
f 234/15/189 224/12/189 209/12/189 244/12/189
f 236/12/190 244/12/190 213/12/190 207/12/190
f 244/12/191 236/12/191 234/15/191
f 245/15/192 233/15/192 202/12/192 201/12/192
f 237/12/193 240/12/193 233/15/193 245/15/193
f 237/12/194 232/15/194 225/15/194 205/12/194
f 232/15/195 237/12/195 245/15/195
f 198/12/196 232/15/196 201/12/196
f 246/15/197 216/13/197 215/13/197 230/15/197
f 238/12/198 243/12/198 231/15/198 246/15/198
f 216/13/199 246/15/199 231/15/199
f 230/15/200 215/13/200 197/12/200 212/15/200
f 230/15/201 238/12/201 246/15/201
f 238/12/202 230/15/202 212/15/202 206/12/202
f 239/12/203 241/16/203 229/15/203 247/15/203
f 199/12/204 247/15/204 229/15/204
f 239/12/205 228/15/205 214/15/205 208/12/205
f 228/15/206 239/12/206 247/15/206
f 210/12/207 228/15/207 199/12/207
f 240/12/208 208/12/208 214/15/208 233/15/208
f 210/12/209 233/15/209 214/15/209
f 241/16/210 207/12/210 213/12/210 229/15/210
f 209/12/211 229/15/211 213/12/211
f 242/12/212 206/12/212 212/15/212 235/15/212
f 197/12/213 235/15/213 212/15/213
f 231/15/214 225/15/214 198/12/214 211/15/214
f 243/12/215 205/12/215 225/15/215 231/15/215
