# Blender 4.4.1
# www.blender.org
mtllib Chair_Body.mtl
o Chair_Body
v -0.249612 0.631309 -0.193415
v -0.260067 0.624034 0.209948
v -0.000000 0.632090 -0.225271
v -0.066054 0.633542 0.239489
v -0.218755 0.634711 -0.212673
v -0.135351 0.633759 -0.219567
v -0.222455 0.632735 0.225883
v -0.152118 0.635472 0.234520
v -0.244750 0.586565 0.216789
v -0.188573 0.577001 0.232606
v -0.114121 0.575003 0.234597
v -0.038122 0.571433 0.242128
v -0.265646 0.629979 0.163375
v -0.263585 0.634542 0.092222
v -0.262078 0.633784 0.010909
v -0.258506 0.631786 -0.071498
v -0.257135 0.629861 -0.148697
v 0.000966 0.651143 0.182731
v -0.000000 0.552992 -0.194929
v -0.075577 0.553067 -0.192343
v -0.150487 0.556134 -0.191357
v -0.154441 0.553313 -0.096288
v -0.183823 0.563520 0.172825
v -0.215134 0.569728 -0.183907
v -0.214250 0.566006 -0.111733
v -0.236976 0.577021 -0.147865
v -0.237942 0.576141 -0.071089
v -0.241468 0.576557 0.011382
v -0.243727 0.575833 0.092952
v -0.246656 0.578925 0.165255
v -0.003857 0.643101 -0.155245
v -0.151438 0.655353 0.177207
v -0.150202 0.659302 0.097484
v -0.148588 0.657282 -0.012915
v -0.151384 0.650466 -0.152919
v -0.224302 0.649929 0.170100
v -0.220220 0.656111 0.088122
v -0.217565 0.647165 -0.151989
v -0.255320 0.602795 -0.197098
v -0.000000 0.583851 -0.233271
v -0.262143 0.599948 0.214049
v -0.221745 0.596048 0.238213
v -0.151847 0.592405 0.248566
v -0.076179 0.594964 0.251082
v -0.038137 0.614520 0.251052
v -0.075523 0.584620 -0.234240
v -0.150660 0.587612 -0.232058
v -0.218358 0.595001 -0.221792
v -0.261348 0.602838 -0.146151
v -0.263683 0.602813 -0.071367
v -0.268192 0.603378 0.010741
v -0.271537 0.602734 0.092137
v -0.272306 0.602285 0.162602
v 0.249612 0.631309 -0.193415
v 0.260067 0.623991 0.209948
v 0.218755 0.634711 -0.212674
v 0.144729 0.634700 -0.218812
v 0.222456 0.632651 0.225883
v 0.152119 0.635429 0.234520
v 0.076294 0.634609 0.238077
v 0.114121 0.574770 0.234597
v 0.038123 0.571373 0.242128
v 0.265646 0.629979 0.163375
v 0.263585 0.634542 0.092222
v 0.262078 0.633784 0.010909
v 0.258506 0.631786 -0.071498
v 0.257135 0.629861 -0.148697
v 0.260549 0.589893 0.191148
v 0.262334 0.588821 0.129661
v 0.259998 0.588145 0.052038
v 0.255796 0.589003 -0.030196
v 0.252633 0.588764 -0.110426
v 0.252801 0.590536 -0.175306
v 0.026968 0.563714 0.097821
v 0.075577 0.553067 -0.192343
v 0.147845 0.553110 -0.101521
v 0.133314 0.561794 0.167426
v 0.150487 0.556134 -0.191357
v 0.152017 0.565185 0.209659
v 0.215134 0.569728 -0.183907
v 0.214250 0.566006 -0.111733
v 0.216028 0.567344 -0.029332
v 0.217701 0.567207 0.053301
v 0.221226 0.568150 0.133359
v 0.221574 0.573248 0.201177
v 0.153726 0.650073 -0.152475
v 0.152596 0.655714 0.176911
v 0.150202 0.659302 0.097484
v 0.149084 0.657277 -0.013801
v 0.224302 0.649929 0.170100
v 0.220086 0.656223 0.087523
v 0.217565 0.647165 -0.151989
v 0.255320 0.602795 -0.197099
v 0.262143 0.599787 0.214049
v 0.221746 0.595814 0.238213
v 0.151848 0.592183 0.248566
v 0.076180 0.594884 0.251082
v 0.038137 0.614499 0.251052
v 0.075523 0.584620 -0.234240
v 0.150659 0.587612 -0.232058
v 0.218358 0.595001 -0.221792
v 0.261348 0.602846 -0.146151
v 0.263683 0.602840 -0.071367
v 0.268192 0.603408 0.010741
v 0.271537 0.602728 0.092137
v 0.272306 0.602233 0.162602
v 0.001609 0.571029 0.242128
v 0.000549 0.614135 0.251052
v -0.015840 0.357509 0.017351
v -0.015840 0.597006 0.017351
v -0.022124 0.357509 0.002179
v -0.022124 0.597006 0.002179
v -0.015840 0.357509 -0.012993
v -0.015840 0.597006 -0.012993
v 0.000000 0.357509 0.023636
v 0.000000 0.597006 0.023636
v 0.015840 0.357509 0.017351
v 0.015840 0.597006 0.017351
v 0.022124 0.357509 0.002179
v 0.022124 0.597006 0.002179
v 0.015840 0.357509 -0.012993
v 0.015840 0.597006 -0.012993
v -0.000000 0.357509 -0.019277
v -0.000000 0.597006 -0.019277
v -0.203298 0.813699 -0.283495
v -0.203298 1.056106 -0.304413
v 0.203443 0.814119 -0.283530
v 0.203166 1.060272 -0.304755
v -0.188798 0.837846 -0.256933
v -0.188798 1.045449 -0.274998
v 0.188923 0.838218 -0.256964
v 0.188677 1.049279 -0.275312
v 0.101694 0.812606 -0.300702
v -0.101549 0.812396 -0.300685
v -0.101685 1.055741 -0.321668
v 0.101552 1.057824 -0.321839
v 0.104027 0.837016 -0.270607
v 0.104090 1.047304 -0.288869
v -0.103845 1.045192 -0.288725
v 0.038611 0.833189 -0.314827
v -0.038388 0.833058 -0.314814
v -0.038424 0.863465 -0.303086
v 0.038576 0.863597 -0.303097
v 0.038985 0.597381 -0.295343
v -0.038015 0.597252 -0.295314
v -0.038015 0.600750 -0.280033
v 0.038985 0.600879 -0.280062
v 0.039037 0.567636 -0.271722
v -0.037962 0.567540 -0.271631
v -0.037962 0.578326 -0.260256
v 0.039037 0.578422 -0.260347
v 0.039088 0.547087 -0.225635
v -0.037911 0.547040 -0.225511
v -0.037911 0.561696 -0.219949
v 0.039088 0.561743 -0.220073
v 0.039218 0.544404 -0.119878
v -0.037781 0.544357 -0.119754
v -0.037781 0.559013 -0.114193
v 0.039218 0.559060 -0.114316
v -0.038219 0.716251 -0.298503
v -0.038219 0.718639 -0.283051
v 0.038780 0.718769 -0.283071
v 0.038780 0.716381 -0.298523
v -0.103915 0.836811 -0.270589
v -0.079170 1.024506 -0.271816
v -0.079223 0.860396 -0.257309
v 0.079328 0.860552 -0.257323
v 0.079376 1.026117 -0.271926
v -0.152171 0.861185 -0.253979
v -0.152171 1.024702 -0.268433
v 0.152093 1.027623 -0.268672
v 0.152291 0.861469 -0.254003
v -0.105836 0.821009 -0.274286
v -0.105253 0.813878 -0.282584
v -0.210629 0.815164 -0.265599
v -0.206247 0.822214 -0.258137
v -0.206254 1.061281 -0.278782
v -0.210643 1.064566 -0.287056
v 0.210495 1.068850 -0.287410
v 0.206114 1.065468 -0.279125
v 0.206394 0.822618 -0.258170
v 0.210779 0.815584 -0.265635
v 0.105888 1.063132 -0.295175
v 0.105258 1.066472 -0.304289
v -0.105406 1.064329 -0.304112
v -0.105924 1.060980 -0.295007
v 0.105403 0.814088 -0.282602
v 0.105976 0.821217 -0.274304
vn -0.0320 -0.9755 0.2175
vn -0.0413 -0.9987 -0.0314
vn -0.0709 -0.9632 0.2591
vn -0.2416 -0.9699 0.0317
vn -0.1655 0.3234 0.9317
vn -0.4841 -0.4793 0.7320
vn 0.0488 0.9976 -0.0498
vn 0.0490 0.9976 -0.0495
vn 0.0248 0.9991 0.0353
vn 0.0370 0.9979 -0.0523
vn 0.0442 0.9988 -0.0207
vn -0.3002 -0.7103 0.6367
vn -0.2325 -0.9669 0.1056
vn -0.3795 -0.9242 -0.0430
vn -0.0378 -0.6741 0.7377
vn -0.1086 -0.5021 0.8580
vn 0.0093 -0.9903 0.1389
vn -0.0009 -1.0000 0.0018
vn -0.4678 -0.7531 -0.4626
vn -0.4158 -0.9093 -0.0157
vn -0.0359 0.9980 -0.0513
vn -0.0221 0.9991 0.0367
vn -0.0546 0.9973 -0.0498
vn 0.8114 -0.5831 -0.0405
vn 0.1575 0.3068 0.9386
vn -0.1519 -0.5132 0.8448
vn 0.0447 0.9988 -0.0212
vn 0.0446 0.9988 -0.0207
vn 0.0269 0.9990 0.0355
vn 0.8196 -0.5723 -0.0256
vn 0.1655 -0.8099 0.5627
vn -0.1515 -0.9777 0.1456
vn 0.8091 -0.5873 -0.0192
vn 0.8203 -0.5699 -0.0479
vn -0.0668 0.9969 -0.0405
vn -0.0527 0.9980 -0.0361
vn -0.0464 0.9983 -0.0339
vn 0.0033 -0.6301 0.7765
vn 0.8261 -0.5627 -0.0309
vn 0.8353 -0.5496 -0.0128
vn 0.7610 -0.6479 0.0334
vn 0.0754 -0.9971 0.0084
vn 0.0003 -0.9986 0.0533
vn -0.0304 0.9986 0.0430
vn -0.0310 0.9986 0.0435
vn 0.1075 -0.5010 0.8587
vn 0.0601 -0.9982 -0.0029
vn -0.1046 -0.2015 0.9739
vn 0.8174 -0.5759 -0.0130
vn 0.8328 -0.5522 -0.0388
vn 0.8640 -0.4813 0.1478
vn 0.9182 -0.3811 -0.1082
vn 0.1044 -0.2017 0.9739
vn -0.0455 0.9987 -0.0208
vn -0.0575 0.9970 -0.0525
vn -0.0275 0.9990 0.0351
vn -0.0044 -0.6318 0.7751
vn 0.0603 0.9981 -0.0141
vn 0.0341 0.9987 0.0386
vn 0.0281 0.9990 0.0361
vn 0.0448 0.9715 -0.2328
vn 0.0023 0.9448 0.3278
vn -0.0430 0.9989 -0.0189
vn -0.0043 0.9565 0.2916
vn -0.2655 -0.9641 -0.0065
vn 0.0150 -0.9991 0.0395
vn 0.0413 -0.9986 -0.0324
vn 0.0641 -0.9763 0.2069
vn -0.0378 -0.9988 0.0302
vn 0.4475 0.8941 -0.0166
vn 0.4132 0.9098 -0.0400
vn 0.0414 0.9990 -0.0186
vn -0.0058 -0.9998 -0.0188
vn -0.7011 -0.7125 -0.0301
vn -0.3145 0.9420 -0.1172
vn 0.0091 0.5391 0.8422
vn 0.0094 0.5391 0.8422
vn 0.0179 0.5077 0.8613
vn 0.0034 0.5035 0.8640
vn -0.6848 -0.7287 -0.0042
vn -0.0110 -0.7893 -0.6139
vn 0.2025 -0.7980 -0.5676
vn -0.0271 0.9737 -0.2262
vn 0.0056 0.9879 -0.1550
vn -0.2351 -0.9560 0.1754
vn -0.9711 0.2386 -0.0110
vn -0.3896 0.8918 0.2299
vn -0.9861 0.1641 -0.0261
vn -0.9749 0.1769 -0.1355
vn -0.0949 0.2585 -0.9614
vn -0.9698 0.1746 0.1705
vn -0.0881 0.9463 0.3111
vn -0.9811 0.1866 -0.0511
vn -0.4553 0.2419 0.8568
vn -0.0629 0.9972 -0.0413
vn -0.1256 0.3101 0.9424
vn -0.0174 0.2666 -0.9636
vn -0.5243 0.1963 -0.8286
vn -0.0109 0.9877 -0.1559
vn -0.0194 0.2154 -0.9763
vn 0.0149 0.9499 0.3122
vn -0.0452 0.3043 0.9515
vn -0.9749 0.2205 -0.0292
vn 0.0110 -0.7893 -0.6139
vn -0.7234 -0.6901 -0.0199
vn -0.7133 -0.7001 -0.0307
vn -0.2039 -0.9781 -0.0420
vn -0.2343 -0.9722 0.0051
vn 0.0019 -0.2027 0.9792
vn 0.0183 0.5030 0.8641
vn 0.0306 0.5123 0.8583
vn -0.0005 0.5140 0.8578
vn -0.6523 -0.7437 -0.1463
vn -0.4408 0.8965 0.0452
vn -0.4134 0.9098 -0.0364
vn -0.4465 0.8946 -0.0166
vn -0.4119 0.9104 -0.0399
vn 0.4843 -0.7609 -0.4319
vn -0.0670 0.9959 0.0602
vn 0.3145 0.9420 -0.1172
vn 0.9711 0.2384 -0.0109
vn -0.2025 -0.7980 -0.5676
vn 0.0210 0.2177 -0.9758
vn 0.5243 0.1963 -0.8286
vn 0.0309 0.9760 -0.2157
vn 0.3894 0.8917 0.2309
vn 0.0981 0.2542 -0.9622
vn 0.4551 0.2409 0.8572
vn 0.0912 0.9448 0.3148
vn 0.9698 0.1740 0.1707
vn 0.0171 0.2727 -0.9619
vn 0.1258 0.3090 0.9427
vn -0.0095 0.9489 0.3156
vn 0.0692 0.9959 0.0579
vn 0.1426 -0.8289 0.5410
vn 0.0419 0.3095 0.9500
vn 0.9748 0.1770 -0.1355
vn 0.9749 0.2206 -0.0292
vn 0.1066 -0.9926 0.0581
vn 0.1972 -0.9797 -0.0365
vn -0.0003 -1.0000 0.0018
vn 0.4999 -0.8656 -0.0309
vn 0.4941 -0.8694 -0.0066
vn 0.4601 -0.8876 -0.0218
vn 0.4460 -0.8950 -0.0074
vn 0.4286 -0.9022 0.0478
vn -0.0449 -0.7942 -0.6060
vn 0.0614 0.9972 -0.0425
vn 0.4409 0.8964 0.0453
vn 0.4137 0.9097 -0.0366
vn 0.9861 0.1642 -0.0261
vn 0.0449 -0.7942 -0.6060
vn 0.1694 -0.9850 0.0342
vn 0.9811 0.1868 -0.0511
vn -0.6532 -0.7484 0.1151
vn 0.3956 -0.8124 0.4283
vn -0.0041 -0.9929 0.1186
vn -0.0020 -0.2028 0.9792
vn -0.0000 -0.0000 1.0000
vn -0.7018 -0.0000 0.7124
vn -1.0000 -0.0000 -0.0000
vn -0.7018 -0.0000 -0.7124
vn -0.0000 -0.0000 -1.0000
vn 0.7018 -0.0000 0.7124
vn 1.0000 -0.0000 -0.0000
vn 0.7018 -0.0000 -0.7124
vn -0.0392 0.9746 -0.2205
vn 0.1512 -0.2426 0.9583
vn 0.1671 -0.0845 -0.9823
vn 0.0888 0.5873 0.8045
vn 0.1314 0.0866 0.9875
vn 0.0541 0.8885 -0.4557
vn -0.1671 -0.0848 -0.9823
vn 0.1486 0.3821 0.9121
vn -0.1549 0.3811 0.9115
vn -0.0731 0.8869 -0.4562
vn -0.0000 -0.0859 -0.9963
vn 0.0006 -0.4911 0.8711
vn 0.0011 -0.9966 0.0819
vn -0.1506 -0.2428 0.9583
vn -0.0008 0.3599 -0.9330
vn -1.0000 -0.0014 0.0007
vn -1.0000 -0.0017 0.0003
vn 0.0003 0.0256 0.9997
vn 1.0000 0.0017 -0.0003
vn -0.0003 -0.0268 -0.9996
vn 1.0000 0.0006 -0.0009
vn -0.0004 0.6606 0.7507
vn 1.0000 0.0014 -0.0007
vn 0.0003 -0.6226 -0.7825
vn 0.0006 -0.9997 -0.0254
vn 0.0003 -0.9136 -0.4067
vn -1.0000 -0.0006 0.0009
vn -0.0003 0.9242 0.3820
vn 0.0017 -0.3548 0.9349
vn -1.0000 -0.0005 0.0012
vn -0.0006 0.9997 0.0254
vn 1.0000 0.0005 -0.0012
vn -0.0000 -0.1383 -0.9904
vn 1.0000 0.0014 -0.0004
vn -0.0000 0.1370 0.9906
vn -1.0000 -0.0014 0.0004
vn -0.9259 -0.0324 -0.3763
vn 0.9259 -0.0314 -0.3764
vn -0.0095 0.8976 -0.4407
vn 0.0010 -0.9967 0.0816
vn -0.0031 0.3699 0.9291
vn -0.1404 0.0855 0.9864
vn 0.1404 0.0856 0.9864
vn 0.0011 -0.9967 0.0813
vn 0.0464 0.0880 0.9950
vn -0.0464 0.0878 0.9951
vn -0.0001 0.0880 0.9961
vn -0.0907 -0.4307 0.8979
vn -0.0058 0.6287 0.7776
vn -0.1314 0.0865 0.9875
vn -0.0990 0.5848 0.8051
vn 0.0917 -0.4304 0.8980
vn -0.8769 0.0412 0.4789
vn 0.8771 0.0422 0.4784
vn -0.0093 0.9387 0.3447
vn 0.0008 -0.7585 0.6517
vn -0.0944 -0.7518 0.6527
vn 0.0960 -0.7513 0.6529
vn 0.0583 0.9369 0.3447
vn -0.0767 0.9355 0.3449
vn 0.0003 -0.2278 0.9737
vt 0.793712 0.784264
vt 0.793712 0.786277
vt 0.793712 0.792478
vt 0.793712 0.795226
vt 0.793712 0.786257
vt 0.793712 0.788250
vt 0.793712 0.784264
vt 0.793712 0.784264
vt 0.793712 0.784264
vt 0.793712 0.790899
vt 0.793712 0.794229
vt 0.793712 0.794229
vt 0.793712 0.786257
vt 0.793712 0.792236
vt 0.793712 0.793233
vt 0.793712 0.795226
vt 0.793712 0.784264
vt 0.793712 0.787099
vt 0.793712 0.784264
vt 0.793712 0.796222
vt 0.793712 0.796222
vt 0.793712 0.790920
vt 0.793712 0.790243
vt 0.793712 0.791240
vt 0.793712 0.792236
vt 0.793712 0.788250
vt 0.793712 0.793233
vt 0.793712 0.794229
vt 0.793712 0.785261
vt 0.793712 0.789247
vt 0.793712 0.788250
vt 0.793712 0.787254
vt 0.793712 0.786257
vt 0.793712 0.785261
vt 0.793712 0.787254
vt 0.793712 0.788716
vt 0.793712 0.793233
vt 0.793712 0.788250
vt 0.793712 0.786257
vt 0.793712 0.788402
vt 0.793712 0.790243
vt 0.793712 0.795226
vt 0.793712 0.795226
vt 0.793712 0.788417
vt 0.793712 0.788250
vt 0.793712 0.790243
vt 0.793712 0.788250
vt 0.793712 0.790243
vt 0.793712 0.796222
vt 0.793712 0.796222
vt 0.793712 0.794229
vt 0.793712 0.786257
vt 0.793712 0.796222
vt 0.793712 0.795226
vt 0.793712 0.786257
vt 0.793712 0.792236
vt 0.793712 0.794229
vt 0.793712 0.792236
vt 0.793712 0.790243
vt 0.793712 0.796222
vt 0.793712 0.794229
vt 0.793712 0.794229
vt 0.793712 0.786258
vt 0.793712 0.786257
vt 0.793712 0.784264
vt 0.793712 0.785261
vt 0.793712 0.793233
vt 0.044774 0.842243
vt 0.044774 0.892243
vt 0.038524 0.892243
vt 0.038524 0.842243
vt 0.032274 0.892243
vt 0.032274 0.842243
vt 0.026024 0.892243
vt 0.026024 0.842243
vt 0.019774 0.892243
vt 0.019774 0.842243
vt 0.793712 0.800520
vt 0.793712 0.800520
vt 0.793712 0.800459
vt 0.793712 0.796180
vt 0.793712 0.796180
vt 0.793712 0.801345
vt 0.793712 0.801344
vt 0.793712 0.800519
vt 0.793712 0.801346
vt 0.793712 0.796211
vt 0.793712 0.796210
vt 0.793712 0.796180
vt 0.793712 0.795226
vt 0.793712 0.801405
vt 0.793712 0.801345
vt 0.793712 0.801406
vt 0.793712 0.801406
vt 0.793712 0.796211
vt 0.793712 0.800519
vt 0.793712 0.800459
vt 0.793712 0.800459
vt 0.225434 0.889621
vt 0.225434 0.889621
vt 0.225434 0.889621
vt 0.793712 0.796211
vt 0.793712 0.801405
vt 0.793712 0.801406
vt 0.212413 0.881834
vt 0.212413 0.882780
vt 0.212413 0.882794
vt 0.212413 0.881809
vt 0.212413 0.882781
vt 0.212413 0.881834
vt 0.212413 0.881809
vt 0.212413 0.882794
vt 0.212413 0.882794
vt 0.212413 0.882780
vt 0.212413 0.882781
vt 0.212413 0.881809
vt 0.212413 0.881834
vt 0.212413 0.881834
vt 0.212413 0.882780
vt 0.212413 0.882794
vt 0.212413 0.882781
vt 0.212413 0.882794
s 0
usemtl Palette
f 10/1/1 23/2/1 11/1/1
f 22/3/2 21/4/2 20/4/2
f 11/1/3 23/2/3 12/1/3
f 23/2/4 30/5/4 29/6/4
f 44/7/5 45/8/5 4/1/5
f 41/1/6 9/9/6 42/1/6
f 34/10/7 31/11/7 35/12/8
f 18/13/9 31/11/10 34/10/11
f 42/1/12 9/9/12 10/1/12
f 27/14/13 25/15/13 22/3/13
f 26/12/14 24/16/14 25/15/14
f 43/17/15 10/1/15 11/1/15
f 44/7/16 11/1/16 12/1/16
f 107/1/17 77/18/17 62/19/17
f 22/3/18 20/4/18 19/4/18
f 39/20/19 48/21/19 24/16/19
f 26/12/20 25/15/20 27/14/20
f 31/11/21 18/13/22 89/22/23
f 104/23/24 71/24/24 103/25/24
f 98/1/25 97/8/25 60/1/25
f 42/1/26 10/1/26 43/17/26
f 34/10/27 33/26/28 18/13/29
f 103/25/30 72/27/30 102/28/30
f 61/1/31 79/29/31 96/1/31
f 77/18/32 79/29/32 61/1/32
f 70/30/33 105/31/33 69/32/33
f 71/24/34 104/23/34 70/30/34
f 89/22/35 86/12/36 31/11/37
f 97/8/38 61/1/38 96/1/38
f 72/27/39 103/25/39 71/24/39
f 73/4/40 102/28/40 72/27/40
f 69/32/41 106/33/41 68/34/41
f 84/35/42 77/18/42 83/30/42
f 74/36/43 22/3/43 76/37/43
f 18/13/44 87/5/45 88/38/44
f 97/8/46 62/19/46 61/1/46
f 83/30/47 77/18/47 82/24/47
f 97/8/48 98/1/48 62/19/48
f 106/33/49 69/32/49 105/31/49
f 105/31/50 70/30/50 104/23/50
f 94/1/51 68/34/51 106/33/51
f 102/28/52 73/4/52 93/21/52
f 44/7/53 12/1/53 45/8/53
f 88/38/54 89/22/55 18/13/56
f 43/17/57 11/1/57 44/7/57
f 33/26/58 32/39/59 18/13/60
f 31/11/61 6/20/61 35/12/61
f 32/39/62 8/17/62 4/1/62
f 34/10/63 37/40/63 33/26/63
f 60/1/64 18/13/64 4/1/64
f 22/3/65 28/41/65 27/14/65
f 22/3/66 74/36/66 23/2/66
f 76/37/67 75/42/67 78/43/67
f 61/1/68 62/19/68 77/18/68
f 77/18/69 74/36/69 76/37/69
f 91/44/70 64/45/70 65/46/70
f 91/44/71 65/46/71 66/14/71
f 91/44/72 89/22/72 88/38/72
f 74/36/73 77/18/73 23/2/73
f 28/41/74 29/6/74 52/47/74 51/48/74
f 38/12/75 5/49/75 1/50/75 17/51/75
f 98/1/76 60/1/77 4/1/78 108/7/79
f 29/6/80 30/5/80 53/52/80 52/47/80
f 19/4/81 20/4/81 46/53/81 40/20/81
f 100/50/82 101/21/82 80/54/82 78/43/82
f 5/49/83 38/12/83 35/12/83 6/20/83
f 31/11/84 3/20/84 6/20/84
f 9/9/85 30/5/85 23/2/85 10/1/85
f 13/33/86 14/6/86 52/47/86 53/52/86
f 2/1/87 7/1/87 36/55/87 13/33/87
f 16/56/88 17/51/88 49/57/88 50/58/88
f 17/51/89 1/50/89 39/20/89 49/57/89
f 48/21/90 5/49/90 6/20/90 47/21/90
f 53/52/91 41/1/91 2/1/91 13/33/91
f 7/1/92 8/17/92 32/39/92 36/55/92
f 51/48/93 15/59/93 16/56/93 50/58/93
f 7/1/94 2/1/94 41/1/94 42/1/94
f 34/10/95 35/12/95 38/12/95 37/40/95
f 8/17/96 7/1/96 42/1/96 43/17/96
f 6/20/97 46/53/97 47/21/97
f 39/20/98 1/50/98 5/49/98 48/21/98
f 57/20/99 3/20/99 31/11/99
f 46/53/100 6/20/100 3/20/100 40/20/100
f 18/13/101 32/39/101 4/1/101
f 4/1/102 8/17/102 43/17/102 44/7/102
f 14/6/103 15/59/103 51/48/103 52/47/103
f 19/4/104 40/20/104 99/60/104 75/42/104
f 27/14/105 50/58/105 49/57/105 26/12/105
f 28/41/106 51/48/106 50/58/106 27/14/106
f 25/15/107 24/16/107 21/4/107 22/3/107
f 23/2/108 29/6/108 28/41/108 22/3/108
f 98/1/109 108/7/109 107/1/109 62/19/109
f 45/8/110 108/7/111 4/1/112
f 39/20/113 24/16/113 26/12/113 49/57/113
f 13/33/114 36/55/114 37/40/114 14/6/114
f 17/51/115 16/56/115 37/40/115 38/12/115
f 37/40/116 15/59/116 14/6/116
f 37/40/117 16/56/117 15/59/117
f 80/54/118 101/21/118 93/21/118 73/4/118
f 36/55/119 32/39/119 33/26/119 37/40/119
f 54/20/120 56/20/120 92/61/120 67/62/120
f 63/63/121 106/33/121 105/31/121 64/45/121
f 47/21/122 21/4/122 24/16/122 48/21/122
f 3/20/123 57/20/123 99/60/123 40/20/123
f 56/20/124 54/20/124 93/21/124 101/21/124
f 56/20/125 57/20/125 86/12/125 92/61/125
f 55/1/126 63/63/126 90/64/126 58/1/126
f 57/20/127 56/20/127 101/21/127 100/50/127
f 94/1/128 55/1/128 58/1/128 95/65/128
f 58/1/129 90/64/129 87/5/129 59/1/129
f 106/33/130 63/63/130 55/1/130 94/1/130
f 100/50/131 99/60/131 57/20/131
f 95/65/132 58/1/132 59/1/132 96/1/132
f 59/1/133 87/5/133 18/13/133 60/1/133
f 88/38/134 87/5/134 90/64/134 91/44/134
f 79/29/135 85/66/135 95/65/135 96/1/135
f 96/1/136 59/1/136 60/1/136 97/8/136
f 93/21/137 54/20/137 67/62/137 102/28/137
f 64/45/138 105/31/138 104/23/138 65/46/138
f 85/66/139 79/29/139 77/18/139 84/35/139
f 78/43/140 80/54/140 81/67/140 76/37/140
f 19/4/141 75/42/141 76/37/141 22/3/141
f 73/4/142 72/27/142 81/67/142 80/54/142
f 72/27/143 71/24/143 82/24/143 81/67/143
f 71/24/144 70/30/144 83/30/144 82/24/144
f 69/32/145 84/35/145 83/30/145 70/30/145
f 68/34/146 85/66/146 84/35/146 69/32/146
f 46/53/147 20/4/147 21/4/147 47/21/147
f 89/22/148 91/44/148 92/61/148 86/12/148
f 63/63/149 64/45/149 91/44/149 90/64/149
f 67/62/150 92/61/150 91/44/150 66/14/150
f 66/14/151 103/25/151 102/28/151 67/62/151
f 99/60/152 100/50/152 78/43/152 75/42/152
f 76/37/153 81/67/153 82/24/153 77/18/153
f 66/14/154 65/46/154 104/23/154 103/25/154
f 30/5/155 9/9/155 41/1/155 53/52/155
f 85/66/156 68/34/156 94/1/156 95/65/156
f 12/1/157 23/2/157 77/18/157 107/1/157
f 108/7/158 45/8/158 12/1/158 107/1/158
s 1
f 115/68/159 116/69/159 110/70/160 109/71/160
f 109/71/160 110/70/160 112/72/161 111/73/161
f 111/73/161 112/72/161 114/74/162 113/75/162
f 113/75/162 114/74/162 124/76/163 123/77/163
f 115/68/159 117/71/164 118/70/164 116/69/159
f 117/71/164 119/73/165 120/72/165 118/70/164
f 119/73/165 121/75/166 122/74/166 120/72/165
f 121/75/166 123/77/163 124/76/163 122/74/166
s 0
f 31/11/167 86/12/167 57/20/167
f 164/78/168 129/79/168 176/80/168 173/80/168
f 133/42/169 136/81/169 128/82/169 127/42/169
f 139/83/170 130/84/170 170/84/170 165/83/170
f 131/85/171 132/86/171 171/86/171 172/85/171
f 136/81/172 184/87/172 179/88/172 128/82/172
f 125/4/173 126/89/173 135/81/173 134/90/173
f 130/84/174 139/83/174 186/91/174 177/91/174
f 138/92/175 132/86/175 180/93/175 183/94/175
f 126/89/176 178/88/176 185/95/176 135/81/176
f 136/81/177 133/42/177 134/90/177 135/81/177
f 164/78/178 137/96/178 167/96/178 166/78/178
f 134/90/179 174/90/179 175/4/179 125/4/179
f 131/85/180 137/96/180 188/97/180 181/98/180
f 140/99/181 141/99/181 142/100/181 143/101/181
f 146/100/182 145/99/182 149/99/182 150/100/182
f 161/100/183 160/99/183 145/99/183 146/100/183
f 162/101/184 161/100/184 146/100/184 147/101/184
f 163/101/185 162/101/185 147/101/185 144/101/185
f 160/99/186 163/101/186 144/101/186 145/99/186
f 148/101/187 151/101/187 155/101/187 152/101/187
f 147/101/188 146/100/188 150/100/188 151/101/188
f 144/101/189 147/101/189 151/101/189 148/101/189
f 145/99/190 144/101/190 148/101/190 149/99/190
f 153/99/191 152/101/191 156/101/191 157/99/191
f 149/99/192 148/101/192 152/101/192 153/99/192
f 150/100/193 149/99/193 153/99/193 154/100/193
f 151/101/194 150/100/194 154/100/194 155/101/194
f 156/101/195 159/101/195 158/100/195 157/99/195
f 154/100/196 153/99/196 157/99/196 158/100/196
f 155/101/197 154/100/197 158/100/197 159/101/197
f 152/101/198 155/101/198 159/101/198 156/101/198
f 141/99/199 140/99/199 163/101/199 160/99/199
f 140/99/200 143/101/200 162/101/200 163/101/200
f 143/101/201 142/100/201 161/100/201 162/101/201
f 142/100/202 141/99/202 160/99/202 161/100/202
f 125/4/203 175/4/203 178/88/203 126/89/203
f 128/82/204 179/88/204 182/42/204 127/42/204
f 184/102/205 136/81/205 135/81/205 185/87/205
f 133/42/206 187/42/206 174/90/206 134/90/206
f 139/83/207 138/92/207 183/94/207 186/91/207
f 129/79/208 130/84/208 177/103/208 176/80/208
f 132/86/209 131/85/209 181/98/209 180/104/209
f 127/42/210 182/42/210 187/42/210 133/42/210
f 169/79/211 166/78/211 165/83/211 170/84/211
f 167/96/212 172/85/212 171/86/212 168/92/212
f 165/83/213 166/78/213 167/96/213 168/92/213
f 137/96/214 131/85/214 172/85/214 167/96/214
f 138/92/215 139/83/215 165/83/215 168/92/215
f 130/84/216 129/79/216 169/79/216 170/84/216
f 132/86/217 138/92/217 168/92/217 171/86/217
f 129/79/218 164/78/218 166/78/218 169/79/218
f 176/105/219 177/106/219 178/107/219 175/108/219
f 180/109/220 181/110/220 182/111/220 179/112/220
f 184/113/221 185/113/221 186/114/221 183/115/221
f 174/116/222 187/111/222 188/117/222 173/105/222
f 181/110/223 188/118/223 187/111/223 182/111/223
f 173/105/224 176/105/224 175/108/224 174/116/224
f 177/119/225 186/119/225 185/120/225 178/107/225
f 183/115/226 180/121/226 179/122/226 184/113/226
f 137/96/227 164/78/227 173/80/227 188/97/227
