# Blender 4.4.1
# www.blender.org
mtllib Chair_Body_Ac.mtl
o Chair_Body_Ac
v -0.270552 0.827157 -0.087036
v -0.269916 0.828922 0.093988
v -0.321009 0.827157 -0.087036
v -0.321644 0.828922 0.093988
v -0.277458 0.817485 0.067582
v -0.277908 0.814429 -0.060656
v -0.313653 0.814429 -0.060656
v -0.314102 0.817485 0.067582
v -0.276406 0.849474 -0.081356
v -0.267579 0.840269 -0.090592
v -0.315155 0.849474 -0.081356
v -0.323982 0.840269 -0.090591
v -0.275918 0.849268 0.088302
v -0.266869 0.840610 0.097547
v -0.315643 0.849268 0.088302
v -0.324692 0.840610 0.097547
v -0.331541 0.825146 0.036623
v -0.331541 0.825146 -0.029759
v -0.321113 0.813927 0.026944
v -0.321113 0.813927 -0.020080
v -0.260020 0.825146 0.036623
v -0.260020 0.825146 -0.029759
v -0.270448 0.813927 0.026944
v -0.270448 0.813927 -0.020080
v -0.335754 0.840924 0.037927
v -0.335754 0.840924 -0.031063
v -0.323242 0.852148 -0.027675
v -0.323242 0.852148 0.034539
v -0.268318 0.852148 0.034539
v -0.268318 0.852148 -0.027675
v -0.255807 0.840924 -0.031063
v -0.255807 0.840924 0.037927
v -0.295780 0.816096 0.073969
v -0.295780 0.825551 -0.096140
v -0.295780 0.827983 0.103004
v -0.295780 0.812138 -0.067105
v -0.295780 0.849469 0.096753
v -0.295780 0.840472 0.106918
v -0.295780 0.849775 -0.089889
v -0.295780 0.840006 -0.100054
v -0.295780 0.807608 0.026944
v -0.295780 0.807608 -0.020080
v -0.295780 0.853882 0.034539
v -0.295780 0.853882 -0.027675
v -0.301818 0.595990 -0.012171
v -0.301818 0.595990 0.019035
v -0.282393 0.599942 0.019035
v -0.282393 0.599942 -0.012171
v -0.306515 0.823720 -0.012171
v -0.306515 0.823720 0.019035
v -0.287808 0.823720 0.019035
v -0.287808 0.823720 -0.012171
v -0.298034 0.583737 -0.012171
v -0.298034 0.583737 0.019035
v -0.281107 0.593071 0.019035
v -0.281107 0.593071 -0.012171
v -0.286040 0.563783 -0.012171
v -0.286040 0.563783 0.019035
v -0.277051 0.582773 0.019035
v -0.277051 0.582773 -0.012171
v -0.266467 0.559464 -0.012171
v -0.266467 0.559464 0.019035
v -0.263193 0.578137 0.019035
v -0.263193 0.578137 -0.012171
v -0.164546 0.552953 -0.012171
v -0.164546 0.552953 0.019035
v -0.138150 0.570109 0.019035
v -0.138150 0.570109 -0.012171
v -0.307252 0.788141 -0.014584
v -0.307252 0.788141 0.021448
v -0.283052 0.788541 0.021470
v -0.283052 0.788541 -0.014606
v -0.308946 0.812113 -0.016118
v -0.308946 0.812113 0.022982
v -0.283710 0.812166 0.023057
v -0.283710 0.812166 -0.016193
v -0.283777 0.792833 0.020859
v -0.282880 0.797163 0.022695
v -0.283458 0.802478 0.022382
v -0.282687 0.807735 0.024132
v -0.282687 0.807735 -0.017268
v -0.283458 0.802478 -0.015518
v -0.282880 0.797163 -0.015831
v -0.283777 0.792833 -0.013995
v -0.306940 0.792526 0.020805
v -0.308307 0.796910 0.022689
v -0.308248 0.802311 0.022348
v -0.309547 0.807626 0.024094
v -0.309547 0.807626 -0.017230
v -0.308248 0.802311 -0.015484
v -0.308307 0.796910 -0.015825
v -0.306940 0.792526 -0.013941
v 0.270552 0.827157 -0.087036
v 0.269916 0.828922 0.093988
v 0.321009 0.827157 -0.087036
v 0.321644 0.828922 0.093988
v 0.277458 0.817485 0.067582
v 0.277908 0.814429 -0.060656
v 0.313653 0.814429 -0.060656
v 0.314102 0.817485 0.067582
v 0.276406 0.849474 -0.081356
v 0.267579 0.840269 -0.090592
v 0.315155 0.849474 -0.081356
v 0.323982 0.840269 -0.090591
v 0.275918 0.849268 0.088302
v 0.266869 0.840610 0.097547
v 0.315643 0.849268 0.088302
v 0.324692 0.840610 0.097547
v 0.331541 0.825146 0.036623
v 0.331541 0.825146 -0.029759
v 0.321113 0.813927 0.026944
v 0.321113 0.813927 -0.020080
v 0.260020 0.825146 0.036623
v 0.260020 0.825146 -0.029759
v 0.270448 0.813927 0.026944
v 0.270448 0.813927 -0.020080
v 0.335754 0.840924 0.037927
v 0.335754 0.840924 -0.031063
v 0.323242 0.852148 -0.027675
v 0.323242 0.852148 0.034539
v 0.268318 0.852148 0.034539
v 0.268318 0.852148 -0.027675
v 0.255807 0.840924 -0.031063
v 0.255807 0.840924 0.037927
v 0.295780 0.816096 0.073969
v 0.295780 0.825551 -0.096140
v 0.295780 0.827983 0.103004
v 0.295780 0.812138 -0.067105
v 0.295780 0.849469 0.096753
v 0.295780 0.840472 0.106918
v 0.295780 0.849775 -0.089889
v 0.295780 0.840006 -0.100054
v 0.295780 0.807608 0.026944
v 0.295780 0.807608 -0.020080
v 0.295780 0.853882 0.034539
v 0.295780 0.853882 -0.027675
v 0.301818 0.595990 -0.012171
v 0.301818 0.595990 0.019035
v 0.282393 0.599942 0.019035
v 0.282393 0.599942 -0.012171
v 0.306515 0.823720 -0.012171
v 0.306515 0.823720 0.019035
v 0.287808 0.823720 0.019035
v 0.287808 0.823720 -0.012171
v 0.298034 0.583737 -0.012171
v 0.298034 0.583737 0.019035
v 0.281107 0.593071 0.019035
v 0.281107 0.593071 -0.012171
v 0.286040 0.563783 -0.012171
v 0.286040 0.563783 0.019035
v 0.277051 0.582773 0.019035
v 0.277051 0.582773 -0.012171
v 0.266467 0.559464 -0.012171
v 0.266467 0.559464 0.019035
v 0.263193 0.578137 0.019035
v 0.263193 0.578137 -0.012171
v 0.164546 0.552953 -0.012171
v 0.164546 0.552953 0.019035
v 0.138150 0.570109 0.019035
v 0.138150 0.570109 -0.012171
v 0.307252 0.788141 -0.014584
v 0.307252 0.788141 0.021448
v 0.283052 0.788541 0.021470
v 0.283052 0.788541 -0.014606
v 0.308946 0.812113 -0.016118
v 0.308946 0.812113 0.022982
v 0.283710 0.812166 0.023057
v 0.283710 0.812166 -0.016193
v 0.283777 0.792833 0.020859
v 0.282880 0.797163 0.022695
v 0.283458 0.802478 0.022382
v 0.282687 0.807735 0.024132
v 0.282687 0.807735 -0.017268
v 0.283458 0.802478 -0.015518
v 0.282880 0.797163 -0.015831
v 0.283777 0.792833 -0.013995
v 0.306940 0.792526 0.020805
v 0.308307 0.796910 0.022689
v 0.308248 0.802311 0.022348
v 0.309547 0.807626 0.024094
v 0.309547 0.807626 -0.017230
v 0.308248 0.802311 -0.015484
v 0.308307 0.796910 -0.015825
v 0.306940 0.792526 -0.013941
vn 0.0546 0.9966 -0.0621
vn -0.1078 -0.9336 -0.3417
vn 0.5334 -0.8138 -0.2307
vn 0.4845 -0.8495 0.2087
vn 0.2164 -0.8925 0.3957
vn 0.9462 -0.2663 -0.1838
vn -0.2221 -0.8929 -0.3917
vn 0.3075 -0.3162 0.8975
vn -0.9433 -0.2808 0.1773
vn -0.6424 0.7544 -0.1349
vn 0.2197 0.7705 0.5984
vn 0.6424 0.7544 -0.1349
vn -0.2360 0.7462 -0.6224
vn -0.3239 -0.2798 -0.9038
vn 0.1743 -0.9159 0.3616
vn -0.6276 -0.7608 0.1652
vn 0.6790 -0.7200 -0.1433
vn 0.6276 -0.7608 0.1652
vn 0.7325 -0.6808 -0.0000
vn -0.6790 -0.7200 -0.1433
vn -0.7325 -0.6808 -0.0000
vn 0.6318 0.7649 0.1255
vn 0.6678 0.7444 -0.0000
vn -0.6318 0.7649 0.1255
vn -0.6678 0.7444 -0.0000
vn -0.9462 -0.2663 -0.1838
vn -0.9661 -0.2580 -0.0000
vn 0.9433 -0.2808 0.1773
vn 0.9661 -0.2580 -0.0000
vn -0.2761 -0.9411 0.1953
vn 0.1800 -0.9209 -0.3456
vn 0.6193 -0.7646 0.1786
vn 0.2414 -0.7620 0.6009
vn -0.0662 -0.9617 -0.2660
vn 0.2135 -0.8558 -0.4713
vn 0.6707 -0.7417 -0.0000
vn 0.2134 -0.8558 0.4713
vn 0.0526 0.9964 0.0661
vn 0.0630 0.9980 -0.0000
vn -0.0630 0.9980 -0.0000
vn -0.0526 0.9964 0.0661
vn -0.5101 -0.8179 -0.2660
vn 0.0361 -0.9542 -0.2970
vn 0.2438 -0.9698 -0.0000
vn -0.4800 -0.8255 0.2970
vn -0.6439 -0.7553 0.1222
vn 0.0589 -0.9857 -0.1581
vn 0.3031 -0.9426 0.1403
vn -0.2675 -0.7751 0.5724
vn -0.1743 -0.9159 0.3616
vn 0.3239 -0.2798 -0.9038
vn 0.2360 0.7462 -0.6224
vn -0.2197 0.7705 0.5984
vn -0.3075 -0.3162 0.8975
vn 0.2221 -0.8929 -0.3917
vn -0.4301 -0.8247 -0.3673
vn 0.0001 -0.9035 -0.4286
vn 0.0809 -0.9758 0.2031
vn -0.4567 -0.8582 0.2344
vn -0.0546 0.9966 -0.0621
vn 0.9829 0.1839 -0.0000
vn -0.0000 -0.0000 -1.0000
vn 0.9997 0.0242 -0.0000
vn -0.0000 -0.0000 1.0000
vn -0.9998 -0.0206 -0.0000
vn -0.9555 -0.2951 -0.0000
vn -0.2155 -0.9765 -0.0000
vn -0.8571 -0.5152 -0.0000
vn 0.9304 0.3665 -0.0000
vn 0.0641 0.9979 -0.0000
vn 0.3172 0.9484 -0.0000
vn 0.5450 -0.8385 -0.0000
vn -0.0638 -0.9980 -0.0000
vn 0.9744 0.2250 -0.0000
vn -0.0028 0.2382 0.9712
vn -0.0028 0.2381 -0.9712
vn -0.9911 0.1330 -0.0000
vn -0.0021 1.0000 -0.0000
vn 0.0166 -0.9999 -0.0000
vn -0.9975 0.0710 -0.0000
vn -0.9547 -0.2976 -0.0000
vn -0.9999 0.0109 -0.0000
vn -0.9714 -0.2375 -0.0000
vn -0.0037 0.1428 -0.9897
vn 0.0034 -0.3924 -0.9198
vn -0.0013 0.0609 -0.9981
vn 0.0004 -0.3140 -0.9494
vn -0.0037 0.1428 0.9897
vn 0.0034 -0.3924 0.9198
vn -0.0013 0.0609 0.9981
vn 0.0004 -0.3141 0.9494
vn 0.9860 0.1666 -0.0000
vn 0.9792 -0.2028 -0.0000
vn 0.9941 0.1080 -0.0000
vn 0.9894 -0.1450 -0.0000
vn 0.1077 -0.9336 -0.3417
vn -0.2164 -0.8925 0.3957
vn -0.4845 -0.8495 0.2087
vn -0.5333 -0.8138 -0.2308
vn 0.2761 -0.9411 0.1953
vn -0.2414 -0.7620 0.6009
vn -0.6193 -0.7646 0.1786
vn -0.1799 -0.9210 -0.3456
vn 0.0662 -0.9617 -0.2659
vn -0.2134 -0.8558 0.4713
vn -0.6707 -0.7417 -0.0000
vn -0.2135 -0.8558 -0.4713
vn 0.5101 -0.8180 -0.2659
vn 0.4800 -0.8255 0.2970
vn -0.2438 -0.9698 -0.0000
vn -0.0361 -0.9542 -0.2970
vn 0.6439 -0.7553 0.1222
vn 0.2675 -0.7751 0.5724
vn -0.3031 -0.9426 0.1402
vn -0.0589 -0.9857 -0.1581
vn 0.4300 -0.8247 -0.3673
vn 0.4567 -0.8582 0.2343
vn -0.0809 -0.9758 0.2030
vn -0.0001 -0.9035 -0.4285
vn -0.9829 0.1839 -0.0000
vn -0.9997 0.0242 -0.0000
vn 0.9998 -0.0206 -0.0000
vn 0.9555 -0.2951 -0.0000
vn 0.2155 -0.9765 -0.0000
vn 0.8571 -0.5152 -0.0000
vn -0.9304 0.3665 -0.0000
vn -0.0641 0.9979 -0.0000
vn -0.3172 0.9484 -0.0000
vn -0.5450 -0.8385 -0.0000
vn 0.0638 -0.9980 -0.0000
vn -0.9744 0.2250 -0.0000
vn 0.0028 0.2382 0.9712
vn 0.0028 0.2381 -0.9712
vn 0.9911 0.1329 -0.0000
vn 0.0021 1.0000 -0.0000
vn -0.0166 -0.9999 -0.0000
vn 0.9975 0.0710 -0.0000
vn 0.9547 -0.2976 -0.0000
vn 0.9999 0.0109 -0.0000
vn 0.9714 -0.2375 -0.0000
vn 0.0037 0.1428 -0.9897
vn -0.0034 -0.3924 -0.9198
vn 0.0013 0.0609 -0.9981
vn -0.0004 -0.3140 -0.9494
vn 0.0037 0.1428 0.9897
vn -0.0034 -0.3924 0.9198
vn 0.0013 0.0609 0.9981
vn -0.0004 -0.3141 0.9494
vn -0.9860 0.1666 -0.0000
vn -0.9792 -0.2028 -0.0000
vn -0.9941 0.1080 -0.0000
vn -0.9894 -0.1450 -0.0000
vt 0.801529 0.792899
vt 0.806556 0.792899
vt 0.806556 0.795280
vt 0.801529 0.795659
vt 0.801529 0.793087
vt 0.801529 0.796222
vt 0.809346 0.795792
vt 0.809346 0.793087
vt 0.809346 0.793087
vt 0.809346 0.793087
vt 0.809346 0.795792
vt 0.809426 0.795835
vt 0.801529 0.796222
vt 0.793712 0.795792
vt 0.793712 0.795792
vt 0.801529 0.786817
vt 0.801529 0.786817
vt 0.809346 0.787243
vt 0.809445 0.787205
vt 0.793712 0.789952
vt 0.793712 0.789952
vt 0.793712 0.787243
vt 0.793613 0.787205
vt 0.793712 0.793087
vt 0.796502 0.792899
vt 0.796502 0.795280
vt 0.793632 0.795836
vt 0.801529 0.787381
vt 0.806556 0.787755
vt 0.801529 0.796222
vt 0.801529 0.786817
vt 0.809346 0.787243
vt 0.793712 0.789952
vt 0.793712 0.787243
vt 0.809346 0.789952
vt 0.809346 0.789952
vt 0.793712 0.793087
vt 0.793712 0.793087
vt 0.809346 0.789952
vt 0.806556 0.790140
vt 0.796502 0.787755
vt 0.796502 0.790140
vt 0.801529 0.789952
vt 0.801529 0.790140
vt 0.230647 0.889899
vt 0.230647 0.887140
vt 0.230647 0.887140
vt 0.225620 0.889899
vt 0.230647 0.889899
vt 0.225620 0.889899
vt 0.230647 0.889899
vt 0.225620 0.887140
vt 0.225620 0.887140
vt 0.225620 0.887140
vt 0.225620 0.887140
vt 0.230647 0.887140
vt 0.230647 0.887140
vt 0.123810 0.956952
vt 0.123810 0.954192
vt 0.118783 0.954192
vt 0.118783 0.956951
vt 0.118783 0.954192
vt 0.123810 0.956951
vt 0.123810 0.956951
s 0
usemtl Palette
f 44/1/1 30/2/1 9/3/1 39/4/1
f 42/5/2 36/6/3 6/7/4 24/8/5
f 31/9/6 22/10/6 1/11/6 10/12/6
f 34/13/7 36/6/7 7/14/7 3/15/7
f 38/16/8 35/17/8 2/18/8 14/19/8
f 25/20/9 17/21/9 4/22/9 16/23/9
f 26/24/10 27/25/10 11/26/10 12/27/10
f 37/28/11 38/16/11 14/19/11 13/29/11
f 30/2/12 31/9/12 10/12/12 9/3/12
f 39/4/13 40/30/13 12/27/13 11/26/13
f 40/30/14 34/13/14 3/15/14 12/27/14
f 35/17/15 33/31/15 5/32/15 2/18/15
f 17/21/16 19/33/16 8/34/16 4/22/16
f 22/10/17 24/8/17 6/7/17 1/11/17
f 2/18/18 5/32/18 23/35/18 21/36/18
f 21/36/19 23/35/19 24/8/19 22/10/19
f 3/15/20 7/14/20 20/37/20 18/38/20
f 18/38/21 20/37/21 19/33/21 17/21/21
f 13/29/22 14/19/22 32/39/22 29/40/22
f 29/40/23 32/39/23 31/9/23 30/2/23
f 16/23/24 15/41/24 28/42/24 25/20/24
f 25/20/25 28/42/25 27/25/25 26/24/25
f 12/27/26 3/15/26 18/38/26 26/24/26
f 26/24/27 18/38/27 17/21/27 25/20/27
f 14/19/28 2/18/28 21/36/28 32/39/28
f 32/39/29 21/36/29 22/10/29 31/9/29
f 33/31/30 41/43/31 23/35/32 5/32/33
f 41/43/34 42/5/35 24/8/36 23/35/37
f 37/28/38 13/29/38 29/40/38 43/44/38
f 43/44/39 29/40/39 30/2/39 44/1/39
f 28/42/40 43/44/40 44/1/40 27/25/40
f 15/41/41 37/28/41 43/44/41 28/42/41
f 19/33/42 20/37/43 42/5/44 41/43/45
f 8/34/46 19/33/47 41/43/48 33/31/49
f 4/22/50 8/34/50 33/31/50 35/17/50
f 10/12/51 1/11/51 34/13/51 40/30/51
f 9/3/52 10/12/52 40/30/52 39/4/52
f 15/41/53 16/23/53 38/16/53 37/28/53
f 16/23/54 4/22/54 35/17/54 38/16/54
f 1/11/55 6/7/55 36/6/55 34/13/55
f 20/37/56 7/14/57 36/6/58 42/5/59
f 27/25/60 44/1/60 39/4/60 11/26/60
f 48/45/61 47/46/61 55/47/61 56/45/61
f 53/48/62 56/45/62 60/49/62 57/50/62
f 48/45/63 52/51/63 51/47/63 47/46/63
f 47/46/64 51/47/64 50/52/64 46/53/64
f 45/50/62 49/50/62 52/51/62 48/45/62
f 46/53/65 50/52/65 49/50/65 45/50/65
f 47/46/64 46/53/64 54/53/64 55/47/64
f 45/50/62 48/45/62 56/45/62 53/48/62
f 46/53/66 45/50/66 53/48/66 54/53/66
f 58/54/67 57/50/67 61/48/67 62/55/67
f 54/53/68 53/48/68 57/50/68 58/54/68
f 56/45/69 55/47/69 59/56/69 60/49/69
f 55/47/64 54/53/64 58/54/64 59/56/64
f 64/51/70 63/47/70 67/57/70 68/45/70
f 60/49/71 59/56/71 63/47/71 64/51/71
f 59/56/64 58/54/64 62/55/64 63/47/64
f 57/50/62 60/49/62 64/51/62 61/48/62
f 66/52/72 65/48/72 68/45/72 67/57/72
f 63/47/64 62/55/64 66/52/64 67/57/64
f 61/48/62 64/51/62 68/45/62 65/48/62
f 62/55/73 61/48/73 65/48/73 66/52/73
f 81/58/74 76/58/74 75/59/74 80/59/74
f 80/59/75 75/59/75 74/60/75 88/60/75
f 89/61/76 73/61/76 76/58/76 81/58/76
f 88/60/77 74/60/77 73/61/77 89/61/77
f 73/61/78 74/60/78 75/59/78 76/58/78
f 70/62/79 69/61/79 72/63/79 71/59/79
f 70/62/80 85/60/80 92/61/80 69/61/80
f 85/60/81 86/60/81 91/61/81 92/61/81
f 86/60/82 87/60/82 90/61/82 91/61/82
f 87/60/83 88/60/83 89/61/83 90/61/83
f 69/61/84 92/61/84 84/64/84 72/63/84
f 92/61/85 91/61/85 83/64/85 84/64/85
f 91/61/86 90/61/86 82/58/86 83/64/86
f 90/61/87 89/61/87 81/58/87 82/58/87
f 71/59/88 77/59/88 85/60/88 70/62/88
f 77/59/89 78/59/89 86/60/89 85/60/89
f 78/59/90 79/59/90 87/60/90 86/60/90
f 79/59/91 80/59/91 88/60/91 87/60/91
f 72/63/92 84/64/92 77/59/92 71/59/92
f 84/64/93 83/64/93 78/59/93 77/59/93
f 83/64/94 82/58/94 79/59/94 78/59/94
f 82/58/95 81/58/95 80/59/95 79/59/95
f 136/1/60 131/4/60 101/3/60 122/2/60
f 134/5/96 116/8/97 98/7/98 128/6/99
f 123/9/26 102/12/26 93/11/26 114/10/26
f 126/13/55 95/15/55 99/14/55 128/6/55
f 130/16/54 106/19/54 94/18/54 127/17/54
f 117/20/28 108/23/28 96/22/28 109/21/28
f 118/24/12 104/27/12 103/26/12 119/25/12
f 129/28/53 105/29/53 106/19/53 130/16/53
f 122/2/10 101/3/10 102/12/10 123/9/10
f 131/4/52 103/26/52 104/27/52 132/30/52
f 132/30/51 104/27/51 95/15/51 126/13/51
f 127/17/50 94/18/50 97/32/50 125/31/50
f 109/21/18 96/22/18 100/34/18 111/33/18
f 114/10/20 93/11/20 98/7/20 116/8/20
f 94/18/16 113/36/16 115/35/16 97/32/16
f 113/36/21 114/10/21 116/8/21 115/35/21
f 95/15/17 110/38/17 112/37/17 99/14/17
f 110/38/19 109/21/19 111/33/19 112/37/19
f 105/29/24 121/40/24 124/39/24 106/19/24
f 121/40/25 122/2/25 123/9/25 124/39/25
f 108/23/22 117/20/22 120/42/22 107/41/22
f 117/20/23 118/24/23 119/25/23 120/42/23
f 104/27/6 118/24/6 110/38/6 95/15/6
f 118/24/29 117/20/29 109/21/29 110/38/29
f 106/19/9 124/39/9 113/36/9 94/18/9
f 124/39/27 123/9/27 114/10/27 113/36/27
f 125/31/100 97/32/101 115/35/102 133/43/103
f 133/43/104 115/35/105 116/8/106 134/5/107
f 129/28/41 135/44/41 121/40/41 105/29/41
f 135/44/40 136/1/40 122/2/40 121/40/40
f 120/42/39 119/25/39 136/1/39 135/44/39
f 107/41/38 120/42/38 135/44/38 129/28/38
f 111/33/108 133/43/109 134/5/110 112/37/111
f 100/34/112 125/31/113 133/43/114 111/33/115
f 96/22/15 127/17/15 125/31/15 100/34/15
f 102/12/14 132/30/14 126/13/14 93/11/14
f 101/3/13 131/4/13 132/30/13 102/12/13
f 107/41/11 129/28/11 130/16/11 108/23/11
f 108/23/8 130/16/8 127/17/8 96/22/8
f 93/11/7 126/13/7 128/6/7 98/7/7
f 112/37/116 134/5/117 128/6/118 99/14/119
f 119/25/1 103/26/1 131/4/1 136/1/1
f 140/45/120 148/45/120 147/47/120 139/46/120
f 145/48/62 149/50/62 152/49/62 148/45/62
f 140/45/121 139/46/121 143/47/121 144/51/121
f 139/46/64 138/53/64 142/52/64 143/47/64
f 137/50/62 140/45/62 144/51/62 141/50/62
f 138/53/122 137/50/122 141/50/122 142/52/122
f 139/46/64 147/47/64 146/53/64 138/53/64
f 137/50/62 145/48/62 148/45/62 140/45/62
f 138/53/123 146/53/123 145/48/123 137/50/123
f 150/54/124 154/55/124 153/48/124 149/50/124
f 146/53/125 150/54/125 149/50/125 145/48/125
f 148/45/126 152/49/126 151/56/126 147/47/126
f 147/47/64 151/56/64 150/54/64 146/53/64
f 156/51/127 160/45/127 159/57/127 155/47/127
f 152/49/128 156/51/128 155/47/128 151/56/128
f 151/56/64 155/47/64 154/55/64 150/54/64
f 149/50/62 153/48/62 156/51/62 152/49/62
f 158/52/129 159/57/129 160/45/129 157/48/129
f 155/47/64 159/57/64 158/52/64 154/55/64
f 153/48/62 157/48/62 160/45/62 156/51/62
f 154/55/130 158/52/130 157/48/130 153/48/130
f 173/58/131 172/59/131 167/59/131 168/58/131
f 172/59/132 180/60/132 166/60/132 167/59/132
f 181/61/133 173/58/133 168/58/133 165/61/133
f 180/60/134 181/61/134 165/61/134 166/60/134
f 165/61/135 168/58/135 167/59/135 166/60/135
f 162/62/136 163/59/136 164/63/136 161/61/136
f 162/62/137 161/61/137 184/61/137 177/60/137
f 177/60/138 184/61/138 183/61/138 178/60/138
f 178/60/139 183/61/139 182/61/139 179/60/139
f 179/60/140 182/61/140 181/61/140 180/60/140
f 161/61/141 164/63/141 176/64/141 184/61/141
f 184/61/142 176/64/142 175/64/142 183/61/142
f 183/61/143 175/64/143 174/58/143 182/61/143
f 182/61/144 174/58/144 173/58/144 181/61/144
f 163/59/145 162/62/145 177/60/145 169/59/145
f 169/59/146 177/60/146 178/60/146 170/59/146
f 170/59/147 178/60/147 179/60/147 171/59/147
f 171/59/148 179/60/148 180/60/148 172/59/148
f 164/63/149 163/59/149 169/59/149 176/64/149
f 176/64/150 169/59/150 170/59/150 175/64/150
f 175/64/151 170/59/151 171/59/151 174/58/151
f 174/58/152 171/59/152 172/59/152 173/58/152
