# Blender 4.4.1
# www.blender.org
mtllib Counter_Door_1.mtl
o Counter_Door_1
v 0.952023 0.829172 -0.016756
v 0.952023 -0.001741 -0.016756
v 0.006447 -0.001741 -0.016756
v 0.006447 0.829172 -0.016756
v 0.097597 0.089409 0.024792
v 0.860873 0.089409 0.024792
v 0.887044 0.580682 0.018197
v 0.887044 0.814902 0.018197
v 0.914449 0.814902 0.018197
v 0.914449 0.580682 0.018197
v 0.914449 0.814902 0.057260
v 0.914449 0.580682 0.057260
v 0.887044 0.814902 0.046171
v 0.887044 0.580682 0.046171
v 0.097597 0.738021 0.024792
v 0.860873 0.738021 0.024792
v 0.952023 -0.001741 0.024792
v 0.006447 -0.001741 0.024792
v 0.006447 0.829172 0.024792
v 0.952023 0.829172 0.024792
v 0.684956 0.158529 0.005683
v 0.273514 0.158529 0.005683
v 0.273514 0.668901 0.005683
v 0.684956 0.668901 0.005683
v 0.860873 0.089409 0.005683
v 0.097597 0.089409 0.005683
v 0.097597 0.738021 0.005683
v 0.860873 0.738021 0.005683
v 0.684956 0.158529 0.024792
v 0.273514 0.158529 0.024792
v 0.273514 0.668901 0.024792
v 0.684956 0.668901 0.024792
vn -0.0000 -1.0000 -0.0000
vn -0.0000 1.0000 -0.0000
vn -0.0000 -0.0000 -1.0000
vn 1.0000 -0.0000 -0.0000
vn -1.0000 -0.0000 -0.0000
vn -0.3751 -0.0000 0.9270
vn -0.0000 -0.0000 1.0000
vt 0.285500 0.890173
vt 0.285500 0.883734
vt 0.299401 0.883734
vt 0.299401 0.890173
vt 0.203158 0.874892
vt 0.189257 0.874892
vt 0.189257 0.868453
vt 0.203158 0.868453
vt 0.287350 0.889340
vt 0.298201 0.889340
vt 0.287025 0.889552
vt 0.287025 0.884355
vt 0.297876 0.884355
vt 0.297876 0.889552
vt 0.286433 0.869313
vt 0.286433 0.866965
vt 0.298201 0.884143
vt 0.287350 0.884142
vt 0.294659 0.867458
vt 0.294659 0.865110
vt 0.291159 0.863685
vt 0.291159 0.868883
vt 0.298509 0.865110
vt 0.298509 0.867458
vt 0.302010 0.868883
vt 0.302010 0.863686
vt 0.282583 0.866965
vt 0.282583 0.869313
s 0
usemtl Palette
f 17/1/1 18/2/1 3/2/1 2/1/1
f 19/3/2 20/4/2 1/4/2 4/3/2
f 1/4/3 2/1/3 3/2/3 4/3/3
f 11/5/4 12/6/4 10/6/4 9/5/4
f 12/6/1 14/7/1 7/7/1 10/6/1
f 13/8/2 11/5/2 9/5/2 8/8/2
f 14/7/5 13/8/5 8/8/5 7/7/5
f 14/7/6 12/6/6 11/5/6 13/8/6
f 18/2/5 19/3/5 4/3/5 3/2/5
f 2/1/4 1/4/4 20/4/4 17/1/4
f 6/9/5 16/10/5 28/10/5 25/9/5
f 6/11/7 5/12/7 18/2/7 17/1/7
f 15/13/7 16/14/7 20/4/7 19/3/7
f 5/12/7 15/13/7 19/3/7 18/2/7
f 16/14/7 6/11/7 17/1/7 20/4/7
f 24/15/2 23/16/2 31/16/2 32/15/2
f 16/10/1 15/17/1 27/17/1 28/10/1
f 15/17/4 5/18/4 26/18/4 27/17/4
f 5/18/2 6/9/2 25/9/2 26/18/2
f 21/19/7 22/20/7 26/21/7 25/22/7
f 23/23/7 24/24/7 28/25/7 27/26/7
f 22/20/7 23/23/7 27/26/7 26/21/7
f 24/24/7 21/19/7 25/22/7 28/25/7
f 29/19/7 32/24/7 31/23/7 30/20/7
f 23/16/5 22/27/5 30/27/5 31/16/5
f 22/27/1 21/28/1 29/28/1 30/27/1
f 21/28/4 24/15/4 32/15/4 29/28/4
