# Blender 4.4.1
# www.blender.org
mtllib Counter_1.mtl
o Counter_1
v 0.458973 0.878906 0.240118
v 0.458973 0.878906 -0.234318
v 0.500001 0.878906 0.240118
v 0.500001 0.878906 -0.391359
v 0.500001 0.000000 -0.391360
v 0.500001 0.000000 0.240118
v 0.458973 0.000000 -0.234318
v 0.458973 0.000000 0.240118
v 0.476287 0.033393 -0.244927
v 0.476287 0.033393 0.235833
v 0.476287 0.074008 -0.244927
v 0.476287 0.074008 0.235833
v 0.500000 0.878906 -0.397169
v 0.500000 0.878906 0.262319
v 0.500000 0.949037 -0.397169
v 0.500000 0.949037 0.262319
v 0.349184 0.921175 0.255986
v 0.349184 0.940302 0.255986
v 0.284619 0.921175 0.255986
v 0.284619 0.940302 0.255986
v 0.349184 0.921175 0.272536
v 0.284619 0.921175 0.272536
v 0.284619 0.940302 0.272536
v 0.349184 0.940302 0.272536
v -0.458973 0.878906 0.240118
v -0.458973 0.878906 -0.234318
v -0.500001 0.878906 0.240118
v -0.500001 0.878906 -0.391359
v -0.500001 0.000000 -0.391360
v -0.500001 0.000000 0.240118
v -0.458973 0.000000 -0.234318
v -0.458973 0.000000 0.240118
v -0.476287 0.033393 -0.244927
v -0.476287 0.033393 0.235833
v -0.476287 0.074008 -0.244927
v -0.476287 0.074008 0.235833
v -0.500000 0.878906 -0.397169
v -0.500000 0.878906 0.262319
v -0.500000 0.949037 -0.397169
v -0.500000 0.949037 0.262319
v -0.349184 0.921175 0.255986
v -0.349184 0.940302 0.255986
v -0.284619 0.921175 0.255986
v -0.284619 0.940302 0.255986
v -0.349184 0.921175 0.272536
v -0.284619 0.921175 0.272536
v -0.284619 0.940302 0.272536
v -0.349184 0.940302 0.272536
vn -0.0000 -0.0000 1.0000
vn -1.0000 -0.0000 -0.0000
vn -0.0000 -1.0000 -0.0000
vn 1.0000 -0.0000 -0.0000
vn -0.0000 1.0000 -0.0000
vn -0.0000 -0.0000 -1.0000
vt 0.284380 0.880506
vt 0.284380 0.881214
vt 0.284380 0.863753
vt 0.301880 0.866252
vt 0.301880 0.865545
vt 0.284380 0.863045
vt 0.221677 0.896244
vt 0.221677 0.895536
vt 0.301880 0.883714
vt 0.301880 0.883006
vt 0.292520 0.872345
vt 0.292520 0.873052
vt 0.304166 0.869193
vt 0.304166 0.865444
s 0
usemtl Palette
f 8/1/1 6/2/1 3/2/1 1/1/1
f 7/3/2 8/1/2 1/1/2 2/3/2
f 7/4/3 31/4/3 29/5/3 5/5/3
f 6/2/4 5/6/4 4/6/4 3/2/4
f 10/7/3 34/7/3 33/8/3 9/8/3
f 7/4/3 5/5/3 6/9/3 8/10/3
f 11/8/5 35/8/5 36/7/5 12/7/5
f 34/7/1 10/7/1 12/7/1 36/7/1
f 15/11/5 39/11/5 40/12/5 16/12/5
f 37/11/6 39/11/6 15/11/6 13/11/6
f 14/12/4 13/11/4 15/11/4 16/12/4
f 38/12/1 14/12/1 16/12/1 40/12/1
f 29/6/6 28/6/6 4/6/6 5/6/6
f 21/13/1 24/13/1 23/14/1 22/14/1
f 17/13/4 18/13/4 24/13/4 21/13/4
f 19/14/3 17/13/3 21/13/3 22/14/3
f 20/14/2 19/14/2 22/14/2 23/14/2
f 18/13/5 20/14/5 23/14/5 24/13/5
f 32/1/1 25/1/1 27/2/1 30/2/1
f 31/3/4 26/3/4 25/1/4 32/1/4
f 30/2/2 27/2/2 28/6/2 29/6/2
f 31/4/3 32/10/3 30/9/3 29/5/3
f 38/12/2 40/12/2 39/11/2 37/11/2
f 45/13/1 46/14/1 47/14/1 48/13/1
f 41/13/2 45/13/2 48/13/2 42/13/2
f 43/14/3 46/14/3 45/13/3 41/13/3
f 44/14/4 47/14/4 46/14/4 43/14/4
f 42/13/5 48/13/5 47/14/5 44/14/5
f 14/12/3 38/12/3 37/11/3 13/11/3
f 2/3/1 26/3/1 31/3/1 7/3/1
