# Blender 4.4.1
# www.blender.org
mtllib Deco.mtl
o Deco
v 0.030420 0.038676 -0.030420
v 0.030420 0.038676 0.030420
v -0.030420 0.038676 0.030420
v -0.030420 0.038676 -0.030420
v -0.033169 -0.001170 0.033169
v 0.033169 -0.001170 0.033169
v -0.033169 -0.001170 -0.033169
v 0.033169 -0.001170 -0.033169
v -0.003358 0.033981 0.001670
v -0.017063 0.033981 -0.001600
v -0.013792 0.033981 -0.015305
v -0.000088 0.033981 -0.012034
v 0.024931 0.034708 -0.024931
v -0.024931 0.034708 -0.024931
v -0.024931 0.034708 0.024931
v 0.024931 0.034708 0.024931
v 0.036544 0.038676 -0.036544
v 0.039893 0.034639 -0.039893
v -0.039893 0.034639 -0.039893
v -0.036544 0.038676 -0.036544
v -0.036544 0.038676 0.036544
v -0.039893 0.034639 0.039893
v 0.039893 0.034639 0.039893
v 0.036544 0.038676 0.036544
v -0.017063 0.082369 -0.001600
v -0.003358 0.082369 0.001670
v -0.013792 0.082369 -0.015305
v -0.000088 0.082369 -0.012034
v 0.019039 0.033981 0.019207
v 0.005015 0.033981 0.020559
v 0.003662 0.033981 0.006535
v 0.017686 0.033981 0.005182
v 0.005015 0.065837 0.020559
v 0.019039 0.065837 0.019207
v 0.003662 0.065837 0.006535
v 0.017686 0.065837 0.005182
v 0.007460 0.064506 0.017592
v 0.016072 0.064506 0.016762
v 0.006629 0.064506 0.008980
v 0.015241 0.064506 0.008150
v 0.007460 0.097982 0.017592
v 0.016072 0.097982 0.016762
v 0.015241 0.097982 0.008150
v 0.006629 0.097982 0.008980
v -0.014218 0.088636 -0.003349
v -0.005107 0.088636 -0.001175
v -0.012044 0.088636 -0.012460
v -0.002933 0.088636 -0.010286
v -0.014218 0.079501 -0.003349
v -0.005107 0.079501 -0.001175
v -0.002933 0.079501 -0.010286
v -0.012044 0.079501 -0.012460
vn 0.5858 0.8104 -0.0000
vn -0.0000 -1.0000 -0.0000
vn -0.0000 1.0000 -0.0000
vn -0.0000 -0.1846 -0.9828
vn 0.9828 -0.1846 -0.0000
vn -0.0000 -0.1846 0.9828
vn -0.9828 -0.1846 -0.0000
vn -0.0000 0.8104 -0.5858
vn -0.5858 0.8104 -0.0000
vn -0.0000 0.8104 0.5858
vn -0.0000 0.6385 -0.7696
vn -0.0000 0.6385 0.7696
vn 0.7696 0.6385 -0.0000
vn -0.7696 0.6385 -0.0000
vn -0.2321 -0.0000 0.9727
vn 0.9727 -0.0000 0.2321
vn -0.9727 -0.0000 -0.2321
vn 0.2321 -0.0000 -0.9727
vn 0.0960 -0.0000 0.9954
vn 0.9954 -0.0000 -0.0960
vn -0.9954 -0.0000 0.0960
vn -0.0960 -0.0000 -0.9954
vt 0.861795 0.813451
vt 0.861795 0.776035
vt 0.937586 0.767139
vt 0.937586 0.817139
vt 0.987586 0.817139
vt 0.987586 0.767139
vt 0.981294 0.810847
vt 0.981294 0.773431
vt 0.985060 0.769665
vt 0.985060 0.814613
vt 0.768066 0.853504
vt 0.805482 0.853504
vt 0.805482 0.890920
vt 0.768066 0.890920
vt 0.987586 0.817139
vt 0.943878 0.773431
vt 0.940112 0.769665
vt 0.985060 0.769665
vt 0.987586 0.767139
vt 0.943878 0.810847
vt 0.940112 0.814613
vt 0.941331 0.860422
vt 0.978747 0.860422
vt 0.978747 0.897838
vt 0.941331 0.897838
vt 0.899211 0.776035
vt 0.899211 0.813451
vt 0.940112 0.814613
vt 0.985060 0.814613
s 0
usemtl Palette
f 4/1/1 3/2/1 15/2/1 14/1/1
f 5/3/2 7/4/2 8/5/2 6/6/2
f 1/7/3 2/8/3 24/9/3 17/10/3
f 33/11/3 34/12/3 36/13/3 35/14/3
f 8/5/4 7/4/4 19/4/4 18/15/4
f 2/8/3 3/16/3 21/17/3 24/18/3
f 6/6/5 8/5/5 18/5/5 23/19/5
f 5/3/6 6/6/6 23/6/6 22/3/6
f 3/16/3 4/20/3 20/21/3 21/17/3
f 7/4/7 5/3/7 22/3/7 19/4/7
f 15/22/3 16/23/3 13/24/3 14/25/3
f 3/2/8 2/26/8 16/26/8 15/2/8
f 2/26/9 1/27/9 13/27/9 16/26/9
f 1/27/10 4/1/10 14/1/10 13/27/10
f 18/15/11 19/4/11 20/28/11 17/29/11
f 22/3/12 23/6/12 24/18/12 21/17/12
f 23/19/13 18/5/13 17/10/13 24/9/13
f 19/4/14 22/3/14 21/17/14 20/21/14
f 4/20/3 1/7/3 17/29/3 20/28/3
f 25/11/3 26/12/3 28/13/3 27/14/3
f 10/11/15 9/12/15 26/12/15 25/11/15
f 9/12/16 12/13/16 28/13/16 26/12/16
f 11/14/17 10/11/17 25/11/17 27/14/17
f 12/13/18 11/14/18 27/14/18 28/13/18
f 30/11/19 29/12/19 34/12/19 33/11/19
f 29/12/20 32/13/20 36/13/20 34/12/20
f 31/14/21 30/11/21 33/11/21 35/14/21
f 32/13/22 31/14/22 35/14/22 36/13/22
f 41/11/3 42/12/3 43/13/3 44/14/3
f 38/12/20 40/13/20 43/13/20 42/12/20
f 40/13/22 39/14/22 44/14/22 43/13/22
f 37/11/19 38/12/19 42/12/19 41/11/19
f 39/14/21 37/11/21 41/11/21 44/14/21
f 45/11/3 46/12/3 48/13/3 47/14/3
f 48/13/18 51/13/18 52/14/18 47/14/18
f 45/11/15 49/11/15 50/12/15 46/12/15
f 47/14/17 52/14/17 49/11/17 45/11/17
f 46/12/16 50/12/16 51/13/16 48/13/16
