# Blender 4.4.1
# www.blender.org
mtllib Desk.mtl
o Desk
v 0.702979 -0.001885 0.286004
v 0.702979 0.925507 -0.234287
v 0.702979 -0.001885 0.197118
v 0.702979 0.925507 -0.323174
v 0.747315 -0.001885 0.286004
v 0.747315 0.925507 -0.234287
v 0.747315 -0.001885 0.197118
v 0.747315 0.925507 -0.323174
v 0.655933 -0.001885 -0.323174
v 0.655933 0.925507 0.197118
v 0.655933 -0.001885 -0.234287
v 0.655933 0.925507 0.286004
v 0.700268 -0.001885 -0.323174
v 0.700268 0.925507 0.197118
v 0.700268 -0.001885 -0.234287
v 0.700268 0.925507 0.286004
v 0.663503 0.827838 0.202409
v 0.663503 0.827838 0.165217
v 0.663503 0.808295 0.202409
v 0.663503 0.808295 0.165217
v -0.702979 -0.001885 0.286004
v -0.702979 0.925507 -0.234287
v -0.702979 -0.001885 0.197118
v -0.702979 0.925507 -0.323174
v -0.747315 -0.001885 0.286004
v -0.747315 0.925507 -0.234287
v -0.747315 -0.001885 0.197118
v -0.747315 0.925507 -0.323174
v -0.655933 -0.001885 -0.323174
v -0.655933 0.925507 0.197118
v -0.655933 -0.001885 -0.234287
v -0.655933 0.925507 0.286004
v -0.700268 -0.001885 -0.323174
v -0.700268 0.925507 0.197118
v -0.700268 -0.001885 -0.234287
v -0.700268 0.925507 0.286004
v -0.663503 0.827838 0.202409
v -0.663503 0.827838 0.165217
v -0.663503 0.808295 0.202409
v -0.663503 0.808295 0.165217
v 0.782021 0.949037 0.364393
v 0.782021 0.921748 0.364393
v -0.782021 0.949037 0.364393
v -0.782021 0.921748 0.364393
v 0.782021 0.949037 -0.385607
v 0.782021 0.921748 -0.385607
v -0.782021 0.949037 -0.385607
v -0.782021 0.921748 -0.385607
vn -1.0000 -0.0000 -0.0000
vn -0.0000 -0.4893 -0.8721
vn 1.0000 -0.0000 -0.0000
vn -0.0000 0.4893 0.8721
vn -0.0000 -1.0000 -0.0000
vn -0.0000 -0.4893 0.8721
vn -0.0000 0.4893 -0.8721
vn -0.0000 1.0000 -0.0000
vn -0.0000 -0.0000 -1.0000
vn -0.0000 -0.0000 1.0000
vt 0.706398 0.940867
vt 0.717475 0.940867
vt 0.717475 0.951944
vt 0.706398 0.951944
vt 0.717475 0.963021
vt 0.706398 0.963021
vt 0.717475 0.974098
vt 0.706398 0.974098
vt 0.717475 0.985175
vt 0.706398 0.985175
vt 0.695321 0.963021
vt 0.695321 0.974098
vt 0.203667 0.870263
vt 0.475189 0.958674
vt 0.464112 0.958674
s 0
usemtl Palette
f 1/1/1 2/2/1 4/3/1 3/4/1
f 3/4/2 4/3/2 8/5/2 7/6/2
f 7/6/3 8/5/3 6/7/3 5/8/3
f 5/8/4 6/7/4 2/9/4 1/10/4
f 3/11/5 7/6/5 5/8/5 1/12/5
f 9/1/1 11/4/1 12/3/1 10/2/1
f 11/4/6 15/6/6 16/5/6 12/3/6
f 15/6/3 13/8/3 14/7/3 16/5/3
f 13/8/7 9/10/7 10/9/7 14/7/7
f 11/11/5 9/12/5 13/8/5 15/6/5
f 12/3/8 16/5/8 14/7/8 10/9/8
f 2/9/8 6/7/8 8/5/8 4/3/8
f 40/13/5 20/13/5 19/13/5 39/13/5
f 20/13/9 40/13/9 38/13/9 18/13/9
f 37/13/10 39/13/10 19/13/10 17/13/10
f 21/1/3 23/4/3 24/3/3 22/2/3
f 23/4/2 27/6/2 28/5/2 24/3/2
f 27/6/1 25/8/1 26/7/1 28/5/1
f 25/8/4 21/10/4 22/9/4 26/7/4
f 23/11/5 21/12/5 25/8/5 27/6/5
f 29/1/3 30/2/3 32/3/3 31/4/3
f 31/4/6 32/3/6 36/5/6 35/6/6
f 35/6/1 36/5/1 34/7/1 33/8/1
f 33/8/7 34/7/7 30/9/7 29/10/7
f 31/11/5 35/6/5 33/8/5 29/12/5
f 32/3/8 30/9/8 34/7/8 36/5/8
f 22/9/8 24/3/8 28/5/8 26/7/8
f 43/14/8 41/14/8 45/14/8 47/14/8
f 44/15/10 42/15/10 41/14/10 43/14/10
f 42/15/3 46/15/3 45/14/3 41/14/3
f 48/15/9 47/14/9 45/14/9 46/15/9
f 43/14/1 47/14/1 48/15/1 44/15/1
f 46/15/5 42/15/5 44/15/5 48/15/5
f 38/13/8 37/13/8 17/13/8 18/13/8
