# Blender 4.4.1
# www.blender.org
mtllib Desk_2.mtl
o Desk_2
v -0.726937 0.827838 0.316241
v -0.726937 0.827838 0.279049
v -0.726937 0.808295 0.316241
v -0.726937 0.808295 0.279049
v -0.782021 0.949037 0.364393
v -0.782021 0.921748 0.364393
v -0.782021 0.949037 -0.385607
v -0.782021 0.921748 -0.385607
v -0.720247 -0.001885 0.331945
v -0.720247 0.925507 0.331945
v -0.766661 -0.001885 0.331945
v -0.766661 0.925507 0.331945
v -0.720247 -0.001885 0.268055
v -0.720247 0.925507 0.268055
v -0.766661 0.925507 0.268055
v -0.766661 -0.001885 0.268055
v -0.720247 -0.001885 -0.268055
v -0.720247 0.925507 -0.268055
v -0.766661 -0.001885 -0.268055
v -0.766661 0.925507 -0.268055
v -0.720247 -0.001885 -0.331945
v -0.720247 0.925507 -0.331945
v -0.766661 0.925507 -0.331945
v -0.766661 -0.001885 -0.331945
v -0.734342 0.150432 0.268055
v -0.734342 0.514576 0.268055
v -0.752566 0.514576 0.268055
v -0.752566 0.150432 0.268055
v -0.734342 0.150432 -0.268055
v -0.734342 0.514576 -0.268055
v -0.752566 0.514576 -0.268055
v -0.752566 0.150432 -0.268055
v 0.726937 0.827838 0.316241
v 0.726937 0.827838 0.279049
v 0.726937 0.808295 0.316241
v 0.726937 0.808295 0.279049
v 0.782021 0.949037 0.364393
v 0.782021 0.921748 0.364393
v 0.782021 0.949037 -0.385607
v 0.782021 0.921748 -0.385607
v 0.720247 -0.001885 0.331945
v 0.720247 0.925507 0.331945
v 0.766661 -0.001885 0.331945
v 0.766661 0.925507 0.331945
v 0.720247 -0.001885 0.268055
v 0.720247 0.925507 0.268055
v 0.766661 0.925507 0.268055
v 0.766661 -0.001885 0.268055
v 0.720247 -0.001885 -0.268055
v 0.720247 0.925507 -0.268055
v 0.766661 -0.001885 -0.268055
v 0.766661 0.925507 -0.268055
v 0.720247 -0.001885 -0.331945
v 0.720247 0.925507 -0.331945
v 0.766661 0.925507 -0.331945
v 0.766661 -0.001885 -0.331945
v 0.734342 0.150432 0.268055
v 0.734342 0.514576 0.268055
v 0.752566 0.514576 0.268055
v 0.752566 0.150432 0.268055
v 0.734342 0.150432 -0.268055
v 0.734342 0.514576 -0.268055
v 0.752566 0.514576 -0.268055
v 0.752566 0.150432 -0.268055
vn -0.0000 -0.0000 1.0000
vn -0.0000 -0.0000 -1.0000
vn -0.0000 1.0000 -0.0000
vn -0.0000 -1.0000 -0.0000
vn -1.0000 -0.0000 -0.0000
vn 1.0000 -0.0000 -0.0000
vt 0.464112 0.958674
vt 0.475189 0.958674
vt 0.203667 0.870263
vt 0.706398 0.974098
vt 0.706398 0.985175
vt 0.717475 0.985175
vt 0.717475 0.974098
vt 0.463686 0.957031
vt 0.463686 0.968109
vt 0.452608 0.968109
vt 0.452608 0.957031
s 0
usemtl Palette
f 38/1/1 37/2/1 5/2/1 6/1/1
f 2/3/2 34/3/2 36/3/2 4/3/2
f 33/3/1 1/3/1 3/3/1 35/3/1
f 37/2/3 39/2/3 7/2/3 5/2/3
f 36/3/4 35/3/4 3/3/4 4/3/4
f 8/1/4 40/1/4 38/1/4 6/1/4
f 5/2/5 7/2/5 8/1/5 6/1/5
f 40/1/2 8/1/2 7/2/2 39/2/2
f 11/4/1 9/5/1 10/6/1 12/7/1
f 16/4/2 15/7/2 14/6/2 13/5/2
f 9/5/6 13/5/6 14/6/6 10/6/6
f 11/4/4 16/4/4 13/5/4 9/5/4
f 12/7/5 15/7/5 16/4/5 11/4/5
f 19/4/1 17/5/1 18/6/1 20/7/1
f 24/4/2 23/7/2 22/6/2 21/5/2
f 17/5/6 21/5/6 22/6/6 18/6/6
f 19/4/4 24/4/4 21/5/4 17/5/4
f 20/7/5 23/7/5 24/4/5 19/4/5
f 27/8/3 26/9/3 30/9/3 31/8/3
f 26/9/6 25/10/6 29/10/6 30/9/6
f 25/10/4 28/11/4 32/11/4 29/10/4
f 28/11/5 27/8/5 31/8/5 32/11/5
f 37/2/6 38/1/6 40/1/6 39/2/6
f 43/4/1 44/7/1 42/6/1 41/5/1
f 48/4/2 45/5/2 46/6/2 47/7/2
f 41/5/5 42/6/5 46/6/5 45/5/5
f 43/4/4 41/5/4 45/5/4 48/4/4
f 44/7/6 43/4/6 48/4/6 47/7/6
f 51/4/1 52/7/1 50/6/1 49/5/1
f 56/4/2 53/5/2 54/6/2 55/7/2
f 49/5/5 50/6/5 54/6/5 53/5/5
f 51/4/4 49/5/4 53/5/4 56/4/4
f 52/7/6 51/4/6 56/4/6 55/7/6
f 59/8/3 63/8/3 62/9/3 58/9/3
f 58/9/5 62/9/5 61/10/5 57/10/5
f 57/10/4 61/10/4 64/11/4 60/11/4
f 60/11/6 64/11/6 63/8/6 59/8/6
f 34/3/3 2/3/3 1/3/3 33/3/3
