# Blender 4.4.1
# www.blender.org
mtllib Door_Handle_1.mtl
o Door_Handle_1
v -0.024069 -0.024554 0.027229
v -0.024069 0.024834 0.027229
v -0.011797 -0.005942 -0.022230
v -0.011797 0.024834 -0.022230
v 0.019541 -0.005942 -0.022230
v 0.019541 0.024834 -0.022230
v -0.201365 -0.024554 0.027229
v -0.201365 0.024834 0.027229
v -0.184200 0.024834 0.063655
v -0.184200 -0.024554 0.063655
v 0.019541 -0.008901 -0.010977
v -0.052576 -0.024554 0.069044
v 0.014641 -0.024554 0.034853
v -0.013768 -0.024554 0.061341
v -0.052576 0.024834 0.069044
v 0.019541 0.024834 -0.010977
v -0.013768 0.024834 0.061341
v 0.014641 0.024834 0.034853
vn -0.9706 -0.0000 -0.2408
vn -0.0000 -1.0000 -0.0000
vn 1.0000 -0.0000 -0.0000
vn -0.0000 1.0000 -0.0000
vn -0.9046 -0.0000 0.4263
vn -0.0000 -0.0000 -1.0000
vn 0.0292 -0.9437 -0.3294
vn 0.0624 -0.9465 -0.3166
vn 0.1947 -0.0000 0.9809
vn 0.6819 -0.0000 0.7314
vn 0.9943 -0.0000 0.1063
vn -0.0409 -0.0000 0.9992
vt 0.031880 0.848965
vt 0.047008 0.848965
vt 0.047008 0.864092
vt 0.031880 0.864092
vt 0.016764 0.894348
vt 0.031880 0.894348
vt 0.031880 0.894348
vt 0.016753 0.894348
vt 0.031880 0.879220
vt 0.047008 0.879220
vt 0.047008 0.882015
vt 0.031880 0.882015
vt 0.062136 0.879220
vt 0.062124 0.894348
vt 0.047008 0.882015
vt 0.047008 0.894348
vt 0.062136 0.894348
vt 0.047008 0.909476
vt 0.031880 0.909476
vt 0.016753 0.879220
vt 0.031880 0.882015
vt 0.031880 0.888066
vt 0.031880 0.892264
vt 0.031880 0.893485
vt 0.047008 0.888066
s 0
usemtl Palette
f 1/1/1 2/2/1 4/3/1 3/4/1
f 1/5/2 12/6/2 10/7/2 7/8/2
f 5/9/3 6/10/3 16/11/3 11/12/3
f 6/10/4 4/13/4 2/14/4 16/15/4
f 15/16/4 2/17/4 8/17/4 9/16/4
f 10/7/5 9/16/5 8/18/5 7/19/5
f 2/2/6 1/1/6 7/1/6 8/2/6
f 3/20/7 5/9/7 11/21/7 1/8/7
f 11/12/8 13/22/8 1/5/8
f 13/22/2 14/23/2 1/5/2
f 14/23/2 12/24/2 1/5/2
f 15/16/4 17/16/4 2/14/4
f 17/16/4 18/16/4 2/14/4
f 18/16/4 16/16/4 2/14/4
f 15/16/9 12/7/9 14/7/9 17/16/9
f 17/16/10 14/7/10 13/22/10 18/25/10
f 18/25/11 13/22/11 11/12/11 16/11/11
f 12/7/12 15/16/12 9/16/12 10/7/12
