# Blender 4.4.1
# www.blender.org
mtllib Door_1.mtl
o Door_1
v 0.308811 1.717488 -0.054536
v 0.683922 1.717488 -0.054536
v 0.308811 1.850981 -0.054536
v 0.683922 1.850981 -0.054536
v 0.683922 1.717484 0.054536
v 0.683922 1.850976 0.054536
v 0.308811 1.850976 0.054536
v 0.308811 1.717484 0.054536
v 0.000000 -0.004540 0.043540
v 0.000000 2.020341 0.043541
v 0.000000 2.020341 -0.043537
v 0.000000 -0.004540 -0.043537
v 1.013806 2.020341 -0.043537
v 1.013806 -0.004540 -0.043537
v 1.013806 2.020341 0.043541
v 1.013806 -0.004540 0.043540
vn -1.0000 -0.0000 -0.0000
vn 1.0000 -0.0000 -0.0000
vn -0.0000 -1.0000 -0.0000
vn -0.0000 1.0000 -0.0000
vn -0.0000 -0.0000 1.0000
vn -0.0000 -0.0000 -1.0000
vt 0.158902 0.852748
vt 0.174029 0.852748
vt 0.174029 0.867876
vt 0.158902 0.867876
vt 0.158902 0.883003
vt 0.174029 0.883003
vt 0.174029 0.898131
vt 0.158902 0.898131
vt 0.133652 0.889986
vt 0.148780 0.889986
vt 0.148780 0.905113
vt 0.133652 0.905113
vt 0.174571 0.889986
vt 0.189699 0.889986
vt 0.189699 0.905113
vt 0.174571 0.905113
vt 0.046384 0.966957
vt 0.061512 0.966957
vt 0.016129 0.966957
vt 0.143774 0.898131
vt 0.189157 0.898131
vt 0.000062 0.000062
vt 0.999938 0.000062
vt 0.999938 0.383515
vt 0.000062 0.383515
vt 0.143774 0.883003
vt 0.189157 0.883003
vt 0.031257 0.966957
vt 0.999938 0.000062
vt 0.999938 0.383515
vt 0.000062 0.383515
vt 0.000062 0.000062
s 0
usemtl Palette
f 9/1/1 10/2/1 11/3/1 12/4/1
f 14/5/2 13/6/2 15/7/2 16/8/2
f 12/9/3 14/10/3 16/11/3 9/12/3
f 13/13/4 11/14/4 10/15/4 15/16/4
f 6/17/4 4/17/4 3/18/4 7/18/4
f 7/18/1 3/18/1 1/19/1 8/19/1
f 9/20/5 16/8/5 15/7/5 10/21/5
f 12/26/6 11/27/6 13/6/6 14/5/6
f 8/19/3 1/19/3 2/28/3 5/28/3
f 5/28/2 2/28/2 4/17/2 6/17/2
usemtl Door
f 8/22/5 5/23/5 6/24/5 7/25/5
f 1/29/6 3/30/6 4/31/6 2/32/6
