# Blender 4.4.1
# www.blender.org
mtllib Door_Frame.mtl
o Door_Frame
v -0.068261 0.000000 0.112322
v -0.068261 2.100655 0.112322
v -0.068261 0.000000 -0.112322
v -0.068261 2.100655 -0.112322
v 1.067677 0.000000 0.112322
v 1.067677 2.100655 0.112322
v 1.067677 0.000000 -0.112322
v 1.067677 2.100655 -0.112322
v 0.026820 0.000000 -0.112322
v 0.026820 0.000000 0.112322
v 0.026820 2.020291 0.112322
v 0.026820 2.020291 -0.112322
v 0.972596 2.020291 -0.112322
v 0.972596 0.000000 -0.112322
v 0.972596 0.000000 0.112322
v 0.972596 2.020291 0.112322
vn -1.0000 -0.0000 -0.0000
vn 1.0000 -0.0000 -0.0000
vn -0.0000 1.0000 -0.0000
vn -0.0000 -1.0000 -0.0000
vn -0.0000 -0.0000 -1.0000
vn -0.0000 -0.0000 1.0000
vt 0.103444 0.935220
vt 0.118572 0.935220
vt 0.118572 0.950347
vt 0.103444 0.950347
vt 0.103444 0.965475
vt 0.118572 0.965475
vt 0.118572 0.980603
vt 0.103444 0.980603
vt 0.133700 0.965475
vt 0.133700 0.980603
s 0
usemtl Palette
f 1/1/1 2/2/1 4/3/1 3/4/1
f 7/5/2 8/6/2 6/7/2 5/8/2
f 8/6/3 4/9/3 2/10/3 6/7/3
f 10/1/2 9/4/2 12/3/2 11/2/2
f 14/5/1 15/8/1 16/7/1 13/6/1
f 13/6/4 16/7/4 11/10/4 12/9/4
f 7/5/5 14/5/5 13/6/5 8/6/5
f 4/3/5 12/3/5 9/4/5 3/4/5
f 1/1/6 10/1/6 11/2/6 2/2/6
f 6/7/6 16/7/6 15/8/6 5/8/6
f 8/6/5 13/6/5 12/9/5 4/9/5
f 2/10/6 11/10/6 16/7/6 6/7/6
