# Blender 4.4.1
# www.blender.org
mtllib Drawer_Door.mtl
o Drawer_Door
v -0.487836 0.691835 0.020890
v -0.487836 0.110478 0.020890
v -0.016475 0.110478 0.020890
v -0.016475 0.691835 0.020890
v -0.016475 0.691835 -0.020890
v -0.487836 0.691835 -0.020890
v -0.016475 0.110478 -0.020890
v -0.487836 0.110478 -0.020890
vn -0.0000 -0.0000 1.0000
vn -0.0000 -0.0000 -1.0000
vn -1.0000 -0.0000 -0.0000
vn -0.0000 1.0000 -0.0000
vn 1.0000 -0.0000 -0.0000
vn -0.0000 -1.0000 -0.0000
vt 0.297296 0.878333
vt 0.297296 0.868333
vt 0.302704 0.868333
vt 0.302704 0.878333
s 0
usemtl Palette
f 1/1/1 2/2/1 3/3/1 4/4/1
f 6/1/2 5/4/2 7/3/2 8/2/2
f 2/2/3 1/1/3 6/1/3 8/2/3
f 1/1/4 4/4/4 5/4/4 6/1/4
f 4/4/5 3/3/5 7/3/5 5/4/5
f 3/3/6 2/2/6 8/2/6 7/3/6
