# Blender 4.4.1
# www.blender.org
mtllib Ladder.mtl
o Ladder
v -0.303207 0.379496 -0.092318
v -0.303207 0.379496 0.092318
v -0.318838 -0.000693 -0.400179
v -0.344838 -0.000693 -0.400179
v -0.345977 0.161338 0.177012
v -0.345977 0.161338 0.160172
v -0.312409 0.320679 -0.100922
v -0.312409 0.320679 0.100922
v -0.318838 0.379496 -0.107948
v -0.318838 0.547423 -0.303472
v -0.344838 0.547423 -0.303472
v -0.318838 0.379496 0.107948
v -0.303207 0.199496 0.087682
v -0.303207 0.199496 0.272318
v -0.318838 -0.000693 0.377066
v -0.318838 -0.000693 0.296968
v -0.344838 -0.000693 0.377066
v -0.344838 -0.000693 0.296968
v -0.312409 0.140679 0.079078
v -0.312409 0.140679 0.280922
v -0.318838 0.199496 0.072052
v -0.318838 0.547423 -0.251405
v -0.318838 0.589013 -0.209816
v -0.318838 0.199496 0.287948
v -0.303207 0.559496 -0.272318
v -0.303207 0.559496 -0.087682
v -0.344838 0.589013 -0.209816
v -0.312409 0.500679 -0.280922
v -0.312409 0.500679 -0.079078
v -0.318838 0.559496 -0.287948
v -0.344838 0.547423 -0.251405
v -0.318838 0.559496 -0.072052
v -0.318838 -0.000693 -0.348112
v -0.344838 -0.000693 -0.348112
v -0.344838 0.547423 -0.333824
v -0.318838 0.547423 -0.333824
v -0.318838 0.589013 -0.318517
v -0.344838 0.589013 -0.318517
v -0.325058 0.056066 -0.377621
v 0.000000 0.056066 -0.377621
v -0.325058 0.081857 -0.373070
v 0.000000 0.081857 -0.373070
v 0.000000 0.054089 -0.366417
v -0.325058 0.054089 -0.366417
v 0.000000 0.079880 -0.361867
v -0.325058 0.079880 -0.361867
v -0.345977 0.177568 0.159586
v -0.345977 0.177568 0.177598
v -0.345977 0.342523 -0.003073
v -0.345977 0.342523 -0.019913
v -0.345977 0.358753 -0.020499
v -0.345977 0.358753 -0.002487
v -0.345977 0.523709 -0.189394
v -0.345977 0.523709 -0.206233
v -0.345977 0.539939 -0.206819
v -0.345977 0.539939 -0.188807
v -0.318839 0.589013 -0.238420
v -0.318839 0.589013 -0.318517
v -0.344838 0.589013 -0.238420
v -0.344838 0.589013 -0.318517
v -0.284374 0.897147 -0.436720
v -0.318839 0.864467 -0.424184
v -0.308744 0.887575 -0.433048
v -0.318839 0.888272 -0.364663
v -0.284385 0.920528 -0.378270
v -0.308747 0.911080 -0.374285
v -0.310384 0.947121 -0.389489
v -0.344838 0.914878 -0.375887
v -0.334747 0.937677 -0.385505
v -0.344838 0.889170 -0.433660
v -0.310373 0.921865 -0.446202
v -0.334744 0.912289 -0.442528
v -0.318839 0.774706 -0.316755
v -0.318839 0.759935 -0.384084
v -0.344838 0.760307 -0.384227
v -0.344838 0.774978 -0.316870
v -0.318839 0.776677 -0.390507
v -0.344838 0.780946 -0.392144
v -0.318839 0.792895 -0.324428
v -0.344838 0.797385 -0.326322
v -0.318838 0.036986 -0.341464
v -0.344838 0.036986 -0.341464
v -0.344838 0.036986 -0.393531
v -0.318838 0.036986 -0.393531
v 0.303207 0.379496 -0.092318
v 0.303207 0.379496 0.092318
v 0.318838 -0.000693 -0.400179
v 0.344838 -0.000693 -0.400179
v 0.345977 0.161338 0.177012
v 0.345977 0.161338 0.160172
v 0.312409 0.320679 -0.100922
v 0.312409 0.320679 0.100922
v 0.318838 0.379496 -0.107948
v 0.318838 0.547423 -0.303472
v 0.344838 0.547423 -0.303472
v 0.318838 0.379496 0.107948
v 0.303207 0.199496 0.087682
v 0.303207 0.199496 0.272318
v 0.318838 -0.000693 0.377066
v 0.318838 -0.000693 0.296968
v 0.344838 -0.000693 0.377066
v 0.344838 -0.000693 0.296968
v 0.312409 0.140679 0.079078
v 0.312409 0.140679 0.280922
v 0.318838 0.199496 0.072052
v 0.318838 0.547423 -0.251405
v 0.318838 0.589013 -0.209816
v 0.318838 0.199496 0.287948
v 0.303207 0.559496 -0.272318
v 0.303207 0.559496 -0.087682
v 0.344838 0.589013 -0.209816
v 0.312409 0.500679 -0.280922
v 0.312409 0.500679 -0.079078
v 0.318838 0.559496 -0.287948
v 0.344838 0.547423 -0.251405
v 0.318838 0.559496 -0.072052
v 0.318838 -0.000693 -0.348112
v 0.344838 -0.000693 -0.348112
v 0.344838 0.547423 -0.333824
v 0.318838 0.547423 -0.333824
v 0.318838 0.589013 -0.318517
v 0.344838 0.589013 -0.318517
v 0.325058 0.056066 -0.377621
v 0.325058 0.081857 -0.373070
v 0.325058 0.054089 -0.366417
v 0.325058 0.079880 -0.361867
v 0.345977 0.177568 0.159586
v 0.345977 0.177568 0.177598
v 0.345977 0.342523 -0.003073
v 0.345977 0.342523 -0.019913
v 0.345977 0.358753 -0.020499
v 0.345977 0.358753 -0.002487
v 0.345977 0.523709 -0.189394
v 0.345977 0.523709 -0.206233
v 0.345977 0.539939 -0.206819
v 0.345977 0.539939 -0.188807
v 0.318839 0.589013 -0.238420
v 0.318839 0.589013 -0.318517
v 0.344838 0.589013 -0.238420
v 0.344838 0.589013 -0.318517
v 0.284374 0.897147 -0.436720
v 0.318839 0.864467 -0.424184
v 0.308744 0.887575 -0.433048
v 0.318839 0.888272 -0.364663
v 0.284385 0.920528 -0.378270
v 0.308747 0.911080 -0.374285
v 0.310384 0.947121 -0.389489
v 0.344838 0.914878 -0.375887
v 0.334747 0.937677 -0.385505
v 0.344838 0.889170 -0.433660
v 0.310373 0.921865 -0.446202
v 0.334744 0.912289 -0.442528
v 0.318839 0.774706 -0.316755
v 0.318839 0.759935 -0.384084
v 0.344838 0.760307 -0.384227
v 0.344838 0.774978 -0.316870
v 0.318839 0.776677 -0.390507
v 0.344838 0.780946 -0.392144
v 0.318839 0.792895 -0.324428
v 0.344838 0.797385 -0.326322
v 0.318838 0.036986 -0.341464
v 0.344838 0.036986 -0.341464
v 0.344838 0.036986 -0.393531
v 0.318838 0.036986 -0.393531
vn -0.9941 -0.1087 -0.0000
vn -0.0000 0.3454 -0.9385
vn -0.0000 -0.1186 0.9929
vn -0.0000 -0.1186 -0.9929
vn -1.0000 -0.0000 -0.0000
vn -0.0000 1.0000 -0.0000
vn -0.0000 -1.0000 -0.0000
vn 1.0000 -0.0000 -0.0000
vn -0.0000 -0.7079 -0.7063
vn -0.0000 -0.7068 -0.7074
vn -0.0000 -0.1738 0.9848
vn -0.0000 0.7070 0.7072
vn -0.0000 0.7020 0.7122
vn -0.0000 0.1738 -0.9848
vn -0.0000 -0.3582 -0.9337
vn -0.0000 0.9848 0.1738
vn -0.0000 -0.9848 -0.1738
vn -0.0000 0.9135 -0.4068
vn -0.0000 -0.9285 0.3714
vn -0.0000 0.3887 0.9214
vn 0.3878 -0.8558 0.3424
vn 0.9260 -0.3506 0.1403
vn -0.9259 0.3452 -0.1537
vn -0.3876 0.8421 -0.3750
vn 0.9941 -0.1087 -0.0000
vn -0.0000 -0.7069 -0.7073
vn -0.0000 0.7069 0.7073
vn -0.3878 -0.8558 0.3424
vn -0.9260 -0.3506 0.1403
vn 0.9259 0.3452 -0.1537
vn 0.3876 0.8421 -0.3750
vt 0.125328 0.883173
vt 0.125328 0.882659
vt 0.207476 0.962066
vt 0.207476 0.962506
vt 0.125460 0.883136
vt 0.125460 0.882696
vt 0.135910 0.949315
vt 0.135910 0.949315
vt 0.125328 0.882659
vt 0.133265 0.957252
vt 0.133265 0.956737
vt 0.135910 0.949315
vt 0.141202 0.949090
vt 0.141202 0.949113
vt 0.141202 0.949113
vt 0.141202 0.948980
vt 0.141202 0.949082
vt 0.141202 0.949059
vt 0.141202 0.948977
vt 0.125328 0.882819
vt 0.125328 0.882821
vt 0.141202 0.949090
vt 0.125328 0.882821
vt 0.141202 0.948978
vt 0.141202 0.949062
vt 0.141202 0.949108
vt 0.141202 0.949109
vt 0.141202 0.949085
vt 0.125328 0.882819
vt 0.622713 0.874903
vt 0.622713 0.874884
vt 0.622713 0.874884
vt 0.622713 0.874900
vt 0.622713 0.874902
vt 0.622713 0.874882
vt 0.141202 0.948982
vt 0.622713 0.874882
vt 0.622713 0.874898
vt 0.125328 0.883173
vt 0.125328 0.883173
s 0
usemtl Palette
f 7/1/1 8/2/1 12/2/1 9/1/1
f 35/1/2 38/1/2 37/1/2 36/1/2
f 92/2/3 96/2/3 12/2/3 8/2/3
f 9/1/4 93/1/4 91/1/4 7/1/4
f 11/1/5 38/1/5 35/1/5
f 2/3/6 86/3/6 85/4/6 1/4/6
f 10/1/7 11/1/7 35/1/7 36/1/7
f 85/5/6 93/1/6 9/1/6 1/5/6
f 2/6/6 1/5/6 9/1/6 12/2/6
f 19/1/1 20/2/1 24/2/1 21/1/1
f 37/1/8 10/1/8 36/1/8
f 104/2/3 108/2/3 24/2/3 20/2/3
f 21/1/4 105/1/4 103/1/4 19/1/4
f 23/1/8 22/1/8 10/1/8 37/1/8
f 14/3/6 98/3/6 97/4/6 13/4/6
f 31/1/5 27/1/5 38/1/5 11/1/5
f 84/7/8 81/8/8 33/8/8 3/8/8
f 97/5/6 105/1/6 21/1/6 13/5/6
f 14/6/6 13/5/6 21/1/6 24/2/6
f 28/1/1 29/2/1 32/2/1 30/1/1
f 18/9/9 31/1/10 22/1/10 16/9/9
f 113/2/3 116/2/3 32/2/3 29/2/3
f 30/1/4 114/1/4 112/1/4 28/1/4
f 81/8/11 82/8/11 34/8/11 33/8/11
f 26/3/6 110/3/6 109/4/6 25/4/6
f 15/2/8 16/9/8 22/1/8 23/1/8
f 27/1/12 17/2/13 15/2/13 23/1/12
f 109/5/6 114/1/6 30/1/6 25/5/6
f 26/6/6 25/5/6 30/1/6 32/2/6
f 27/1/6 23/1/6 37/1/6 38/1/6
f 19/1/7 103/1/7 104/2/7 20/2/7
f 33/8/7 34/8/7 4/8/7 3/8/7
f 12/2/6 96/2/6 86/6/6 2/6/6
f 6/10/5 5/11/5 48/11/5 47/10/5
f 7/1/7 91/1/7 92/2/7 8/2/7
f 83/12/14 84/7/14 3/8/14 4/8/14
f 82/8/5 83/12/5 4/8/5 34/8/5
f 32/2/6 116/2/6 110/6/6 26/6/6
f 28/1/7 112/1/7 113/2/7 29/2/7
f 17/2/7 18/9/7 16/9/7 15/2/7
f 141/13/15 61/13/15 71/14/15 151/14/15
f 42/1/14 40/1/14 39/1/14 41/1/14
f 45/1/11 46/1/11 44/1/11 43/1/11
f 42/1/16 41/1/16 46/1/16 45/1/16
f 39/1/17 40/1/17 43/1/17 44/1/17
f 31/1/5 18/9/5 17/2/5 27/1/5
f 50/10/5 49/11/5 52/11/5 51/10/5
f 54/10/5 53/11/5 56/11/5 55/10/5
f 151/14/18 71/14/18 67/15/18 147/15/18
f 78/16/15 70/17/15 62/18/15 77/19/15
f 75/20/5 60/9/5 59/2/5 76/21/5
f 145/22/19 65/22/19 61/13/19 141/13/19
f 76/21/20 59/2/20 57/2/20 73/23/20
f 79/24/8 77/19/8 62/18/8 64/25/8
f 71/14/15 61/13/15 63/13/15 72/26/15
f 72/26/15 63/13/15 62/18/15 70/17/15
f 65/22/20 67/15/20 69/27/20 66/22/20
f 66/22/20 69/27/20 68/28/20 64/25/20
f 61/13/21 65/22/21 66/22/21 63/13/21
f 63/13/22 66/22/22 64/25/22 62/18/22
f 70/17/23 68/28/23 69/27/23 72/26/23
f 72/26/24 69/27/24 67/15/24 71/14/24
f 147/15/20 67/15/20 65/22/20 145/22/20
f 57/2/8 58/9/8 74/29/8 73/23/8
f 80/30/20 76/31/20 73/32/20 79/33/20
f 78/34/5 75/35/5 76/31/5 80/30/5
f 60/9/15 75/20/15 74/29/15 58/9/15
f 70/17/5 78/16/5 80/36/5 68/28/5
f 68/28/20 80/36/20 79/24/20 64/25/20
f 73/32/8 74/37/8 77/38/8 79/33/8
f 75/35/15 78/34/15 77/38/15 74/37/15
f 31/1/5 11/1/5 83/39/5 82/1/5
f 11/1/14 10/1/14 84/40/14 83/39/14
f 22/1/11 31/1/11 82/1/11 81/1/11
f 10/1/8 22/1/8 81/1/8 84/40/8
f 91/1/25 93/1/25 96/2/25 92/2/25
f 119/1/2 120/1/2 121/1/2 122/1/2
f 95/1/8 119/1/8 122/1/8
f 94/1/7 120/1/7 119/1/7 95/1/7
f 86/6/6 96/2/6 93/1/6 85/5/6
f 103/1/25 105/1/25 108/2/25 104/2/25
f 121/1/5 120/1/5 94/1/5
f 107/1/5 121/1/5 94/1/5 106/1/5
f 115/1/8 95/1/8 122/1/8 111/1/8
f 164/7/5 87/8/5 117/8/5 161/8/5
f 98/6/6 108/2/6 105/1/6 97/5/6
f 112/1/25 114/1/25 116/2/25 113/2/25
f 102/9/9 100/9/9 106/1/26 115/1/26
f 161/8/11 117/8/11 118/8/11 162/8/11
f 99/2/5 107/1/5 106/1/5 100/9/5
f 111/1/27 107/1/27 99/2/13 101/2/13
f 110/6/6 116/2/6 114/1/6 109/5/6
f 111/1/6 122/1/6 121/1/6 107/1/6
f 117/8/7 87/8/7 88/8/7 118/8/7
f 90/10/8 127/10/8 128/11/8 89/11/8
f 163/12/14 88/8/14 87/8/14 164/7/14
f 162/8/8 118/8/8 88/8/8 163/12/8
f 101/2/7 99/2/7 100/9/7 102/9/7
f 42/1/14 124/1/14 123/1/14 40/1/14
f 45/1/11 43/1/11 125/1/11 126/1/11
f 42/1/16 45/1/16 126/1/16 124/1/16
f 123/1/17 125/1/17 43/1/17 40/1/17
f 115/1/8 111/1/8 101/2/8 102/9/8
f 130/10/8 131/10/8 132/11/8 129/11/8
f 134/10/8 135/10/8 136/11/8 133/11/8
f 158/16/15 157/19/15 142/18/15 150/17/15
f 155/20/8 156/21/8 139/2/8 140/9/8
f 156/21/20 153/23/20 137/2/20 139/2/20
f 159/24/5 144/25/5 142/18/5 157/19/5
f 151/14/15 152/26/15 143/13/15 141/13/15
f 152/26/15 150/17/15 142/18/15 143/13/15
f 145/22/20 146/22/20 149/27/20 147/15/20
f 146/22/20 144/25/20 148/28/20 149/27/20
f 141/13/28 143/13/28 146/22/28 145/22/28
f 143/13/29 142/18/29 144/25/29 146/22/29
f 150/17/30 152/26/30 149/27/30 148/28/30
f 152/26/31 151/14/31 147/15/31 149/27/31
f 137/2/5 153/23/5 154/29/5 138/9/5
f 160/30/20 159/33/20 153/32/20 156/31/20
f 158/34/8 160/30/8 156/31/8 155/35/8
f 140/9/15 138/9/15 154/29/15 155/20/15
f 150/17/8 148/28/8 160/36/8 158/16/8
f 148/28/20 144/25/20 159/24/20 160/36/20
f 153/32/5 159/33/5 157/38/5 154/37/5
f 155/35/15 154/37/15 157/38/15 158/34/15
f 115/1/8 162/1/8 163/39/8 95/1/8
f 95/1/14 163/39/14 164/40/14 94/1/14
f 106/1/11 161/1/11 162/1/11 115/1/11
f 94/1/5 164/40/5 161/1/5 106/1/5
f 24/2/6 108/2/6 98/6/6 14/6/6
