# Blender 4.4.1
# www.blender.org
mtllib Laptop_Screen.mtl
o Laptop_Screen
v 0.227359 0.000718 0.295259
v 0.227359 0.000718 0.039115
v -0.227359 0.000718 0.295259
v -0.227359 0.000718 0.039115
v 0.233502 0.000718 0.309140
v 0.233502 0.000718 -0.003384
v -0.233502 0.000718 0.309140
v -0.233502 0.000718 -0.003384
v 0.227359 0.003395 0.295259
v 0.227359 0.003395 0.039115
v -0.227359 0.003395 0.295259
v -0.227359 0.003395 0.039115
v 0.228539 0.017199 0.300741
v 0.232353 0.013828 0.305258
v 0.228539 0.017199 0.008402
v 0.232353 0.013833 0.003195
v -0.228539 0.017199 0.300741
v -0.232353 0.013828 0.305258
v -0.228539 0.017199 0.008402
v -0.232353 0.013833 0.003195
vn 1.0000 -0.0000 -0.0000
vn -0.0000 -1.0000 -0.0000
vn -0.9962 0.0873 -0.0000
vn -0.0000 0.2839 0.9588
vn 0.9962 0.0873 -0.0000
vn -1.0000 -0.0000 -0.0000
vn -0.0000 -0.0000 1.0000
vn -0.0000 -0.0000 -1.0000
vn -0.0000 0.4484 -0.8939
vn 0.6620 0.7495 -0.0000
vn -0.6620 0.7495 -0.0000
vn -0.0000 0.8014 0.5982
vn -0.0000 0.8398 -0.5429
vn -0.0000 1.0000 -0.0000
vt 0.874150 0.780522
vt 0.874150 0.803756
vt 0.874774 0.779639
vt 0.874774 0.804639
vt 0.874774 0.779639
vt 0.879359 0.798548
vt 0.879982 0.799430
vt 0.000318 0.998711
vt 0.000318 0.000821
vt 0.562433 0.000821
vt 0.562433 0.998711
vt 0.874774 0.804325
vt 0.874774 0.779952
s 0
usemtl Palette
f 3/1/1 4/2/1 12/2/1 11/1/1
f 3/1/2 1/1/2 5/3/2 7/3/2
f 7/3/3 18/3/3 20/4/3 8/4/3
f 14/3/4 18/3/4 7/3/4 5/3/4
f 5/3/5 6/4/5 16/4/5 14/5/5
f 2/2/6 1/1/6 9/1/6 10/2/6
f 2/6/2 4/6/2 8/7/2 6/7/2
f 1/1/2 2/2/2 6/4/2 5/3/2
f 4/2/2 3/1/2 7/3/2 8/4/2
f 4/2/7 2/2/7 10/2/7 12/2/7
f 1/1/8 3/1/8 11/1/8 9/1/8
f 8/4/9 20/4/9 16/4/9 6/4/9
f 14/5/10 16/4/10 15/12/10 13/13/10
f 17/13/11 19/12/11 20/4/11 18/3/11
f 13/13/12 17/13/12 18/3/12 14/3/12
f 19/12/13 15/12/13 16/4/13 20/4/13
f 15/12/14 19/12/14 17/13/14 13/13/14
usemtl Screens
f 9/8/2 11/9/2 12/10/2 10/11/2
