# Blender 4.4.1
# www.blender.org
mtllib Painting_Photo.mtl
o Painting_Photo
v -0.087936 -0.059476 0.010399
v -0.087936 0.148168 0.010399
v 0.087936 0.148168 0.010399
v 0.087936 -0.059476 0.010399
v -0.125475 -0.181634 0.010399
v -0.125475 0.183689 0.010399
v 0.125475 0.183689 0.010399
v 0.125475 -0.181634 0.010399
v 0.148784 -0.204622 -0.010483
v 0.148784 0.206677 -0.010483
v -0.148784 0.206677 -0.010483
v -0.148784 -0.204622 -0.010483
v -0.125475 -0.181634 0.026226
v -0.125475 0.183689 0.026226
v 0.125475 -0.181634 0.026226
v 0.148784 -0.204622 0.026226
v 0.125475 0.183689 0.026226
v 0.148784 0.206677 0.026226
v -0.148784 -0.204622 0.026226
v -0.148784 0.206677 0.026226
v -0.087936 -0.059476 0.024819
v -0.087936 0.148168 0.024819
v 0.087936 0.148168 0.024819
v 0.087936 -0.059476 0.024819
v -0.040937 -0.124763 0.022854
v 0.040937 -0.124763 0.022854
v 0.048542 -0.106977 0.022854
v -0.048542 -0.106977 0.022854
v 0.040937 -0.124763 0.010399
v 0.048542 -0.106977 0.010399
v -0.048542 -0.106977 0.010399
v -0.040937 -0.124763 0.010399
vn -0.0000 -1.0000 -0.0000
vn -0.0000 -0.0000 1.0000
vn -0.0000 1.0000 -0.0000
vn 1.0000 -0.0000 -0.0000
vn -1.0000 -0.0000 -0.0000
vn -0.0000 -0.0000 -1.0000
vn -0.9195 -0.3931 -0.0000
vn 0.9195 -0.3931 -0.0000
vt 0.627903 0.971708
vt 0.627903 0.957741
vt 0.201824 0.952556
vt 0.215105 0.952557
vt 0.215350 0.952880
vt 0.201579 0.952880
vt 0.202092 0.940204
vt 0.202092 0.951590
vt 0.201579 0.938914
vt 0.214837 0.951590
vt 0.214837 0.940204
vt 0.215350 0.938913
vt 0.127260 0.873152
vt 0.127260 0.884537
vt 0.614132 0.971708
vt 0.215105 0.939237
vt 0.201824 0.939237
vt 0.616736 0.971303
vt 0.630507 0.971303
vt 0.630507 0.957336
vt 0.616736 0.957336
vt 0.132490 0.957047
vt 0.132490 0.971014
vt 0.146260 0.971014
vt 0.146260 0.957047
vt 0.614132 0.957741
vt 0.843153 0.151347
vt 0.843153 0.493654
vt 0.553221 0.493654
vt 0.553221 0.151346
vt 0.114516 0.872123
vt 0.127260 0.872123
vt 0.114516 0.884537
vt 0.114516 0.873152
vt 0.114516 0.873152
vt 0.114516 0.884537
vt 0.127260 0.885566
vt 0.114516 0.885566
vt 0.115461 0.887486
vt 0.115461 0.901453
s 0
usemtl Palette
f 6/1/1 7/2/1 17/2/1 14/1/1
f 1/3/2 2/4/2 6/5/2 5/6/2
f 4/7/2 1/8/2 5/6/2 8/9/2
f 2/10/2 3/11/2 7/12/2 6/5/2
f 3/13/3 2/14/3 22/14/3 23/13/3
f 5/15/4 6/1/4 14/1/4 13/15/4
f 3/16/2 4/17/2 8/9/2 7/12/2
f 12/18/5 19/18/5 20/19/5 11/19/5
f 10/20/4 18/20/4 16/21/4 9/21/4
f 11/19/3 20/19/3 18/20/3 10/20/3
f 9/22/6 12/23/6 11/24/6 10/25/6
f 15/21/2 13/18/2 19/18/2 16/21/2
f 13/18/2 14/19/2 20/19/2 19/18/2
f 17/20/2 15/21/2 16/21/2 18/20/2
f 14/19/2 17/20/2 18/20/2 20/19/2
f 7/2/5 8/26/5 15/26/5 17/2/5
f 8/26/3 5/15/3 13/15/3 15/26/3
f 9/21/1 16/21/1 19/18/1 12/18/1
f 4/31/4 3/32/4 23/32/4 24/31/4
f 1/33/1 4/34/1 24/35/1 21/36/1
f 2/37/5 1/38/5 21/38/5 22/37/5
f 26/39/2 27/39/2 28/40/2 25/40/2
f 26/39/1 25/40/1 32/40/1 29/39/1
f 25/40/7 28/40/7 31/40/7 32/40/7
f 28/40/3 27/39/3 30/39/3 31/40/3
f 27/39/8 26/39/8 29/39/8 30/39/8
usemtl Paintings
f 24/27/2 23/28/2 22/29/2 21/30/2
