# Blender 4.4.1
# www.blender.org
mtllib Painting.mtl
o Painting
v -0.465350 0.236850 -0.010483
v -0.465350 -0.236850 -0.010483
v 0.465350 -0.236850 -0.010483
v 0.465350 0.236850 -0.010483
v -0.439660 -0.211493 0.010399
v -0.439660 0.211493 0.010399
v 0.439660 0.211493 0.010399
v 0.439660 -0.211493 0.010399
v -0.358834 -0.142395 0.010399
v -0.358834 0.142395 0.010399
v 0.358834 0.142395 0.010399
v 0.358834 -0.142395 0.010399
v -0.465350 0.236850 0.026226
v -0.465350 -0.236850 0.026226
v 0.465350 -0.236850 0.026226
v 0.465350 0.236850 0.026226
v -0.439660 -0.211493 0.026227
v -0.439660 0.211493 0.026227
v 0.439660 0.211493 0.026227
v 0.439660 -0.211493 0.026227
v -0.358834 -0.142395 0.024819
v -0.358834 0.142395 0.024819
v 0.358834 0.142395 0.024819
v 0.358834 -0.142395 0.024819
vn -0.0000 1.0000 -0.0000
vn 1.0000 -0.0000 -0.0000
vn -0.0000 -0.0000 -1.0000
vn -0.0000 -1.0000 -0.0000
vn -0.0000 -0.0000 1.0000
vn -1.0000 -0.0000 -0.0000
vt 0.234710 0.888928
vt 0.192614 0.888928
vt 0.126828 0.886233
vt 0.112656 0.886233
vt 0.196236 0.879874
vt 0.210408 0.879874
vt 0.210408 0.894046
vt 0.196236 0.894046
vt 0.098485 0.886233
vt 0.140999 0.886233
vt 0.189944 0.949693
vt 0.189944 0.966397
vt 0.187515 0.968826
vt 0.187515 0.947264
vt 0.232040 0.966397
vt 0.232040 0.949693
vt 0.234468 0.947264
vt 0.234468 0.968826
vt 0.190185 0.869795
vt 0.190185 0.891357
vt 0.237138 0.869795
vt 0.116131 0.888968
vt 0.118479 0.888968
vt 0.101127 0.888972
vt 0.101835 0.888972
vt 0.118479 0.887890
vt 0.100418 0.888972
vt 0.116131 0.887890
vt 0.099710 0.888972
vt 0.101127 0.888263
vt 0.100418 0.888263
vt 0.237138 0.891357
vt 0.112656 0.872062
vt 0.126828 0.872062
vt 0.923139 0.585453
vt 0.923139 0.919547
vt 0.081226 0.919547
vt 0.081226 0.585453
vt 0.234710 0.872224
vt 0.192614 0.872224
s 0
usemtl Palette
f 11/1/1 10/2/1 22/2/1 23/1/1
f 4/3/2 16/3/2 15/4/2 3/4/2
f 2/5/3 1/6/3 4/7/3 3/8/3
f 3/4/4 15/4/4 14/9/4 2/9/4
f 1/10/1 13/10/1 16/3/1 4/3/1
f 9/11/5 10/12/5 6/13/5 5/14/5
f 11/15/5 12/16/5 8/17/5 7/18/5
f 12/16/5 9/11/5 5/14/5 8/17/5
f 10/12/5 11/15/5 7/18/5 6/13/5
f 5/19/2 6/20/2 18/20/2 17/19/2
f 8/21/1 5/19/1 17/19/1 20/21/1
f 18/22/5 19/23/5 16/24/5 13/25/5
f 19/23/5 20/26/5 15/27/5 16/24/5
f 20/26/5 17/28/5 14/29/5 15/27/5
f 17/28/5 18/22/5 13/30/5 14/31/5
f 6/20/4 7/32/4 19/32/4 18/20/4
f 7/32/6 8/21/6 20/21/6 19/32/6
f 2/33/6 14/33/6 13/34/6 1/34/6
f 12/39/2 11/1/2 23/1/2 24/39/2
f 9/40/4 12/39/4 24/39/4 21/40/4
f 10/2/6 9/40/6 21/40/6 22/2/6
usemtl Paintings
f 24/35/5 23/36/5 22/37/5 21/38/5
