# Blender 4.4.1
# www.blender.org
mtllib Plate.mtl
o Plate
v -0.076193 0.052309 -0.132054
v -0.001008 0.004639 -0.081998
v -0.041270 0.004639 -0.071210
v -0.070744 0.004639 -0.041736
v -0.081532 0.004639 -0.001475
v -0.070744 0.004639 0.038787
v -0.041270 0.004639 0.068261
v -0.001008 0.004639 0.079049
v 0.039254 0.004639 0.068261
v 0.068728 0.004639 0.038787
v 0.079516 0.004639 -0.001475
v 0.068728 0.004639 -0.041736
v 0.039254 0.004639 -0.071210
v 0.000313 0.052309 -0.152554
v -0.132199 0.052309 -0.076048
v -0.152699 0.052309 0.000458
v -0.132199 0.052309 0.076964
v -0.076193 0.052309 0.132970
v 0.000313 0.052309 0.153470
v 0.076819 0.052309 0.132970
v 0.132825 0.052309 0.076964
v 0.153325 0.052309 0.000458
v 0.132825 0.052309 -0.076048
v 0.076819 0.052309 -0.132054
v 0.000313 0.043496 -0.174117
v 0.087600 0.043496 -0.150728
v 0.151499 0.043496 -0.086829
v 0.174888 0.043496 0.000458
v 0.151499 0.043496 0.087745
v 0.087600 0.043496 0.151644
v 0.000313 0.043496 0.175032
v -0.086974 0.043496 0.151644
v -0.150873 0.043496 0.087745
v -0.174261 0.043496 0.000458
v -0.150873 0.043496 -0.086829
v -0.086974 0.043496 -0.150728
v 0.000314 0.023210 -0.079047
v 0.040069 0.023210 -0.068395
v 0.069171 0.023210 -0.039292
v 0.079823 0.023210 0.000463
v 0.069171 0.023210 0.040217
v 0.040069 0.023210 0.069320
v 0.000314 0.023210 0.079972
v -0.039441 0.023210 0.069320
v -0.068543 0.023210 0.040217
v -0.079196 0.023210 0.000463
v -0.068543 0.023210 -0.039292
v -0.039441 0.023210 -0.068395
v 0.077659 0.027595 -0.135300
v 0.134689 0.027595 -0.078269
v -0.000247 0.027595 0.155447
v -0.078152 0.027595 0.134572
v 0.134689 0.027595 0.077541
v 0.077658 0.027595 0.134572
v -0.156058 0.027595 -0.000364
v -0.135183 0.027595 -0.078269
v 0.155564 0.027595 -0.000364
v -0.135183 0.027595 0.077541
v -0.000247 0.027595 -0.156175
v -0.078152 0.027595 -0.135300
v 0.062751 0.032508 0.108605
v 0.000314 0.032508 0.125335
v 0.108458 0.032508 -0.061977
v 0.125188 0.032508 0.000460
v -0.124561 0.032508 0.000460
v -0.107831 0.032508 -0.061977
v -0.062124 0.032508 0.108605
v 0.108458 0.032508 0.062898
v -0.062124 0.032508 -0.107685
v 0.000314 0.032508 -0.124415
v 0.062751 0.032508 -0.107685
v -0.107831 0.032508 0.062898
vn -0.0016 -0.8564 -0.5162
vn -0.2596 -0.8549 -0.4492
vn 0.2590 0.1351 -0.9564
vn -0.0264 -0.5902 -0.8068
vn 0.4261 -0.8710 0.2447
vn 0.4961 -0.8683 -0.0022
vn 0.6897 0.1175 0.7145
vn 0.6903 -0.6189 0.3748
vn -0.0015 -0.8704 0.4924
vn 0.2448 -0.8717 0.4244
vn -0.2743 0.1133 0.9550
vn -0.0266 -0.6175 0.7861
vn 0.2530 -0.8599 -0.4434
vn 0.3642 -0.5961 -0.7155
vn -0.4389 -0.8630 0.2502
vn -0.2511 -0.8672 0.4300
vn -0.9617 0.1194 0.2468
vn -0.7139 -0.6018 0.3580
vn 0.4343 -0.8642 -0.2539
vn 0.9548 0.1226 0.2707
vn -0.4474 -0.8558 -0.2598
vn -0.5124 -0.8588 -0.0024
vn -0.6991 0.1304 -0.7030
vn -0.6894 -0.5891 -0.4215
vn -0.0000 0.9055 -0.4244
vn -0.2122 0.9055 -0.3675
vn -0.0587 0.9931 -0.1018
vn -0.0000 0.9931 -0.1175
vn -0.0004 -0.9848 -0.1737
vn 0.0858 -0.9850 -0.1497
vn 0.1478 -0.9853 -0.0861
vn 0.1697 -0.9855 -0.0005
vn 0.1463 -0.9857 0.0842
vn 0.0842 -0.9857 0.1459
vn -0.0003 -0.9856 0.1690
vn -0.0855 -0.9854 0.1470
vn -0.1489 -0.9852 0.0852
vn -0.1729 -0.9849 -0.0005
vn -0.1505 -0.9848 -0.0872
vn -0.0871 -0.9847 -0.1508
vn 0.2200 0.9713 0.0905
vn 0.0981 0.9806 -0.1698
vn 0.1698 0.9806 -0.0981
vn 0.1961 0.9806 -0.0000
vn 0.1698 0.9806 0.0980
vn 0.0980 0.9806 0.1698
vn -0.0000 0.9806 0.1961
vn -0.0980 0.9806 0.1698
vn -0.1698 0.9806 0.0981
vn -0.1961 0.9806 -0.0000
vn -0.1698 0.9806 -0.0981
vn -0.0980 0.9806 -0.1698
vn -0.0000 0.9931 0.1175
vn 0.0587 0.9931 0.1017
vn 0.1017 0.9931 0.0587
vn 0.1175 0.9931 -0.0000
vn 0.1018 0.9931 -0.0587
vn 0.0587 0.9931 -0.1018
vn -0.1018 0.9931 -0.0587
vn -0.1175 0.9931 -0.0000
vn -0.1017 0.9931 0.0587
vn -0.0587 0.9931 0.1017
vn -0.4243 0.9055 -0.0000
vn -0.3675 0.9055 0.2122
vn 0.3675 0.9055 0.2122
vn 0.4243 0.9055 -0.0000
vn 0.2122 0.9055 -0.3675
vn -0.3675 0.9055 -0.2122
vn 0.2122 0.9055 0.3675
vn -0.2122 0.9055 0.3675
vn -0.0000 0.9055 0.4243
vn 0.3675 0.9055 -0.2122
vt 0.213609 0.822287
vt 0.201109 0.818938
vt 0.201109 0.818938
vt 0.235260 0.784787
vt 0.238609 0.797287
vt 0.238609 0.797287
vt 0.213609 0.772287
vt 0.226109 0.775637
vt 0.226109 0.818938
vt 0.226109 0.818938
vt 0.191958 0.784787
vt 0.201109 0.775637
vt 0.235260 0.809787
vt 0.235260 0.809787
vt 0.191958 0.809787
vt 0.188609 0.797287
vt 0.191958 0.809787
vt 0.213609 0.775927
vt 0.224289 0.778789
vt 0.213609 0.818647
vt 0.224289 0.815786
vt 0.232107 0.807967
vt 0.234969 0.797287
vt 0.232107 0.786607
vt 0.202929 0.778789
vt 0.195111 0.786607
vt 0.192249 0.797287
vt 0.195111 0.807967
vt 0.202929 0.815786
s 1
usemtl Palette
f 59/1/1 60/2/2 36/3/3 25/1/4
f 53/4/5 57/5/6 28/6/7 29/4/8
f 51/7/9 54/8/10 30/8/11 31/7/12
f 49/9/13 59/1/1 25/1/4 26/10/14
f 58/11/15 52/12/16 32/12/17 33/11/18
f 57/5/6 50/13/19 27/14/20 28/6/7
f 56/15/21 55/16/22 34/16/23 35/17/24
f 54/8/10 53/4/5 29/4/8 30/8/11
f 52/12/16 51/7/9 31/7/12 32/12/17
f 50/13/19 49/9/13 26/10/14 27/14/20
f 62/18/25 61/19/26 42/19/27 43/18/28
f 60/2/2 56/15/21 35/17/24 36/3/3
f 2/1/29 13/10/30 12/14/31 11/6/32 10/4/33 9/8/34 8/7/35 7/12/36 6/11/37 5/16/38 4/17/39 3/3/40
f 55/16/22 58/11/15 33/11/18 34/16/23
f 14/20/41 24/21/42 26/10/14 25/1/4
f 24/21/42 23/22/43 27/14/20 26/10/14
f 23/22/43 22/23/44 28/6/7 27/14/20
f 22/23/44 21/24/45 29/4/8 28/6/7
f 21/24/45 20/19/46 30/8/11 29/4/8
f 20/19/46 19/18/47 31/7/12 30/8/11
f 19/18/47 18/25/48 32/12/17 31/7/12
f 18/25/48 17/26/49 33/11/18 32/12/17
f 17/26/49 16/27/50 34/16/23 33/11/18
f 16/27/50 15/28/51 35/17/24 34/16/23
f 15/28/51 1/29/52 36/3/3 35/17/24
f 1/29/52 14/20/41 25/1/4 36/3/3
f 37/20/53 48/29/54 47/28/55 46/27/56 45/26/57 44/25/58 43/18/28 42/19/27 41/24/59 40/23/60 39/22/61 38/21/62
f 64/23/63 63/22/64 39/22/61 40/23/60
f 66/28/65 65/27/66 46/27/56 47/28/55
f 67/25/67 62/18/25 43/18/28 44/25/58
f 68/24/68 64/23/63 40/23/60 41/24/59
f 69/29/69 66/28/65 47/28/55 48/29/54
f 71/21/70 70/20/71 37/20/53 38/21/62
f 72/26/72 67/25/67 44/25/58 45/26/57
f 61/19/26 68/24/68 41/24/59 42/19/27
f 70/20/71 69/29/69 48/29/54 37/20/53
f 63/22/64 71/21/70 38/21/62 39/22/61
f 65/27/66 72/26/72 45/26/57 46/27/56
f 5/16/38 6/11/37 58/11/15 55/16/22
f 3/3/40 4/17/39 56/15/21 60/2/2
f 12/14/31 13/10/30 49/9/13 50/13/19
f 7/12/36 8/7/35 51/7/9 52/12/16
f 9/8/34 10/4/33 53/4/5 54/8/10
f 4/17/39 5/16/38 55/16/22 56/15/21
f 11/6/32 12/14/31 50/13/19 57/5/6
f 6/11/37 7/12/36 52/12/16 58/11/15
f 13/10/30 2/1/29 59/1/1 49/9/13
f 8/7/35 9/8/34 54/8/10 51/7/9
f 10/4/33 11/6/32 57/5/6 53/4/5
f 2/1/29 3/3/40 60/2/2 59/1/1
f 16/27/50 17/26/49 72/26/72 65/27/66
f 23/22/43 24/21/42 71/21/70 63/22/64
f 14/20/41 1/29/52 69/29/69 70/20/71
f 20/19/46 21/24/45 68/24/68 61/19/26
f 17/26/49 18/25/48 67/25/67 72/26/72
f 24/21/42 14/20/41 70/20/71 71/21/70
f 1/29/52 15/28/51 66/28/65 69/29/69
f 21/24/45 22/23/44 64/23/63 68/24/68
f 18/25/48 19/18/47 62/18/25 67/25/67
f 15/28/51 16/27/50 65/27/66 66/28/65
f 22/23/44 23/22/43 63/22/64 64/23/63
f 19/18/47 20/19/46 61/19/26 62/18/25
