# Blender 4.4.1
# www.blender.org
mtllib Sofa_2_Alt.mtl
o Sofa_2_Alt
v -0.493474 0.323333 0.375000
v -0.493474 0.323333 -0.375000
v -0.459554 0.083526 0.341080
v -0.459554 0.083526 -0.341080
v -0.409681 0.291873 0.357263
v -0.377934 0.701344 -0.493942
v -0.377934 0.250375 -0.428031
v -0.575654 0.252277 -0.428020
v -0.575654 0.702577 -0.494052
v -0.377934 0.250375 -0.193708
v -0.377934 0.763718 -0.269976
v -0.575654 0.764831 -0.270107
v -0.575654 0.252277 -0.193697
v -0.409682 0.479320 -0.289664
v -0.409682 0.291873 -0.289664
v -0.575654 0.597005 0.441456
v -0.575654 0.252277 0.409841
v -0.377934 0.595713 0.441555
v -0.377934 0.250375 0.409829
v -0.409681 0.479320 0.286164
v -0.409681 0.408221 0.357263
v -0.409681 0.458496 0.336439
v -0.349531 0.000000 0.288052
v -0.404346 0.000000 0.288052
v -0.349531 0.000000 0.233236
v -0.404346 0.000000 0.233236
v -0.344576 0.119791 0.228281
v -0.344576 0.119791 0.293007
v -0.409302 0.119791 0.293007
v -0.409302 0.119791 0.228281
v -0.349531 0.000000 -0.230731
v -0.404346 0.000000 -0.230731
v -0.349531 0.000000 -0.285547
v -0.404346 0.000000 -0.285547
v -0.344576 0.119791 -0.290502
v -0.344576 0.119791 -0.225776
v -0.409302 0.119791 -0.225776
v -0.409302 0.119791 -0.290502
v 0.493474 0.323333 0.375000
v 0.493474 0.323333 -0.375000
v 0.459554 0.083526 0.341080
v 0.459554 0.083526 -0.341080
v 0.409681 0.291873 0.357263
v 0.377934 0.701344 -0.493942
v 0.377934 0.250375 -0.428031
v 0.575654 0.252277 -0.428020
v 0.575654 0.702577 -0.494052
v 0.377934 0.250375 -0.193708
v 0.377934 0.763718 -0.269976
v 0.575654 0.764831 -0.270107
v 0.575654 0.252277 -0.193697
v 0.409682 0.479320 -0.289664
v 0.409682 0.291873 -0.289664
v 0.575654 0.597005 0.441456
v 0.575654 0.252277 0.409841
v 0.377934 0.595713 0.441555
v 0.377934 0.250375 0.409829
v 0.409681 0.479320 0.286164
v 0.409681 0.408221 0.357263
v 0.409681 0.458496 0.336439
v 0.349531 0.000000 0.288052
v 0.404346 0.000000 0.288052
v 0.349531 0.000000 0.233236
v 0.404346 0.000000 0.233236
v 0.344576 0.119791 0.228281
v 0.344576 0.119791 0.293007
v 0.409302 0.119791 0.293007
v 0.409302 0.119791 0.228281
v 0.349531 0.000000 -0.230731
v 0.404346 0.000000 -0.230731
v 0.349531 0.000000 -0.285547
v 0.404346 0.000000 -0.285547
v 0.344576 0.119791 -0.290502
v 0.344576 0.119791 -0.225776
v 0.409302 0.119791 -0.225776
v 0.409302 0.119791 -0.290502
vn -0.9901 -0.1401 -0.0000
vn -0.0000 -0.1401 -0.9901
vn -0.0000 -1.0000 -0.0000
vn -0.0000 -0.1401 0.9901
vn -0.6657 0.7319 0.1456
vn -0.7071 0.7071 -0.0000
vn -1.0000 -0.0000 -0.0000
vn -0.7071 -0.0000 0.7071
vn -0.6657 0.1456 0.7319
vn -0.6303 0.5490 0.5490
vn -0.0009 -0.1449 -0.9895
vn 0.0059 0.9634 -0.2681
vn -0.0096 -1.0000 -0.0000
vn 0.6657 0.7319 0.1456
vn 0.6303 0.5490 0.5490
vn -0.0000 0.9633 -0.2683
vn -0.0000 0.1470 0.9891
vn 0.0058 0.9733 0.2297
vn 1.0000 -0.0000 -0.0000
vn -0.0010 -0.0914 0.9958
vn 0.6657 0.1456 0.7319
vn 0.7071 0.7071 -0.0000
vn 0.7071 -0.0000 0.7071
vn -0.0000 -0.1446 -0.9895
vn -0.9991 -0.0413 -0.0000
vn 0.9991 -0.0413 -0.0000
vn -0.0000 -0.0413 -0.9991
vn -0.0000 -0.0413 0.9991
vn 0.9901 -0.1401 -0.0000
vn 0.0009 -0.1449 -0.9895
vn -0.0059 0.9634 -0.2681
vn 0.0096 -1.0000 -0.0000
vn -0.0058 0.9733 0.2297
vn 0.0010 -0.0914 0.9958
vn -0.0000 1.0000 -0.0000
vt 0.133389 0.962306
vt 0.133389 0.948087
vt 0.126771 0.957828
vt 0.126771 0.973461
vt 0.036846 0.868927
vt 0.711026 0.875710
vt 0.707493 0.875672
vt 0.707493 0.878368
vt 0.711026 0.878329
vt 0.711659 0.875717
vt 0.711659 0.878323
vt 0.036846 0.868927
vt 0.710717 0.875706
vt 0.710717 0.878333
vt 0.015711 0.855680
vt 0.065711 0.855680
vt 0.065711 0.905680
vt 0.015711 0.905680
vt 0.133845 0.956681
vt 0.133845 0.972314
s 0
usemtl Palette
f 4/1/1 3/2/1 1/3/1 2/4/1
f 2/4/2 40/4/2 42/1/2 4/1/2
f 4/1/3 42/1/3 41/2/3 3/2/3
f 3/2/4 41/2/4 39/3/4 1/3/4
s 1
f 20/5/5 14/5/6 15/5/7 5/5/8 21/5/9 22/5/10
s 0
f 6/6/11 7/7/11 8/8/11 9/9/11
f 11/10/12 6/6/12 9/9/12 12/11/12
f 12/11/7 9/9/7 8/8/7 13/8/7
f 13/8/13 8/8/13 7/7/13 10/7/13
s 1
f 58/12/14 20/12/5 22/5/10 60/5/15
s 0
f 49/10/16 44/6/16 6/6/16 11/10/16
f 48/7/17 49/10/17 11/10/17 10/7/17
f 18/13/18 11/10/18 12/11/18 16/14/18
f 17/8/13 13/8/13 10/7/13 19/7/13
f 16/14/7 12/11/7 13/8/7 17/8/7
f 45/7/3 48/7/3 10/7/3 7/7/3
f 19/7/19 10/7/19 11/10/19 18/13/19
f 18/13/20 16/14/20 17/8/20 19/7/20
s 1
f 60/5/15 22/5/10 21/5/9 59/5/21
f 20/12/5 58/12/14 52/5/22 14/5/6
f 43/5/23 59/5/21 21/5/9 5/5/8
s 0
f 44/6/24 45/7/24 7/7/24 6/6/24
f 23/15/3 24/16/3 26/17/3 25/18/3
f 31/15/3 32/16/3 34/17/3 33/18/3
f 24/16/25 29/16/25 30/17/25 26/17/25
f 25/18/26 27/18/26 28/15/26 23/15/26
f 26/17/27 30/17/27 27/18/27 25/18/27
f 23/15/28 28/15/28 29/16/28 24/16/28
f 32/16/25 37/16/25 38/17/25 34/17/25
f 33/18/26 35/18/26 36/15/26 31/15/26
f 34/17/27 38/17/27 35/18/27 33/18/27
f 31/15/28 36/15/28 37/16/28 32/16/28
f 42/1/29 40/4/29 39/3/29 41/2/29
s 1
f 58/5/14 60/5/15 59/5/21 43/5/23 53/5/19 52/5/22
s 0
f 44/6/30 47/9/30 46/8/30 45/7/30
f 49/10/31 50/11/31 47/9/31 44/6/31
f 50/11/19 51/8/19 46/8/19 47/9/19
f 51/8/32 48/7/32 45/7/32 46/8/32
f 56/13/33 54/14/33 50/11/33 49/10/33
f 55/8/32 57/7/32 48/7/32 51/8/32
f 54/14/19 55/8/19 51/8/19 50/11/19
f 57/7/7 56/13/7 49/10/7 48/7/7
f 56/13/34 57/7/34 55/8/34 54/14/34
f 61/15/3 63/18/3 64/17/3 62/16/3
f 69/15/3 71/18/3 72/17/3 70/16/3
f 62/16/26 64/17/26 68/17/26 67/16/26
f 63/18/25 61/15/25 66/15/25 65/18/25
f 64/17/27 63/18/27 65/18/27 68/17/27
f 61/15/28 62/16/28 67/16/28 66/15/28
f 70/16/26 72/17/26 76/17/26 75/16/26
f 71/18/25 69/15/25 74/15/25 73/18/25
f 72/17/27 71/18/27 73/18/27 76/17/27
f 69/15/28 70/16/28 75/16/28 74/15/28
f 39/19/35 40/20/35 2/20/35 1/19/35
