# Blender 4.4.1
# www.blender.org
mtllib Sofa_4.mtl
o Sofa_4
v -0.672119 0.000000 0.288052
v -0.726934 0.000000 0.288052
v -0.672119 0.000000 0.233236
v -0.726934 0.000000 0.233236
v -0.667164 0.119791 0.228281
v -0.667164 0.119791 0.293007
v -0.731890 0.119791 0.293007
v -0.731890 0.119791 0.228281
v -0.672119 0.000000 -0.230731
v -0.726934 0.000000 -0.230731
v -0.672119 0.000000 -0.285547
v -0.726934 0.000000 -0.285547
v -0.667164 0.119791 -0.290502
v -0.667164 0.119791 -0.225776
v -0.731890 0.119791 -0.225776
v -0.731890 0.119791 -0.290502
v 0.672119 0.000000 0.288052
v 0.726934 0.000000 0.288052
v 0.672119 0.000000 0.233236
v 0.726934 0.000000 0.233236
v 0.667164 0.119791 0.228281
v 0.667164 0.119791 0.293007
v 0.731890 0.119791 0.293007
v 0.731890 0.119791 0.228281
v 0.672119 0.000000 -0.230731
v 0.726934 0.000000 -0.230731
v 0.672119 0.000000 -0.285547
v 0.726934 0.000000 -0.285547
v 0.667164 0.119791 -0.290502
v 0.667164 0.119791 -0.225776
v 0.731890 0.119791 -0.225776
v 0.731890 0.119791 -0.290502
v -0.717238 0.267872 0.347022
v -0.775597 0.267872 0.288664
v -0.758504 0.267872 0.329930
v -0.775597 0.267872 -0.288664
v -0.717238 0.267872 -0.347022
v -0.758504 0.267872 -0.329930
v 0.775597 0.267872 0.288664
v 0.717238 0.267872 0.347022
v 0.758504 0.267872 0.329930
v 0.717238 0.267872 -0.347022
v 0.775597 0.267872 -0.288664
v 0.758504 0.267872 -0.329930
v -0.775597 0.420961 -0.227933
v -0.661220 0.479320 -0.183523
v -0.758504 0.462227 -0.236141
v -0.775597 0.360231 -0.288664
v -0.717238 0.371839 -0.347022
v -0.758504 0.368439 -0.329930
v -0.775597 0.403174 -0.270876
v -0.717238 0.447840 -0.315542
v -0.758504 0.434757 -0.302460
v -0.775597 0.360231 0.288664
v -0.717238 0.371839 0.347022
v -0.758504 0.368439 0.329930
v -0.775597 0.420961 0.227933
v -0.661220 0.479320 0.183523
v -0.758504 0.462227 0.236141
v -0.775597 0.403174 0.270876
v -0.717238 0.447840 0.315542
v -0.758504 0.434757 0.302460
v 0.775597 0.360231 -0.288664
v 0.717238 0.371839 -0.347022
v 0.758504 0.368439 -0.329930
v 0.775597 0.420961 -0.227933
v 0.661220 0.479320 -0.183523
v 0.758504 0.462227 -0.236141
v 0.775597 0.403174 -0.270876
v 0.717238 0.447840 -0.315542
v 0.758504 0.434757 -0.302460
v 0.775597 0.420961 0.227933
v 0.661220 0.479320 0.183523
v 0.758504 0.462227 0.236141
v 0.775597 0.360231 0.288664
v 0.717238 0.371839 0.347022
v 0.758504 0.368439 0.329930
v 0.775597 0.403174 0.270876
v 0.717238 0.447840 0.315542
v 0.758504 0.434757 0.302460
v -0.816062 0.267872 0.334783
v -0.775844 0.267872 0.375000
v -0.775844 0.267872 -0.375000
v -0.816062 0.267872 -0.334782
v -0.741925 0.083526 0.341080
v -0.782142 0.083526 0.300863
v -0.782142 0.083526 -0.300863
v -0.741925 0.083526 -0.341080
v 0.775844 0.267872 0.375000
v 0.816062 0.267872 0.334783
v 0.816062 0.267872 -0.334782
v 0.775844 0.267872 -0.375000
v 0.782142 0.083526 0.300863
v 0.741925 0.083526 0.341080
v 0.741925 0.083526 -0.341080
v 0.782142 0.083526 -0.300863
v -0.717238 0.479320 0.239541
v -0.717238 0.479320 -0.239541
v 0.717238 0.479320 -0.239541
v 0.717238 0.479320 0.239541
v -0.661220 0.479320 0.000000
v 0.661220 0.479320 0.000000
v 0.638653 0.473362 0.000000
v -0.638653 0.473362 -0.156102
v -0.638653 0.473362 0.000000
v 0.638653 0.473362 0.156102
v -0.638653 0.473362 0.156102
v 0.638653 0.473362 -0.156102
v 0.313995 0.479320 -0.183523
v 0.386005 0.479320 -0.183523
v 0.386005 0.479320 0.183523
v 0.313995 0.479320 0.183523
v 0.313995 0.479320 0.000000
v 0.386005 0.479320 0.000000
v 0.408571 0.473362 0.000000
v 0.408571 0.473362 -0.156102
v 0.291429 0.473362 -0.156102
v 0.291429 0.473362 0.000000
v 0.408571 0.473362 0.156102
v 0.291429 0.473362 0.156102
v -0.386005 0.479320 -0.183523
v -0.313995 0.479320 -0.183523
v -0.313995 0.479320 0.183523
v -0.386005 0.479320 0.183523
v -0.386005 0.479320 0.000000
v -0.313995 0.479320 0.000000
v -0.291429 0.473362 0.000000
v -0.291429 0.473362 -0.156102
v -0.408571 0.473362 -0.156102
v -0.408571 0.473362 0.000000
v -0.291429 0.473362 0.156102
v -0.408571 0.473362 0.156102
v -0.058571 0.473362 0.156102
v 0.058571 0.473362 0.156102
v -0.058571 0.473362 0.000000
v -0.058571 0.473362 -0.156102
v 0.058571 0.473362 -0.156102
v 0.058571 0.473362 0.000000
v 0.036005 0.479320 0.000000
v -0.036005 0.479320 0.000000
v -0.036005 0.479320 0.183523
v 0.036005 0.479320 0.183523
v 0.036005 0.479320 -0.183523
v -0.036005 0.479320 -0.183523
vn -0.0000 -0.1810 0.9835
vn -0.0000 -1.0000 -0.0000
vn 0.9835 -0.1810 -0.0000
vn -0.0000 -0.1810 -0.9835
vn 0.1938 0.1914 -0.9622
vn -0.1938 0.1914 -0.9622
vn -0.1994 0.6929 -0.6929
vn 0.1994 0.6929 -0.6929
vn 0.1951 -0.0000 -0.9808
vn -0.1951 -0.0000 -0.9808
vn -0.1938 0.9622 -0.1914
vn 0.1938 0.9622 -0.1914
vn -0.9991 -0.0413 -0.0000
vn 0.9991 -0.0413 -0.0000
vn -0.0000 -0.0413 -0.9991
vn -0.0000 -0.0413 0.9991
vn 0.1951 -0.0000 0.9808
vn 0.1938 0.1914 0.9622
vn -0.1938 0.1914 0.9622
vn -0.1951 -0.0000 0.9808
vn -0.9835 -0.1810 -0.0000
vn 0.1994 0.6929 0.6929
vn -0.1994 0.6929 0.6929
vn 0.1938 0.9622 0.1914
vn -0.1938 0.9622 0.1914
vn 0.9767 0.2105 0.0419
vn 0.9744 0.1590 0.1590
vn 0.9767 0.0419 0.2105
vn 0.9808 -0.0000 0.1951
vn 0.9808 -0.0000 -0.1951
vn 0.9767 0.0419 -0.2105
vn 0.9744 0.1590 -0.1590
vn 0.9767 0.2105 -0.0419
vn 0.6889 0.1414 -0.7109
vn 0.6824 0.5169 -0.5169
vn -0.9767 0.0419 -0.2105
vn -0.9744 0.1590 -0.1590
vn -0.6824 0.5169 -0.5169
vn -0.6889 0.1414 -0.7109
vn 0.6889 0.7109 -0.1414
vn -0.9767 0.2105 -0.0419
vn -0.6889 0.7109 -0.1414
vn 0.6889 0.7109 0.1414
vn 0.6824 0.5169 0.5169
vn -0.9767 0.2105 0.0419
vn -0.9744 0.1590 0.1590
vn -0.6824 0.5169 0.5169
vn -0.6889 0.7109 0.1414
vn 0.6889 0.1414 0.7109
vn -0.9767 0.0419 0.2105
vn -0.6889 0.1414 0.7109
vn -0.9808 -0.0000 -0.1951
vn -0.7071 -0.0000 -0.7071
vn 0.7071 -0.0000 -0.7071
vn -0.7071 -0.0000 0.7071
vn -0.9808 -0.0000 0.1951
vn 0.7071 -0.0000 0.7071
vn -0.6843 -0.2518 0.6843
vn -0.6843 -0.2518 -0.6843
vn 0.6843 -0.2518 0.6843
vn 0.6843 -0.2518 -0.6843
vn -0.0000 1.0000 -0.0000
vn 0.0287 0.9991 -0.0302
vn 0.1287 0.9917 -0.0000
vn 0.0287 0.9991 0.0302
vn -0.0287 0.9991 0.0302
vn -0.1287 0.9917 -0.0000
vn -0.0287 0.9991 -0.0302
vn 0.1007 0.9919 0.0773
vn -0.1007 0.9919 0.0773
vn -0.1007 0.9919 -0.0773
vn 0.1007 0.9919 -0.0773
vn 0.0797 0.9968 -0.0000
vn 0.2553 0.9669 -0.0000
vn -0.0797 0.9968 -0.0000
vn -0.2553 0.9669 -0.0000
vt 0.133389 0.948087
vt 0.133389 0.948087
vt 0.126771 0.957828
vt 0.133389 0.961468
vt 0.133389 0.962306
vt 0.133389 0.962306
vt 0.133389 0.948925
vt 0.126771 0.972623
vt 0.126771 0.958666
vt 0.126771 0.973461
vt 0.126771 0.973461
vt 0.036846 0.868926
vt 0.036846 0.868927
vt 0.036846 0.868926
vt 0.036846 0.868927
vt 0.015711 0.855680
vt 0.065711 0.855680
vt 0.065711 0.905680
vt 0.015711 0.905680
vt 0.036846 0.868926
vt 0.036846 0.868927
vt 0.036846 0.868926
vt 0.036846 0.868927
vt 0.036846 0.868927
vt 0.036846 0.868927
vt 0.036846 0.868926
vt 0.036846 0.868926
vt 0.133845 0.956681
vt 0.133845 0.957519
vt 0.133845 0.971476
vt 0.133845 0.972314
vt 0.036846 0.868927
s 0
usemtl Palette
f 85/1/1 94/2/1 89/3/1 82/3/1
f 87/4/2 88/5/2 95/6/2 96/4/2 93/7/2 94/1/2 85/2/2 86/7/2
f 96/4/3 91/8/3 90/9/3 93/7/3
f 83/10/4 92/11/4 95/5/4 88/6/4
s 1
f 64/12/5 49/13/6 52/12/7 70/13/8
f 49/12/6 64/13/5 42/12/9 37/13/10
f 70/12/8 52/13/7 98/14/11 99/15/12
s 0
f 1/16/2 2/17/2 4/18/2 3/19/2
f 9/16/2 10/17/2 12/18/2 11/19/2
f 2/17/13 7/17/13 8/18/13 4/18/13
f 3/19/14 5/19/14 6/16/14 1/16/14
f 4/18/15 8/18/15 5/19/15 3/19/15
f 1/16/16 6/16/16 7/17/16 2/17/16
f 10/17/13 15/17/13 16/18/13 12/18/13
f 11/19/14 13/19/14 14/16/14 9/16/14
f 12/18/15 16/18/15 13/19/15 11/19/15
f 9/16/16 14/16/16 15/17/16 10/17/16
f 17/16/2 19/19/2 20/18/2 18/17/2
f 25/16/2 27/19/2 28/18/2 26/17/2
f 18/17/14 20/18/14 24/18/14 23/17/14
f 19/19/13 17/16/13 22/16/13 21/19/13
f 20/18/15 19/19/15 21/19/15 24/18/15
f 17/16/16 18/17/16 23/17/16 22/16/16
f 26/17/14 28/18/14 32/18/14 31/17/14
f 27/19/13 25/16/13 30/16/13 29/19/13
f 28/18/15 27/19/15 29/19/15 32/18/15
f 25/16/16 26/17/16 31/17/16 30/16/16
s 1
f 40/13/17 76/12/18 55/13/19 33/12/20
s 0
f 87/4/21 86/7/21 81/9/21 84/8/21
s 1
f 79/12/22 61/15/23 55/12/19 76/13/18
f 100/20/24 97/21/25 61/14/23 79/13/22
f 72/22/26 78/14/27 75/13/28 39/23/29 43/13/30 63/15/31 69/12/32 66/13/33
f 69/12/32 63/15/31 65/13/34 71/13/35
f 71/13/35 65/13/34 64/12/5 70/13/8
f 48/14/36 51/24/37 53/13/38 50/13/39
f 50/13/39 53/13/38 52/12/7 49/13/6
f 66/13/33 69/12/32 71/13/35 68/13/40
f 68/13/40 71/13/35 70/12/8 99/15/12
f 51/24/37 45/12/41 47/13/42 53/13/38
f 53/13/38 47/13/42 98/14/11 52/13/7
f 78/14/27 72/22/26 74/25/43 80/13/44
f 80/13/44 74/25/43 100/20/24 79/13/22
f 57/26/45 60/26/46 62/25/47 59/25/48
f 59/25/48 62/25/47 61/14/23 97/21/25
f 75/13/28 78/14/27 80/13/44 77/13/49
f 77/13/49 80/13/44 79/12/22 76/13/18
f 60/26/46 54/27/50 56/13/51 62/25/47
f 62/25/47 56/13/51 55/12/19 61/15/23
f 36/23/52 48/14/36 50/13/39 38/13/53
f 38/13/53 50/13/39 49/12/6 37/13/10
f 63/15/31 43/13/30 44/13/54 65/13/34
f 65/13/34 44/13/54 42/12/9 64/13/5
f 33/12/20 55/13/19 56/13/51 35/13/55
f 35/13/55 56/13/51 54/27/50 34/13/56
f 97/20/25 98/15/11 47/13/42 59/25/48
f 59/25/48 47/13/42 45/12/41 57/26/45
f 72/22/26 66/13/33 68/13/40 74/25/43
f 74/25/43 68/13/40 99/14/12 100/21/24
f 39/23/29 75/13/28 77/13/49 41/13/57
f 41/13/57 77/13/49 76/12/18 40/13/17
f 54/27/50 60/26/46 57/26/45 45/12/41 51/24/37 48/14/36 36/23/52 34/13/56
s 0
f 81/9/58 86/7/58 85/1/58 82/3/58
f 83/10/59 88/6/59 87/4/59 84/8/59
f 89/3/60 94/2/60 93/7/60 90/9/60
f 91/8/61 96/4/61 95/5/61 92/11/61
f 89/28/62 90/29/62 91/30/62 92/31/62 83/31/62 84/30/62 81/29/62 82/28/62
s 1
f 58/21/63 101/25/64 46/25/65 98/15/11 97/20/25
f 67/15/66 102/25/67 73/21/68 100/21/24 99/14/12
f 46/25/65 101/25/64 105/25/64 104/25/69
f 67/15/66 46/25/65 104/25/69 108/15/70
f 58/21/63 73/21/68 106/21/71 107/21/72
f 73/21/68 58/21/63 97/20/25 100/21/24
f 46/25/65 67/15/66 99/14/12 98/15/11
f 107/21/72 106/21/71 103/25/67 105/25/64
f 73/21/68 102/25/67 103/25/67 106/21/71
f 101/25/64 58/21/63 107/21/72 105/25/64
f 105/25/64 103/25/67 108/15/70 104/25/69
f 102/25/67 67/15/66 108/15/70 103/25/67
f 110/25/73 114/21/64 115/21/74 116/25/74
f 114/21/64 110/25/73 109/21/75 113/25/67
f 111/32/73 114/25/64 113/21/67 112/21/75
f 114/25/64 111/32/73 119/32/74 115/25/74
f 112/21/75 113/21/67 118/21/76 120/21/76
f 113/25/67 109/21/75 117/21/76 118/25/76
f 122/25/73 126/21/64 127/21/74 128/25/74
f 126/21/64 122/25/73 121/21/75 125/25/67
f 123/32/73 126/25/64 125/21/67 124/21/75
f 126/25/64 123/32/73 131/32/74 127/25/74
f 124/21/75 125/21/67 130/21/76 132/21/76
f 125/25/67 121/21/75 129/21/76 130/25/76
f 139/25/64 142/32/73 134/32/74 138/25/74
f 140/25/67 144/21/75 136/21/76 135/25/76
f 142/32/73 139/25/64 140/21/67 141/21/75
f 139/21/64 143/25/73 144/21/75 140/25/67
f 143/25/73 139/21/64 138/21/74 137/25/74
f 141/21/75 140/21/67 135/21/76 133/21/76
