# Blender 4.4.1
# www.blender.org
mtllib Sofa_3.mtl
o Sofa_3
v -0.816062 0.323333 0.375000
v -0.816062 0.323333 -0.375000
v -0.782142 0.083526 0.341080
v -0.782142 0.083526 -0.341080
v -0.732269 0.291873 0.357263
v -0.700522 0.250375 -0.428031
v -0.898242 0.252277 -0.428020
v -0.700522 0.250375 -0.193708
v -0.700522 0.822684 -0.269976
v -0.898242 0.823797 -0.270107
v -0.898242 0.252277 -0.193697
v -0.732270 0.479320 -0.289664
v -0.732270 0.291873 -0.289664
v -0.898242 0.655971 0.441456
v -0.898242 0.252277 0.409841
v -0.700522 0.654679 0.441555
v -0.700522 0.250375 0.409829
v -0.732269 0.479320 0.286164
v -0.732269 0.408221 0.357263
v -0.732269 0.458496 0.336439
v -0.672119 0.000000 0.288052
v -0.726934 0.000000 0.288052
v -0.672119 0.000000 0.233236
v -0.726934 0.000000 0.233236
v -0.667164 0.119791 0.228281
v -0.667164 0.119791 0.293007
v -0.731890 0.119791 0.293007
v -0.731890 0.119791 0.228281
v -0.672119 0.000000 -0.230731
v -0.726934 0.000000 -0.230731
v -0.672119 0.000000 -0.285547
v -0.726934 0.000000 -0.285547
v -0.667164 0.119791 -0.290502
v -0.667164 0.119791 -0.225776
v -0.731890 0.119791 -0.225776
v -0.731890 0.119791 -0.290502
v 0.816062 0.323333 0.375000
v 0.816062 0.323333 -0.375000
v 0.782142 0.083526 0.341080
v 0.782142 0.083526 -0.341080
v 0.732269 0.291873 0.357263
v 0.700522 0.250375 -0.428031
v 0.898242 0.252277 -0.428020
v 0.700522 0.250375 -0.193708
v 0.700522 0.822684 -0.269976
v 0.898242 0.823797 -0.270107
v 0.898242 0.252277 -0.193697
v 0.732270 0.479320 -0.289664
v 0.732270 0.291873 -0.289664
v 0.898242 0.655971 0.441456
v 0.898242 0.252277 0.409841
v 0.700522 0.654679 0.441555
v 0.700522 0.250375 0.409829
v 0.732269 0.479320 0.286164
v 0.732269 0.408221 0.357263
v 0.732269 0.458496 0.336439
v 0.672119 0.000000 0.288052
v 0.726934 0.000000 0.288052
v 0.672119 0.000000 0.233236
v 0.726934 0.000000 0.233236
v 0.667164 0.119791 0.228281
v 0.667164 0.119791 0.293007
v 0.731890 0.119791 0.293007
v 0.731890 0.119791 0.228281
v 0.672119 0.000000 -0.230731
v 0.726934 0.000000 -0.230731
v 0.672119 0.000000 -0.285547
v 0.726934 0.000000 -0.285547
v 0.667164 0.119791 -0.290502
v 0.667164 0.119791 -0.225776
v 0.731890 0.119791 -0.225776
v 0.731890 0.119791 -0.290502
v 0.898242 0.252277 0.108072
v 0.700522 0.250375 0.108061
v -0.898242 0.252277 0.108072
v -0.700522 0.250375 0.108061
v 0.700522 0.772544 0.209215
v 0.700522 0.830604 -0.051552
v 0.898242 0.831772 -0.051667
v 0.898242 0.773774 0.209113
v -0.700522 0.830604 -0.051552
v -0.700522 0.772544 0.209215
v -0.898242 0.773774 0.209113
v -0.898242 0.831772 -0.051667
v -0.700522 0.773702 -0.445854
v -0.700522 0.651949 -0.486723
v -0.898242 0.774913 -0.445957
v -0.898242 0.653186 -0.486809
v 0.700522 0.651949 -0.486723
v 0.700522 0.773702 -0.445854
v 0.898242 0.653186 -0.486809
v 0.898242 0.774913 -0.445957
v -0.678222 0.777276 -0.279745
v -0.678222 0.465324 -0.244000
v -0.030973 0.465324 -0.244000
v -0.030973 0.777276 -0.279745
v 0.030973 0.777276 -0.279745
v 0.030973 0.465324 -0.244000
v 0.678222 0.465324 -0.244000
v 0.678222 0.777276 -0.279745
v -0.657591 0.483205 -0.182492
v -0.632706 0.506885 -0.171425
v -0.632707 0.705014 -0.217463
v -0.660805 0.741485 -0.240762
v -0.051603 0.483205 -0.182492
v -0.076488 0.506885 -0.171425
v -0.076488 0.705014 -0.217463
v -0.048389 0.741485 -0.240762
v 0.051603 0.483205 -0.182492
v 0.076488 0.506885 -0.171425
v 0.076488 0.705014 -0.217463
v 0.048389 0.741485 -0.240762
v 0.657591 0.483205 -0.182492
v 0.632706 0.506885 -0.171425
v 0.632707 0.705014 -0.217463
v 0.660805 0.741485 -0.240762
vn -0.9901 -0.1401 -0.0000
vn -0.0000 -0.1401 -0.9901
vn -0.0000 -1.0000 -0.0000
vn -0.0000 -0.1401 0.9901
vn -0.6657 0.7319 0.1456
vn -0.7071 0.7071 -0.0000
vn -1.0000 -0.0000 -0.0000
vn -0.7071 -0.0000 0.7071
vn -0.6657 0.1456 0.7319
vn -0.6303 0.5490 0.5490
vn -0.0000 0.9633 -0.2683
vn -0.0010 -0.1449 -0.9895
vn -0.0058 0.9634 -0.2681
vn -0.0096 -1.0000 -0.0000
vn 0.6657 0.7319 0.1456
vn 0.6303 0.5490 0.5490
vn -0.0000 -0.1446 -0.9895
vn -0.0000 0.1321 0.9912
vn 1.0000 -0.0000 -0.0000
vn -0.0009 -0.0782 0.9969
vn 0.6657 0.1456 0.7319
vn 0.7071 0.7071 -0.0000
vn 0.7071 -0.0000 0.7071
vn -0.9991 -0.0413 -0.0000
vn 0.9991 -0.0413 -0.0000
vn -0.0000 -0.0413 -0.9991
vn -0.0000 -0.0413 0.9991
vn 0.9901 -0.1401 -0.0000
vn 0.0010 -0.1449 -0.9895
vn 0.0096 -1.0000 -0.0000
vn 0.0009 -0.0782 0.9969
vn -0.0000 1.0000 -0.0000
vn -0.0058 0.9993 -0.0364
vn 0.0055 0.8918 0.4523
vn 0.0058 0.9993 -0.0364
vn -0.0058 0.9761 0.2172
vn 0.0058 0.9761 0.2172
vn -0.0055 0.8918 0.4523
vn 0.0024 0.3182 -0.9480
vn -0.0024 0.3182 -0.9480
vn -0.0000 0.3182 -0.9480
vn 0.0058 0.9634 -0.2681
vn -0.0000 -0.9602 0.2791
vn -0.9306 0.0544 0.3620
vn -0.0000 0.7366 0.6763
vn 0.9306 0.0544 0.3620
vn -0.0000 0.2263 0.9740
vn -0.5017 0.1894 0.8440
vn -0.0000 -0.4234 0.9060
vn -0.0000 0.5384 0.8427
vn 0.5017 0.1894 0.8440
vt 0.133389 0.962306
vt 0.133389 0.948087
vt 0.126771 0.957828
vt 0.126771 0.973461
vt 0.036846 0.868927
vt 0.711659 0.875717
vt 0.711162 0.875711
vt 0.711162 0.875711
vt 0.710639 0.875706
vt 0.707493 0.875672
vt 0.707493 0.878368
vt 0.710639 0.878334
vt 0.711659 0.878323
vt 0.711162 0.878328
vt 0.711162 0.875711
vt 0.036846 0.868927
vt 0.710211 0.875701
vt 0.710717 0.878333
vt 0.711025 0.878329
vt 0.710210 0.878338
vt 0.711370 0.878326
vt 0.710717 0.875706
vt 0.015711 0.855680
vt 0.065711 0.855680
vt 0.065711 0.905680
vt 0.015711 0.905680
vt 0.711025 0.878329
vt 0.711025 0.875710
vt 0.710211 0.875701
vt 0.133845 0.956681
vt 0.133845 0.972314
vt 0.711370 0.875713
vt 0.711025 0.878330
vt 0.707493 0.875672
vt 0.707493 0.875672
vt 0.711659 0.875717
vt 0.711659 0.875717
vt 0.707830 0.875675
vt 0.711322 0.875713
vt 0.711321 0.875713
vt 0.707830 0.875675
vt 0.707830 0.875675
vt 0.711321 0.875713
vt 0.707830 0.875675
s 0
usemtl Palette
f 4/1/1 3/2/1 1/3/1 2/4/1
f 2/4/2 38/4/2 40/1/2 4/1/2
f 4/1/3 40/1/3 39/2/3 3/2/3
f 3/2/4 39/2/4 37/3/4 1/3/4
s 1
f 18/5/5 12/5/6 13/5/7 5/5/8 19/5/9 20/5/10
s 0
f 45/6/11 90/7/11 85/8/11 9/6/11
f 86/9/12 6/10/12 7/11/12 88/12/12
f 45/6/13 46/13/13 92/14/13 90/15/13
f 11/11/14 7/11/14 6/10/14 8/10/14
s 1
f 54/16/15 18/16/5 20/5/10 56/5/16
s 0
f 89/9/17 42/10/17 6/10/17 86/9/17
f 44/10/18 45/6/18 9/6/18 8/10/18
f 76/10/19 8/10/19 9/6/19 81/17/19
f 75/11/14 11/11/14 8/10/14 76/10/14
f 14/18/7 83/19/7 84/20/7 75/11/7 15/11/7
f 42/10/3 44/10/3 8/10/3 6/10/3
f 84/21/7 10/13/7 11/11/7 75/11/7
f 16/22/20 14/18/20 15/11/20 17/10/20
s 1
f 56/5/16 20/5/10 19/5/9 55/5/21
f 18/16/5 54/16/15 48/5/22 12/5/6
f 41/5/23 55/5/21 19/5/9 5/5/8
s 0
f 10/13/7 87/14/7 88/12/7 7/11/7 11/11/7
f 21/23/3 22/24/3 24/25/3 23/26/3
f 29/23/3 30/24/3 32/25/3 31/26/3
f 22/24/24 27/24/24 28/25/24 24/25/24
f 23/26/25 25/26/25 26/23/25 21/23/25
f 24/25/26 28/25/26 25/26/26 23/26/26
f 21/23/27 26/23/27 27/24/27 22/24/27
f 30/24/24 35/24/24 36/25/24 32/25/24
f 31/26/25 33/26/25 34/23/25 29/23/25
f 32/25/26 36/25/26 33/26/26 31/26/26
f 29/23/27 34/23/27 35/24/27 30/24/27
f 40/1/28 38/4/28 37/3/28 39/2/28
s 1
f 54/5/15 56/5/16 55/5/21 41/5/23 49/5/19 48/5/22
s 0
f 46/13/19 47/11/19 43/11/19 91/12/19 92/14/19
f 89/9/29 91/12/29 43/11/29 42/10/29
f 47/11/30 44/10/30 42/10/30 43/11/30
f 79/20/19 73/11/19 47/11/19 46/13/19
f 73/11/30 74/10/30 44/10/30 47/11/30
f 50/18/19 51/11/19 73/11/19 79/20/19 80/27/19
f 53/10/7 52/22/7 77/28/7 78/29/7 74/10/7
f 52/22/31 53/10/31 51/11/31 50/18/31
f 57/23/3 59/26/3 60/25/3 58/24/3
f 65/23/3 67/26/3 68/25/3 66/24/3
f 58/24/25 60/25/25 64/25/25 63/24/25
f 59/26/24 57/23/24 62/23/24 61/26/24
f 60/25/26 59/26/26 61/26/26 64/25/26
f 57/23/27 58/24/27 63/24/27 62/23/27
f 66/24/25 68/25/25 72/25/25 71/24/25
f 67/26/24 65/23/24 70/23/24 69/26/24
f 68/25/26 67/26/26 69/26/26 72/25/26
f 65/23/27 66/24/27 71/24/27 70/23/27
f 37/30/32 38/31/32 2/31/32 1/30/32
f 78/32/33 79/21/33 46/13/33 45/6/33
f 16/22/34 82/28/34 83/33/34 14/18/34
f 51/11/30 53/10/30 74/10/30 73/11/30
f 74/10/7 78/32/7 45/6/7 44/10/7
f 81/32/35 9/6/35 10/13/35 84/21/35
f 15/11/14 75/11/14 76/10/14 17/10/14
f 17/10/19 76/10/19 81/29/19 82/28/19 16/22/19
f 79/21/36 78/32/36 77/28/36 80/27/36
f 81/32/37 84/21/37 83/33/37 82/28/37
f 52/22/38 50/18/38 80/27/38 77/28/38
f 86/9/39 88/12/39 87/14/39 85/15/39
f 90/15/40 92/14/40 91/12/40 89/9/40
f 89/9/41 86/9/41 85/8/41 90/7/41
f 9/6/42 85/15/42 87/14/42 10/13/42
f 101/34/43 94/10/43 95/10/43 105/10/43
f 112/6/44 97/6/44 98/10/44 109/35/44
f 108/36/45 96/6/45 93/6/45 104/6/45
f 105/10/46 95/10/46 96/6/46 108/37/46
f 106/38/47 107/39/47 103/40/47 102/41/47
f 109/10/43 98/10/43 99/10/43 113/10/43
f 116/6/45 100/6/45 97/6/45 112/6/45
f 113/10/46 99/10/46 100/6/46 116/6/46
f 114/42/47 115/40/47 111/43/47 110/44/47
f 104/6/48 101/35/48 102/41/48 103/40/48
f 101/34/49 105/10/49 106/38/49 102/41/49
f 103/40/50 107/39/50 108/36/50 104/6/50
f 107/39/51 106/38/51 105/10/51 108/37/51
f 112/6/48 109/35/48 110/44/48 111/43/48
f 109/10/49 113/10/49 114/42/49 110/44/49
f 111/43/50 115/40/50 116/6/50 112/6/50
f 115/40/51 114/42/51 113/10/51 116/6/51
f 104/6/44 93/6/44 94/10/44 101/35/44
