# Blender 4.4.1
# www.blender.org
mtllib Table_Lamp_1.mtl
o Table_Lamp_1
v 0.000000 -0.002285 -0.066964
v 0.025626 -0.002285 -0.061866
v 0.047351 -0.002285 -0.047350
v 0.061866 -0.002285 -0.025626
v 0.066964 -0.002285 -0.000000
v 0.061866 -0.002285 0.025626
v 0.047351 -0.002285 0.047350
v 0.025626 -0.002285 0.061866
v 0.000000 -0.002285 0.066964
v -0.025626 -0.002285 0.061866
v -0.047350 -0.002285 0.047350
v -0.061866 -0.002285 0.025626
v -0.066963 -0.002285 -0.000000
v -0.061866 -0.002285 -0.025626
v -0.047350 -0.002285 -0.047350
v -0.025626 -0.002285 -0.061866
v -0.025270 0.008972 -0.061009
v -0.046694 0.008972 -0.046694
v -0.061008 0.008972 -0.025271
v -0.066035 0.008972 -0.000000
v -0.061008 0.008972 0.025271
v -0.046694 0.008972 0.046694
v -0.025270 0.008972 0.061009
v 0.000000 0.008972 0.066035
v 0.025271 0.008972 0.061008
v 0.046694 0.008972 0.046694
v 0.061009 0.008972 0.025271
v 0.066035 0.008972 -0.000000
v 0.061009 0.008972 -0.025271
v 0.046694 0.008972 -0.046694
v 0.025271 0.008972 -0.061009
v 0.000000 0.008972 -0.066035
v -0.004346 0.253855 0.004347
v 0.004347 0.253855 0.004347
v -0.004346 0.244788 -0.004347
v 0.004347 0.244788 -0.004347
v -0.004346 0.006819 -0.004347
v -0.004346 0.006819 0.004347
v 0.004347 0.006819 0.004347
v 0.004347 0.006819 -0.004347
vn -0.5538 0.0806 -0.8288
vn -0.5538 0.0806 0.8288
vn -0.9776 0.0806 0.1945
vn 0.5538 0.0806 0.8288
vn 0.5538 0.0806 -0.8288
vn -0.8288 0.0806 -0.5538
vn -0.1945 0.0806 0.9776
vn 0.9776 0.0806 -0.1945
vn -0.1945 0.0806 -0.9776
vn -0.8288 0.0806 0.5538
vn 0.8288 0.0806 0.5538
vn 0.1945 0.0806 -0.9776
vn -0.9776 0.0806 -0.1945
vn 0.1945 0.0806 0.9776
vn 0.8288 0.0806 -0.5538
vn 0.9776 0.0806 0.1945
vn -0.0000 -1.0000 -0.0000
vn -0.0000 1.0000 -0.0000
vn -0.0000 0.6921 -0.7218
vn -0.0000 -0.0000 -1.0000
vn -0.0000 -0.0000 1.0000
vn 1.0000 -0.0000 -0.0000
vn -1.0000 -0.0000 -0.0000
vt 0.034105 0.979048
vt 0.034105 0.979048
vt 0.039706 0.982791
vt 0.039706 0.950887
vt 0.034105 0.954630
vt 0.030362 0.960232
vt 0.029047 0.966839
vt 0.058522 0.954630
vt 0.052921 0.950888
vt 0.052921 0.982791
vt 0.058522 0.979048
vt 0.058522 0.979048
vt 0.030362 0.973446
vt 0.030362 0.973446
vt 0.046313 0.949573
vt 0.046313 0.949573
vt 0.062265 0.973446
vt 0.063579 0.966839
vt 0.046313 0.984105
vt 0.046313 0.984105
vt 0.062265 0.960232
vt 0.017143 0.935753
vt 0.067143 0.935753
vt 0.067143 0.985753
vt 0.017143 0.985753
s 0
usemtl Palette
f 15/1/1 18/2/1 17/3/1 16/3/1
f 10/4/2 23/4/2 22/5/2 11/5/2
f 12/6/3 21/6/3 20/7/3 13/7/3
f 7/8/4 26/8/4 25/9/4 8/9/4
f 2/10/5 31/10/5 30/11/5 3/12/5
f 14/13/6 19/14/6 18/2/6 15/1/6
f 9/15/7 24/16/7 23/4/7 10/4/7
f 4/17/8 29/17/8 28/18/8 5/18/8
f 16/3/9 17/3/9 32/19/9 1/20/9
f 11/5/10 22/5/10 21/6/10 12/6/10
f 6/21/11 27/21/11 26/8/11 7/8/11
f 1/20/12 32/19/12 31/10/12 2/10/12
f 13/7/13 20/7/13 19/14/13 14/13/13
f 8/9/14 25/9/14 24/16/14 9/15/14
f 3/12/15 30/11/15 29/17/15 4/17/15
f 5/18/16 28/18/16 27/21/16 6/21/16
f 1/20/17 2/10/17 3/12/17 4/17/17 5/18/17 6/21/17 7/8/17 8/9/17 9/15/17 10/4/17 11/5/17 12/6/17 13/7/17 14/13/17 15/1/17 16/3/17
f 17/3/18 18/2/18 19/14/18 20/7/18 21/6/18 22/5/18 23/4/18 24/16/18 25/9/18 26/8/18 27/21/18 28/18/18 29/17/18 30/11/18 31/10/18 32/19/18
f 33/22/19 34/23/19 36/24/19 35/25/19
f 36/24/20 40/24/20 37/25/20 35/25/20
f 33/22/21 38/22/21 39/23/21 34/23/21
f 34/23/22 39/23/22 40/24/22 36/24/22
f 35/25/23 37/25/23 38/22/23 33/22/23
