# Blender 4.4.1
# www.blender.org
mtllib TV.mtl
o TV
v 0.305265 0.108366 -0.039669
v 0.305265 0.467976 -0.039669
v 0.466898 0.127002 0.047229
v 0.466898 0.616761 0.047229
v 0.485535 0.108366 0.008380
v 0.485535 0.635397 0.008380
v 0.044275 0.008112 0.031505
v 0.030874 0.152232 0.021386
v 0.044275 0.010738 -0.039283
v 0.030874 0.152232 -0.003758
v 0.485535 0.635397 0.047229
v 0.485535 0.108366 0.047229
v 0.466898 0.616761 0.037961
v 0.466898 0.127002 0.037961
v 0.089154 0.141977 -0.039669
v 0.089154 0.237636 -0.039669
v 0.089154 0.141977 -0.026917
v 0.089154 0.237636 -0.026917
v -0.305265 0.108366 -0.039669
v -0.305265 0.467976 -0.039669
v -0.466899 0.127002 0.047229
v -0.466899 0.616761 0.047229
v -0.485535 0.108366 0.008380
v -0.485535 0.635397 0.008380
v -0.044275 0.008112 0.031505
v -0.030874 0.152232 0.021386
v -0.044275 0.010738 -0.039283
v -0.030874 0.152232 -0.003758
v -0.485535 0.635397 0.047229
v -0.485535 0.108366 0.047229
v -0.466899 0.616761 0.037961
v -0.466899 0.127002 0.037961
v -0.089154 0.141977 -0.039669
v -0.089154 0.237636 -0.039669
v -0.089154 0.141977 -0.026917
v -0.089154 0.237636 -0.026917
v 0.000000 -0.002697 -0.094589
v 0.000000 0.008796 0.086106
v 0.000000 0.013638 -0.094589
v 0.000000 -0.002697 0.086106
v 0.169837 -0.002697 0.008722
v 0.105886 -0.002697 0.067205
v 0.145525 -0.002697 0.046343
v 0.105886 0.008796 0.067205
v 0.169837 0.010714 0.008722
v 0.145525 0.009358 0.046343
v -0.105886 -0.002697 0.067205
v -0.169837 -0.002697 0.008722
v -0.145525 -0.002697 0.046343
v -0.169837 0.010714 0.008722
v -0.105886 0.008796 0.067205
v -0.145525 0.009358 0.046343
v 0.104653 -0.002697 -0.079245
v 0.104653 0.013638 -0.079245
v -0.172512 -0.002697 -0.052931
v -0.104653 -0.002697 -0.079245
v -0.104653 0.013638 -0.079245
v -0.172512 0.013028 -0.052931
v 0.494936 0.099960 0.027805
v 0.494936 0.643803 0.027805
v -0.494937 0.099960 0.027805
v -0.494937 0.643803 0.027805
v 0.151597 -0.002697 -0.063324
v 0.171500 -0.002697 -0.029598
v 0.171500 0.012152 -0.029598
v 0.151597 0.013301 -0.063324
vn 0.9001 -0.0000 0.4357
vn -0.0000 0.0700 0.9975
vn -0.0000 -1.0000 -0.0000
vn 0.2575 -0.0000 -0.9663
vn -0.0000 -0.9178 -0.3972
vn -0.0000 -0.0000 -1.0000
vn 0.9956 0.0932 0.0026
vn 0.0001 0.9995 0.0311
vn 0.1757 -0.0000 0.9844
vn -0.0000 -0.0000 1.0000
vn -1.0000 -0.0000 -0.0000
vn -0.0000 0.2759 -0.9612
vn -0.0000 0.9178 0.3972
vn -0.0000 1.0000 -0.0000
vn 0.1451 -0.0000 -0.9894
vn -0.9001 -0.0000 0.4357
vn -0.2575 -0.0000 -0.9663
vn -0.9956 0.0932 0.0026
vn -0.1757 -0.0000 0.9844
vn 1.0000 -0.0000 -0.0000
vn -0.0000 0.2435 -0.9699
vn -0.1451 -0.0000 -0.9894
vn -0.0001 0.9995 0.0311
vn -0.9991 -0.0000 0.0433
vn 0.4657 -0.0000 0.8849
vn 0.8399 -0.0000 0.5428
vn -0.8399 -0.0000 0.5428
vn -0.4657 -0.0000 0.8849
vn -0.3615 -0.0000 -0.9324
vn 0.3212 -0.0000 -0.9470
vn -0.9001 -0.0000 -0.4357
vn -0.0000 0.9178 -0.3972
vn -0.0000 -0.9178 0.3972
vn 0.9001 -0.0000 -0.4357
vn 0.8612 -0.0000 -0.5082
vn 0.9991 -0.0000 0.0433
vt 0.126039 0.974573
vt 0.136819 0.974573
vt 0.136819 0.979963
vt 0.126039 0.979963
vt 0.126252 0.947947
vt 0.109873 0.974649
vt 0.126039 0.969184
vt 0.136819 0.969184
vt 0.198187 0.956806
vt 0.202314 0.956806
vt 0.112682 0.975461
vt 0.114374 0.947628
vt 0.135968 0.946327
vt 0.135968 0.943770
vt 0.135968 0.943020
vt 0.135968 0.953799
vt 0.135968 0.953429
vt 0.135968 0.949528
vt 0.125189 0.953799
vt 0.136394 0.979963
vt 0.126464 0.979963
vt 0.000128 0.999872
vt 0.000128 0.000017
vt 0.562433 0.000017
vt 0.562433 0.999872
vt 0.125189 0.943020
vt 0.129659 0.969184
vt 0.126981 0.969184
vt 0.135968 0.944378
vt 0.125189 0.944378
vt 0.125189 0.949528
vt 0.125189 0.953430
vt 0.125189 0.943770
vt 0.125189 0.946327
vt 0.125189 0.943770
s 0
usemtl Palette
f 59/1/1 60/2/1 11/3/1 12/4/1
f 8/5/2 26/5/2 25/6/2 7/6/2
f 5/7/3 23/7/3 19/7/3 1/7/3
f 6/8/4 5/7/4 1/7/4 2/8/4
f 61/1/5 23/7/5 5/7/5 59/1/5
f 17/9/6 35/9/6 36/10/6 18/10/6
f 9/11/7 10/12/7 8/5/7 7/6/7
f 65/13/8 66/14/8 54/15/8 39/15/8 38/16/8 44/16/8 46/17/8 45/18/8
f 44/16/9 38/16/9 40/19/9 42/19/9
f 4/20/10 3/21/10 12/4/10 11/3/10
f 21/21/10 30/4/10 12/4/10 3/21/10
f 11/3/10 29/3/10 22/20/10 4/20/10
f 3/21/11 4/20/11 13/20/11 14/21/11
f 20/8/12 24/8/12 6/8/12 2/8/12
f 60/2/13 62/2/13 29/3/13 11/3/13
f 14/21/14 32/21/14 21/21/14 3/21/14
f 37/26/15 39/15/15 54/15/15 53/26/15
f 18/27/3 36/27/3 34/27/3 16/27/3
f 33/28/14 35/28/14 17/28/14 15/28/14
f 16/27/11 15/28/11 17/28/11 18/27/11
f 61/1/16 30/4/16 29/3/16 62/2/16
f 24/8/17 20/8/17 19/7/17 23/7/17
f 27/11/18 25/6/18 26/5/18 28/12/18
f 38/16/19 51/16/19 47/19/19 40/19/19
f 22/20/10 29/3/10 30/4/10 21/21/10
f 21/21/20 32/21/20 31/20/20 22/20/20
f 34/27/20 36/27/20 35/28/20 33/28/20
f 22/20/3 31/20/3 13/20/3 4/20/3
f 27/11/21 28/12/21 10/12/21 9/11/21
f 2/8/6 16/27/6 34/27/6 20/8/6
f 1/7/6 19/7/6 33/28/6 15/28/6
f 33/28/6 19/7/6 20/8/6 34/27/6
f 15/28/6 16/27/6 2/8/6 1/7/6
f 56/26/22 57/15/22 39/15/22 37/26/22
f 39/15/23 57/15/23 58/29/23 50/18/23 52/17/23 51/16/23 38/16/23
f 55/30/24 48/31/24 50/18/24 58/29/24
f 47/19/3 49/32/3 48/31/3 55/30/3 56/26/3 37/26/3 40/19/3
f 44/16/25 42/19/25 43/32/25 46/17/25
f 46/17/26 43/32/26 41/31/26 45/18/26
f 50/18/27 48/31/27 49/32/27 52/17/27
f 52/17/28 49/32/28 47/19/28 51/16/28
f 40/19/3 37/26/3 53/26/3 63/33/3 64/34/3 41/31/3 43/32/3 42/19/3
f 57/15/29 56/26/29 55/30/29 58/29/29
f 66/14/30 63/35/30 53/26/30 54/15/30
f 23/7/31 61/1/31 62/2/31 24/8/31
f 6/8/32 24/8/32 62/2/32 60/2/32
f 30/4/33 61/1/33 59/1/33 12/4/33
f 5/7/34 6/8/34 60/2/34 59/1/34
f 65/13/35 64/34/35 63/35/35 66/14/35
f 64/34/36 65/13/36 45/18/36 41/31/36
s 1
usemtl Screens
f 13/22/10 31/23/10 32/24/10 14/25/10
