# Blender 4.4.1
# www.blender.org
mtllib Vent.mtl
o Vent
v -0.292972 -0.246138 0.025091
v -0.292972 -0.214373 -0.006674
v 0.292972 -0.246138 0.025091
v 0.292972 -0.214373 -0.006674
v -0.292972 -0.252200 0.019030
v -0.292972 -0.220434 -0.012735
v 0.292972 -0.252200 0.019030
v 0.292972 -0.220434 -0.012735
v -0.292972 -0.187507 0.025091
v -0.292972 -0.155742 -0.006674
v 0.292972 -0.187507 0.025091
v 0.292972 -0.155742 -0.006674
v -0.292972 -0.193568 0.019030
v -0.292972 -0.161803 -0.012735
v 0.292972 -0.193568 0.019030
v 0.292972 -0.161803 -0.012735
v -0.292972 -0.128876 0.025091
v -0.292972 -0.097111 -0.006674
v 0.292972 -0.128876 0.025091
v 0.292972 -0.097111 -0.006674
v -0.292972 -0.134937 0.019030
v -0.292972 -0.103172 -0.012735
v 0.292972 -0.134937 0.019030
v 0.292972 -0.103172 -0.012735
v -0.292972 -0.070245 0.025091
v -0.292972 -0.038480 -0.006674
v 0.292972 -0.070245 0.025091
v 0.292972 -0.038480 -0.006674
v -0.292972 -0.076306 0.019030
v -0.292972 -0.044541 -0.012735
v 0.292972 -0.076306 0.019030
v 0.292972 -0.044541 -0.012735
v -0.292972 -0.011614 0.025091
v -0.292972 0.020152 -0.006674
v 0.292972 -0.011614 0.025091
v 0.292972 0.020152 -0.006674
v -0.292972 -0.017675 0.019030
v -0.292972 0.014090 -0.012735
v 0.292972 -0.017675 0.019030
v 0.292972 0.014090 -0.012735
v -0.292972 0.047017 0.025091
v -0.292972 0.078783 -0.006674
v 0.292972 0.047017 0.025091
v 0.292972 0.078783 -0.006674
v -0.292972 0.040956 0.019030
v -0.292972 0.072721 -0.012735
v 0.292972 0.040956 0.019030
v 0.292972 0.072721 -0.012735
v -0.292972 0.105649 0.025091
v -0.292972 0.137414 -0.006674
v 0.292972 0.105649 0.025091
v 0.292972 0.137414 -0.006674
v -0.292972 0.099587 0.019030
v -0.292972 0.131352 -0.012735
v 0.292972 0.099587 0.019030
v 0.292972 0.131352 -0.012735
v -0.292972 0.164280 0.025091
v -0.292972 0.196045 -0.006674
v 0.292972 0.164280 0.025091
v 0.292972 0.196045 -0.006674
v -0.292972 0.158218 0.019030
v -0.292972 0.189984 -0.012735
v 0.292972 0.158218 0.019030
v 0.292972 0.189984 -0.012735
v -0.292972 0.222911 0.025091
v -0.292972 0.254676 -0.006674
v 0.292972 0.222911 0.025091
v 0.292972 0.254676 -0.006674
v -0.292972 0.216850 0.019030
v -0.292972 0.248615 -0.012735
v 0.292972 0.216850 0.019030
v 0.292972 0.248615 -0.012735
v -0.302508 -0.302431 0.030445
v -0.302508 0.291287 0.030445
v 0.302509 -0.302431 0.030445
v 0.302509 0.291287 0.030445
v -0.302508 -0.302431 -0.024152
v -0.302508 0.291287 -0.024152
v 0.302509 -0.302431 -0.024152
v 0.302509 0.291287 -0.024152
v -0.282364 -0.282287 0.030445
v -0.282364 0.271142 0.030445
v 0.282365 -0.282287 0.030445
v 0.282365 0.271142 0.030445
v -0.282364 -0.282287 -0.024152
v -0.282364 0.271142 -0.024152
v 0.282365 -0.282287 -0.024152
v 0.282365 0.271142 -0.024152
vn -0.0000 0.7071 0.7071
vn -0.0000 -0.7071 -0.7071
vn -1.0000 -0.0000 -0.0000
vn 1.0000 -0.0000 -0.0000
vn -0.0000 -0.7071 0.7071
vn -0.0000 -1.0000 -0.0000
vn -0.0000 1.0000 -0.0000
vn -0.0000 -0.0000 1.0000
vt 0.208354 0.872868
vt 0.208354 0.885368
vt 0.220854 0.885368
vt 0.220854 0.872868
vt 0.029122 0.971170
s 0
usemtl Palette
f 2/1/1 1/2/1 3/3/1 4/4/1
f 6/1/2 8/4/2 7/3/2 5/2/2
f 1/2/3 2/1/3 6/1/3 5/2/3
f 4/4/4 3/3/4 7/3/4 8/4/4
f 3/3/5 1/2/5 5/2/5 7/3/5
f 10/1/1 9/2/1 11/3/1 12/4/1
f 14/1/2 16/4/2 15/3/2 13/2/2
f 9/2/3 10/1/3 14/1/3 13/2/3
f 12/4/4 11/3/4 15/3/4 16/4/4
f 11/3/5 9/2/5 13/2/5 15/3/5
f 18/1/1 17/2/1 19/3/1 20/4/1
f 22/1/2 24/4/2 23/3/2 21/2/2
f 17/2/3 18/1/3 22/1/3 21/2/3
f 20/4/4 19/3/4 23/3/4 24/4/4
f 19/3/5 17/2/5 21/2/5 23/3/5
f 26/1/1 25/2/1 27/3/1 28/4/1
f 30/1/2 32/4/2 31/3/2 29/2/2
f 25/2/3 26/1/3 30/1/3 29/2/3
f 28/4/4 27/3/4 31/3/4 32/4/4
f 27/3/5 25/2/5 29/2/5 31/3/5
f 34/1/1 33/2/1 35/3/1 36/4/1
f 38/1/2 40/4/2 39/3/2 37/2/2
f 33/2/3 34/1/3 38/1/3 37/2/3
f 36/4/4 35/3/4 39/3/4 40/4/4
f 35/3/5 33/2/5 37/2/5 39/3/5
f 42/1/1 41/2/1 43/3/1 44/4/1
f 46/1/2 48/4/2 47/3/2 45/2/2
f 41/2/3 42/1/3 46/1/3 45/2/3
f 44/4/4 43/3/4 47/3/4 48/4/4
f 43/3/5 41/2/5 45/2/5 47/3/5
f 50/1/1 49/2/1 51/3/1 52/4/1
f 54/1/2 56/4/2 55/3/2 53/2/2
f 49/2/3 50/1/3 54/1/3 53/2/3
f 52/4/4 51/3/4 55/3/4 56/4/4
f 51/3/5 49/2/5 53/2/5 55/3/5
f 58/1/1 57/2/1 59/3/1 60/4/1
f 62/1/2 64/4/2 63/3/2 61/2/2
f 57/2/3 58/1/3 62/1/3 61/2/3
f 60/4/4 59/3/4 63/3/4 64/4/4
f 59/3/5 57/2/5 61/2/5 63/3/5
f 66/1/1 65/2/1 67/3/1 68/4/1
f 70/1/2 72/4/2 71/3/2 69/2/2
f 65/2/3 66/1/3 70/1/3 69/2/3
f 68/4/4 67/3/4 71/3/4 72/4/4
f 67/3/5 65/2/5 69/2/5 71/3/5
f 76/5/4 75/5/4 79/5/4 80/5/4
f 73/5/3 74/5/3 78/5/3 77/5/3
f 75/5/6 73/5/6 77/5/6 79/5/6
f 74/5/7 76/5/7 80/5/7 78/5/7
f 84/5/3 88/5/3 87/5/3 83/5/3
f 81/5/4 85/5/4 86/5/4 82/5/4
f 83/5/7 87/5/7 85/5/7 81/5/7
f 82/5/6 86/5/6 88/5/6 84/5/6
f 74/5/8 73/5/8 81/5/8 82/5/8
f 76/5/8 74/5/8 82/5/8 84/5/8
f 75/5/8 76/5/8 84/5/8 83/5/8
f 73/5/8 75/5/8 83/5/8 81/5/8
